<svg xmlns="http://www.w3.org/2000/svg" width="382" height="244" viewBox="0 0 382 244">
  <g id="forgot-pass" transform="translate(-166.824 -316.297)">
    <rect id="Rectangle_207" data-name="Rectangle 207" width="382" height="244" transform="translate(166.824 316.297)" fill="#f8f8f5"/>
    <g id="Group_2226" data-name="Group 2226" transform="translate(280.802 421.094)">
      <g id="Group_2225" data-name="Group 2225" transform="translate(0 17.398)">
        <path id="Path_2786" data-name="Path 2786" d="M431.44,1025.741a24.319,24.319,0,0,0-12.892-12.6c-5.926-2.4-12.731-1.526-18.973-2.33a17.642,17.642,0,0,1-12.57-7.421c-3.1-4.123-5.883-8.689-10.954-10.6a17.657,17.657,0,0,0-12.546.481c-7.339,2.894-12.881,9.046-17.55,15.175-4.262,5.6-7.738,11.724-15.622,11.924s-15.4-4.3-23.341-3.107a25.851,25.851,0,0,0-21.072,20.718,25.586,25.586,0,0,0,9.993,24.763h127.22C432.459,1052.858,437.353,1039.191,431.44,1025.741Z" transform="translate(-285.545 -991.86)" fill="#f7f0e3"/>
        <g id="Group_2224" data-name="Group 2224" transform="translate(4.07 1.967)">
          <path id="Path_2787" data-name="Path 2787" d="M554.261,1285.523h.35a26.846,26.846,0,0,0,5.545-9.511,24.987,24.987,0,0,0-.233-17.21,49.6,49.6,0,0,0-4.093-7.552,48.485,48.485,0,0,1-4.129-7.655,17.078,17.078,0,0,1-.956-3.538l-.263-.031a17.306,17.306,0,0,0,.981,3.662,48.665,48.665,0,0,0,4.15,7.7,49.392,49.392,0,0,1,4.073,7.512,24.731,24.731,0,0,1,.228,17.033A26.551,26.551,0,0,1,554.261,1285.523Z" transform="translate(-527.44 -1216.598)" fill="#fff"/>
          <path id="Path_2788" data-name="Path 2788" d="M836.992,1068.914c2.621.558,5.147,1.06,7.59,1.374.042-.081.083-.162.124-.243-2.463-.313-5.013-.818-7.661-1.382a61.872,61.872,0,0,0-12.724-1.789,22.585,22.585,0,0,0-7.91,1.307,16.145,16.145,0,0,0-2.8,1.361c-2.315-.987-4.643-2.064-6.949-3.247,1.673-1.261,3.364-2.495,5.073-3.688,12.687-8.859,24.4-13.881,35.707-15.307-.023-.083-.046-.166-.07-.248-11.342,1.437-23.076,6.472-35.783,15.345-1.745,1.219-3.472,2.48-5.18,3.768a85.718,85.718,0,0,1-7.636-4.437,66.5,66.5,0,0,1-14.521-12.744c18.107-2.031,36.542-4.591,51.6-14.653.572-.382,1.205-.833,1.861-1.344l-.219-.153c-.629.487-1.235.917-1.784,1.284-15.051,10.059-33.52,12.6-51.651,14.63a49.761,49.761,0,0,1-8.3-14.116c-3.193-8.459-3.025-16.761.463-22.776.152-.261.311-.518.476-.773-.146.067-.29.136-.434.206q-.135.218-.263.439c-3.526,6.082-3.7,14.464-.481,23a49.958,49.958,0,0,0,8.238,14.059q-1.574.176-3.146.349c-3.776.417-7.68.848-11.471,1.336-1.384.178-2.791.386-4.191.646a88.988,88.988,0,0,0-10.561-17.815c-.061.061-.123.12-.185.18a88.672,88.672,0,0,1,10.485,17.685c-6.107,1.165-12.037,3.354-15.2,8.451-2.957,4.759-2.955,11.338.008,19.554q.154.426.315.842h.274c-.117-.3-.234-.612-.349-.929-2.934-8.138-2.945-14.642-.031-19.332,3.129-5.036,9.026-7.2,15.1-8.347,1.06,2.242,2.083,4.5,3.1,6.748l.111.244c3.533,7.8,7.187,15.327,11.972,21.616h.319c-4.828-6.3-8.5-13.873-12.058-21.722l-.111-.244c-1.009-2.227-2.024-4.468-3.074-6.69,1.373-.254,2.753-.457,4.111-.632,3.789-.488,7.691-.919,11.466-1.335q1.653-.182,3.313-.367a66.68,66.68,0,0,0,14.685,12.923,85.859,85.859,0,0,0,7.55,4.395c-4.352,3.292-8.585,6.755-12.718,10.136q-2.147,1.756-4.338,3.536h.406q2.064-1.675,4.094-3.339c4.162-3.4,8.425-6.893,12.808-10.2,2.293,1.18,4.608,2.255,6.911,3.241a19.07,19.07,0,0,0-7.272,8.875c-.194.472-.364.948-.521,1.426h.269c.148-.445.307-.889.489-1.329a18.778,18.778,0,0,1,7.322-8.85,169.049,169.049,0,0,0,18.2,6.375l.2.06a35.163,35.163,0,0,1,6.708,2.487l.174-.2a35.073,35.073,0,0,0-6.809-2.534l-.2-.061a169.367,169.367,0,0,1-18.006-6.293,15.853,15.853,0,0,1,2.6-1.244C823.138,1065.962,830.5,1067.53,836.992,1068.914Z" transform="translate(-704.089 -1011.084)" fill="#fff"/>
          <path id="Path_2789" data-name="Path 2789" d="M332.258,1334.8a20.5,20.5,0,0,1-1.383,13.7,23.593,23.593,0,0,1-5.557,7.177c.047.073.094.144.141.216a23.855,23.855,0,0,0,5.645-7.28,20.754,20.754,0,0,0,1.4-13.878,17.615,17.615,0,0,0-5.173-9l-.165.2A17.364,17.364,0,0,1,332.258,1334.8Z" transform="translate(-325.318 -1293.538)" fill="#fff"/>
        </g>
      </g>
      <path id="Path_2790" data-name="Path 2790" d="M817.786,823.879a9.563,9.563,0,0,1,2,9.651,15.488,15.488,0,0,1-6.932,8.086c-2.521,1.467-5.81,2.277-8.29.74a6.721,6.721,0,0,1-2.867-5.581,14.5,14.5,0,0,1,1.585-6.286,16.691,16.691,0,0,1,5.555-7.205C812.365,820.941,815.644,821.69,817.786,823.879Z" transform="translate(-748.875 -821.845)" fill="#f7f0e3"/>
    </g>
    <g id="Group_2227" data-name="Group 2227" transform="translate(289.711 374.954)">
      <path id="Path_2791" data-name="Path 2791" d="M508.382,379.2H489.928v-8.244h18.454Zm-18.07-.384H508v-7.477H490.312Z" transform="translate(-477.922 -370.954)" fill="#e9ddca"/>
      <path id="Path_2792" data-name="Path 2792" d="M391.061,456.241H372.607V448h18.454Zm-18.071-.384h17.687v-7.477H372.991Z" transform="translate(-372.607 -440.113)" fill="#e9ddca"/>
    </g>
    <g id="Group_2230" data-name="Group 2230" transform="translate(344.917 376.944)">
      <g id="Group_2228" data-name="Group 2228" transform="translate(0 0)">
        <path id="Path_2793" data-name="Path 2793" d="M1034.986,417.132a28.52,28.52,0,0,0-6.305-10.957,33.961,33.961,0,0,0-12.335-8.266q-7.813-3.266-19.854-3.266a77.674,77.674,0,0,0-19.578,2.59,58.179,58.179,0,0,0-17.323,7.4l6.373,17.5-3.415,2.767,4.954,1.456a72.741,72.741,0,0,1,13.364-5.575,46.208,46.208,0,0,1,12.8-1.727q6.774,0,10.258,3.266a10.424,10.424,0,0,1,3.48,7.884,15.129,15.129,0,0,1-3.572,9.9q-3.585,4.327-7.911,8.748-3.006,3.069-5.833,6.339a45.5,45.5,0,0,0-4.988,7.021,38.174,38.174,0,0,0-3.481,8.072,33.133,33.133,0,0,0-1.317,9.705c0,1.158.024,2.534.092,4.136.011.3.027.584.045.868h-4.683l5.11,3.456h24.848a16.506,16.506,0,0,1-.19-2.691v-2.309a16.69,16.69,0,0,1,1.318-6.439,33.3,33.3,0,0,1,3.3-6.057,44.753,44.753,0,0,1,4.424-5.475q2.445-2.6,4.706-4.906,3.006-3.069,6.207-6.533a51.346,51.346,0,0,0,5.65-7.3,41.017,41.017,0,0,0,4.044-8.366,29.451,29.451,0,0,0,1.605-9.9A39.589,39.589,0,0,0,1034.986,417.132Z" transform="translate(-954.731 -394.209)" fill="#e49b31"/>
        <path id="Path_2794" data-name="Path 2794" d="M945.768,414.022a46.568,46.568,0,0,0-12.65,1.671,72.744,72.744,0,0,0-13.208,5.4l-7.818-21.019a58.136,58.136,0,0,1,17.12-7.164A78.294,78.294,0,0,1,948.56,390.4q11.9,0,19.62,3.161a33.607,33.607,0,0,1,12.19,8,27.468,27.468,0,0,1,6.231,10.6,37.583,37.583,0,0,1,1.768,10.973,27.966,27.966,0,0,1-1.587,9.58,39.362,39.362,0,0,1-4,8.1,49.849,49.849,0,0,1-5.583,7.067q-3.161,3.352-6.134,6.322-2.235,2.235-4.651,4.748a43.484,43.484,0,0,0-4.372,5.3,32.025,32.025,0,0,0-3.258,5.862,15.863,15.863,0,0,0-1.3,6.231v2.235a15.653,15.653,0,0,0,.188,2.6H933.117a26.024,26.024,0,0,1-.466-4.184c-.067-1.55-.091-2.883-.091-4a31.444,31.444,0,0,1,1.3-9.392,36.547,36.547,0,0,1,3.44-7.812,44.051,44.051,0,0,1,4.929-6.795q2.789-3.161,5.765-6.134,4.278-4.278,7.818-8.466a14.459,14.459,0,0,0,3.53-9.58,10,10,0,0,0-3.44-7.63Q952.462,414.022,945.768,414.022Z" transform="translate(-912.092 -390.399)" fill="#fbc343"/>
      </g>
      <g id="Group_2229" data-name="Group 2229" transform="translate(19.444 104.321)">
        <path id="Path_2795" data-name="Path 2795" d="M1177.987,1425.288q0,6.72-4.351,10.375a15.06,15.06,0,0,1-19.682,0q-4.343-3.658-4.346-10.375t4.346-10.375a15.12,15.12,0,0,1,16.3-1.963A13.972,13.972,0,0,1,1177.987,1425.288Z" transform="translate(-1144.747 -1411.253)" fill="#e49b31"/>
        <path id="Path_2796" data-name="Path 2796" d="M1130.487,1423.883q0,6.72-4.351,10.375a15.06,15.06,0,0,1-19.682,0q-4.343-3.658-4.346-10.375t4.346-10.375a15.06,15.06,0,0,1,19.682,0Q1130.487,1417.174,1130.487,1423.883Z" transform="translate(-1102.108 -1409.848)" fill="#fbc343"/>
      </g>
    </g>
    <g id="Group_2249" data-name="Group 2249" transform="translate(288.56 402.925)">
      <g id="Group_2233" data-name="Group 2233" transform="translate(6.486 0)">
        <circle id="Ellipse_37" data-name="Ellipse 37" cx="2.676" cy="2.676" r="2.676" transform="matrix(0.184, -0.983, 0.983, 0.184, 18.38, 30.511)" fill="#d3dfff"/>
        <ellipse id="Ellipse_38" data-name="Ellipse 38" cx="1.505" cy="1.516" rx="1.505" ry="1.516" transform="translate(22.155 34.814) rotate(-79.386)" fill="#d3dfff"/>
        <g id="Group_2232" data-name="Group 2232" transform="translate(0)">
          <circle id="Ellipse_39" data-name="Ellipse 39" cx="10.536" cy="10.536" r="10.536" transform="translate(0 14.9) rotate(-45)" fill="#d3dfff"/>
          <g id="Group_2231" data-name="Group 2231" transform="translate(9.527 13.573)">
            <circle id="Ellipse_40" data-name="Ellipse 40" cx="1.327" cy="1.327" r="1.327" fill="#fff"/>
            <circle id="Ellipse_41" data-name="Ellipse 41" cx="1.327" cy="1.327" r="1.327" transform="translate(4.046)" fill="#fff"/>
            <circle id="Ellipse_42" data-name="Ellipse 42" cx="1.327" cy="1.327" r="1.327" transform="translate(8.091)" fill="#fff"/>
          </g>
        </g>
      </g>
      <g id="Group_2248" data-name="Group 2248" transform="translate(0 37.928)">
        <g id="Group_2236" data-name="Group 2236" transform="translate(6.171 41.911)">
          <g id="Group_2234" data-name="Group 2234" transform="translate(7.603 17.257)">
            <path id="Path_2797" data-name="Path 2797" d="M496.026,1597.177l.984,3.8a2.175,2.175,0,0,0,2.272,1.586c3.228-.219,9.934-1.01,13.783-3.847l-1.094-5.47c-5.292-.3-10.242,0-14.527,1.438A2.1,2.1,0,0,0,496.026,1597.177Z" transform="translate(-495.961 -1593.136)" fill="#102048"/>
            <path id="Path_2798" data-name="Path 2798" d="M544.158,1618.382a.128.128,0,0,1-.123-.094l-1.322-4.733a.128.128,0,0,1,.247-.069l1.322,4.733a.128.128,0,0,1-.123.162Z" transform="translate(-537.924 -1611.32)" fill="#fff"/>
            <path id="Path_2799" data-name="Path 2799" d="M572.074,1612.131a.128.128,0,0,1-.123-.094l-1.322-4.733a.128.128,0,1,1,.246-.069l1.322,4.733a.128.128,0,0,1-.089.157A.13.13,0,0,1,572.074,1612.131Z" transform="translate(-562.984 -1605.709)" fill="#fff"/>
          </g>
          <path id="Path_2800" data-name="Path 2800" d="M509.311,1425.281l-12.3,3.651,9.135,12.516,13.114,1.043,18.089-7.649-6.874-10.343Z" transform="translate(-489.3 -1424.498)" fill="#fbc343"/>
          <path id="Path_2801" data-name="Path 2801" d="M636.345,1434.869c27.013-8,31.354,15.877-10.793,20.223a20.389,20.389,0,0,1-3.919-7.012L643.89,1437.8Z" transform="translate(-601.17 -1432.348)" fill="#fbc343"/>
          <path id="Path_2802" data-name="Path 2802" d="M716.832,1605.775a11.686,11.686,0,0,1-2.474-1.2l-4.341,1.362.995,4.723,4.51.916A9.7,9.7,0,0,0,716.832,1605.775Z" transform="translate(-680.51 -1586.144)" fill="#f9b384"/>
          <path id="Path_2803" data-name="Path 2803" d="M620.884,1479.635l-.193-.332c4.643-2.7,16.537-9.181,26.67-11.094l.071.377C637.357,1470.488,625.51,1476.947,620.884,1479.635Z" transform="translate(-600.325 -1463.737)" fill="#e49b31"/>
          <path id="Path_2804" data-name="Path 2804" d="M441.677,1426.678c-25.144-4.781-31.656,19.383,10.492,23.729a15.31,15.31,0,0,0,3.346-6.084,191.9,191.9,0,0,0-21.646-12.371Z" transform="translate(-421.667 -1425.896)" fill="#fbc343"/>
          <path id="Path_2805" data-name="Path 2805" d="M538.525,1477.573c-1.2-.761-2.442-1.566-3.762-2.418-6.623-4.277-14.131-9.124-20.509-11.888l.153-.352c6.407,2.777,13.929,7.633,20.565,11.917,1.319.851,2.565,1.656,3.76,2.417Z" transform="translate(-504.78 -1458.984)" fill="#e49b31"/>
          <path id="Path_2806" data-name="Path 2806" d="M433.991,1517.549l-.336-.185a7.055,7.055,0,0,1,4.493-3.425l.1.37A6.6,6.6,0,0,0,433.991,1517.549Z" transform="translate(-432.428 -1504.786)" fill="#e49b31"/>
          <path id="Path_2807" data-name="Path 2807" d="M912.4,1503.333a6.6,6.6,0,0,0-4.26-3.241l.1-.37a7.055,7.055,0,0,1,4.493,3.425Z" transform="translate(-858.362 -1492.024)" fill="#e49b31"/>
          <path id="Path_2808" data-name="Path 2808" d="M694.271,1598.672l-.281-.262a14.373,14.373,0,0,0,3.776-6.952l.376.079A14.744,14.744,0,0,1,694.271,1598.672Z" transform="translate(-666.123 -1574.373)" fill="#e49b31"/>
          <g id="Group_2235" data-name="Group 2235" transform="translate(35.012 17.606)">
            <path id="Path_2809" data-name="Path 2809" d="M777.662,1597.168c-3.221-1.99-9.467,1.449-11.034,1.622a3.771,3.771,0,0,1-1.506-.216,9.7,9.7,0,0,1-1.31,5.8l.766.156a22.552,22.552,0,0,0,10.914.811A4.541,4.541,0,0,0,777.662,1597.168Z" transform="translate(-763.812 -1596.551)" fill="#102048"/>
            <path id="Path_2810" data-name="Path 2810" d="M850.078,1617.394a.133.133,0,0,1-.039-.006.128.128,0,0,1-.083-.161,6.554,6.554,0,0,0-.559-5.2.128.128,0,0,1,.21-.146,6.83,6.83,0,0,1,.592,5.42A.128.128,0,0,1,850.078,1617.394Z" transform="translate(-840.619 -1610.266)" fill="#fff"/>
            <path id="Path_2811" data-name="Path 2811" d="M825.391,1622.081a.133.133,0,0,1-.039-.006.128.128,0,0,1-.083-.161,6.555,6.555,0,0,0-.559-5.2.128.128,0,1,1,.21-.146,6.83,6.83,0,0,1,.592,5.42A.128.128,0,0,1,825.391,1622.081Z" transform="translate(-818.458 -1614.474)" fill="#fff"/>
          </g>
        </g>
        <g id="Group_2244" data-name="Group 2244">
          <g id="Group_2238" data-name="Group 2238" transform="translate(14.255 0.226)">
            <path id="Path_2812" data-name="Path 2812" d="M508.148,1028.448s6.332-5.385,6.1-6.408c-.167-.731-1.961.341-1.961.341s2.516-2.985,2.388-3.347c-.229-.648-1.968.56-1.968.56s1.176-1.693.614-1.968-1.788.767-1.788.767.716-.94.38-1.186-1.788.767-1.788.767.521-1.185-.586-.736-8.865,7.569-8.865,7.569Z" transform="translate(-500.671 -1017.136)" fill="#f9b384"/>
            <g id="Group_2237" data-name="Group 2237" transform="translate(7.126 0.709)">
              <path id="Path_2813" data-name="Path 2813" d="M573.254,1048.716a.128.128,0,0,1-.086-.034,5.809,5.809,0,0,0-2.765-1.6.128.128,0,1,1,.075-.244,6.012,6.012,0,0,1,2.863,1.659.128.128,0,0,1-.086.222Z" transform="translate(-570.312 -1044.5)" fill="#e28b6d"/>
              <path id="Path_2814" data-name="Path 2814" d="M579.295,1076.313h-.018a.128.128,0,0,1-.109-.144,2.146,2.146,0,0,1,.857-1.7,1.66,1.66,0,0,1,1.495.066.128.128,0,0,1-.1.235,1.427,1.427,0,0,0-1.268-.078,1.954,1.954,0,0,0-.729,1.513A.128.128,0,0,1,579.295,1076.313Z" transform="translate(-578.261 -1069.176)" fill="#e28b6d"/>
              <path id="Path_2815" data-name="Path 2815" d="M576.378,1025.823a.128.128,0,0,1-.088-.221l1.589-1.5a.128.128,0,1,1,.176.186l-1.589,1.5A.127.127,0,0,1,576.378,1025.823Z" transform="translate(-575.642 -1024.07)" fill="#e28b6d"/>
              <path id="Path_2816" data-name="Path 2816" d="M590.753,1030.01a.128.128,0,0,1-.092-.216l1.526-1.59a.128.128,0,0,1,.185.177l-1.526,1.59A.128.128,0,0,1,590.753,1030.01Z" transform="translate(-588.546 -1027.745)" fill="#e28b6d"/>
              <path id="Path_2817" data-name="Path 2817" d="M605.44,1041.443a.128.128,0,0,1-.094-.215l1.2-1.285a.128.128,0,1,1,.187.174l-1.2,1.285A.128.128,0,0,1,605.44,1041.443Z" transform="translate(-601.731 -1038.283)" fill="#e28b6d"/>
            </g>
          </g>
          <g id="Group_2239" data-name="Group 2239" transform="translate(0 6.479)">
            <path id="Path_2818" data-name="Path 2818" d="M581.961,1211.842l-23.152.9-2.558-21.106s7.751-7.352,10.733-10.059l5.034-.258C587.636,1188.414,585.078,1197.281,581.961,1211.842Z" transform="translate(-536.307 -1170.768)" fill="#3a6bea"/>
            <path id="Path_2819" data-name="Path 2819" d="M710.329,1181.315s17.869,1.528,23.5,13.771c5.512,11.979-17.14,16.245-17.14,16.245Z" transform="translate(-674.619 -1170.768)" fill="#3a6bea"/>
            <path id="Path_2820" data-name="Path 2820" d="M376.648,1091.416l7.384-8.986-6.905-4.185a90.052,90.052,0,0,0-13.171,11.676,9.749,9.749,0,0,0-2.266,3.917,8.429,8.429,0,0,0-.217,3.677h0a7.1,7.1,0,0,0,6.274,5.943c2.813.329,13.559-.512,22.257-3.07l2.558-9.874C391.249,1089.769,381.478,1089.639,376.648,1091.416Z" transform="translate(-361.364 -1078.245)" fill="#3a6bea"/>
          </g>
          <g id="Group_2240" data-name="Group 2240" transform="translate(3.774 9.451)" opacity="0.8">
            <path id="Path_2821" data-name="Path 2821" d="M779.308,1197.868l.116-.026-.243-.141a38.729,38.729,0,0,1-3.992.77c-.8.1-3.475.273-4.256-1.509a2.792,2.792,0,0,1,.345-2.564l-.192-.055a2.962,2.962,0,0,0-.329,2.7c.834,1.9,3.621,1.723,4.455,1.622A39.546,39.546,0,0,0,779.308,1197.868Z" transform="translate(-732.46 -1185.435)" fill="#fff"/>
            <path id="Path_2822" data-name="Path 2822" d="M886.935,1358.486a5.933,5.933,0,0,0-2.663-.583,3.737,3.737,0,0,0-3.1,3.585,5.623,5.623,0,0,0,1.323,3.691l.163-.1a5.439,5.439,0,0,1-1.294-3.58,3.54,3.54,0,0,1,2.929-3.4,5.727,5.727,0,0,1,2.575.571c.311.12.627.241.948.344.017-.062.033-.124.048-.186C887.548,1358.722,887.239,1358.6,886.935,1358.486Z" transform="translate(-831.747 -1332.245)" fill="#fff"/>
            <path id="Path_2823" data-name="Path 2823" d="M418.619,1295.978a5.329,5.329,0,0,0-4.755-.677,8.206,8.206,0,0,0-4.157,2.461c.066.021.13.045.2.065a8.047,8.047,0,0,1,4.008-2.34,5.143,5.143,0,0,1,4.585.639,4.165,4.165,0,0,1,1.127,1.553l.2-.023A4.386,4.386,0,0,0,418.619,1295.978Z" transform="translate(-408.534 -1275.838)" fill="#fff"/>
            <path id="Path_2824" data-name="Path 2824" d="M398.243,1114.738a23.143,23.143,0,0,0,6.012-2.333,6.569,6.569,0,0,0,2.078-1.7,2.917,2.917,0,0,0,.534-2.6,2.03,2.03,0,0,0-.521-.821l-.148.121a1.849,1.849,0,0,1,.486.76,2.725,2.725,0,0,1-.506,2.423,6.39,6.39,0,0,1-2.02,1.646,22.668,22.668,0,0,1-5.666,2.24Z" transform="translate(-398.243 -1107.289)" fill="#fff"/>
          </g>
          <g id="Group_2242" data-name="Group 2242" transform="translate(22.967)">
            <path id="Path_2825" data-name="Path 2825" d="M669.634,1132.615l0,.328-.052,5.089-.006.551a3.169,3.169,0,0,1-6.338,0l-.062-6.289Z" transform="translate(-655.255 -1120.281)" fill="#f9b384"/>
            <path id="Path_2826" data-name="Path 2826" d="M690.8,1138.662l-.052,5.089a8.061,8.061,0,0,1-3.993-4.213Z" transform="translate(-676.423 -1126)" fill="#102048"/>
            <path id="Path_2827" data-name="Path 2827" d="M665.016,1047.968c1.014,1.216,3.973,8.108.973,10.46-3.376,2.646-8.514-1.7-8.514-1.7l-.689-8.027,4.46-1.176Z" transform="translate(-649.522 -1044.187)" fill="#f9b384"/>
            <path id="Path_2828" data-name="Path 2828" d="M590.793,1047.559s-9.892,5.159-1.826,20.031a4.051,4.051,0,0,0,5.294,1.812h0a4.012,4.012,0,0,0,1.759-5.6c-1.319-2.344-2.593-5.362-2.049-7.608Z" transform="translate(-585.801 -1044.22)" fill="#102048"/>
            <circle id="Ellipse_43" data-name="Ellipse 43" cx="2.676" cy="2.676" r="2.676" transform="translate(2.142 5.781) rotate(-45)" fill="#fbc343"/>
            <path id="Path_2829" data-name="Path 2829" d="M632.509,1023.927c-.289-1.669-.465-2.814,1.222-3.675,0,0,5.946,1.081,7.082-1.162s-.595-5.784-4.216-3.324c-9.271-1.811-10.514,6.865-7.7,9.757l2.774-.426A1.01,1.01,0,0,0,632.509,1023.927Z" transform="translate(-623.291 -1014.931)" fill="#102048"/>
            <g id="Group_2241" data-name="Group 2241" transform="translate(11.963 5.951)">
              <circle id="Ellipse_44" data-name="Ellipse 44" cx="0.395" cy="0.395" r="0.395" transform="translate(1.463 2.655)" fill="#102048"/>
              <circle id="Ellipse_45" data-name="Ellipse 45" cx="0.395" cy="0.395" r="0.395" transform="translate(4.139 1.337)" fill="#102048"/>
              <path id="Path_2830" data-name="Path 2830" d="M736.783,1098.767a.112.112,0,0,1-.081-.189c.159-.167.332-.4.259-.572s-.4-.253-.543-.253c-.315,0-.467-.561-.494-.674a.112.112,0,1,1,.218-.052c.058.237.188.5.276.5.151,0,.613.071.749.388.1.226,0,.5-.3.814A.111.111,0,0,1,736.783,1098.767Z" transform="translate(-732.523 -1094.5)" fill="#102048"/>
              <path id="Path_2831" data-name="Path 2831" d="M729.335,1125.124a.112.112,0,0,1-.063-.019,1.5,1.5,0,0,0-1.5-.077.112.112,0,0,1-.112-.194,1.7,1.7,0,0,1,1.74.085.112.112,0,0,1-.063.2Z" transform="translate(-725.054 -1119.357)" fill="#102048"/>
              <path id="Path_2832" data-name="Path 2832" d="M704.4,1084.536c.225.423-.167.508-.626.752s-.929.333-1.036.131.178-.563.637-.807S704.221,1084.209,704.4,1084.536Z" transform="translate(-702.71 -1083.198)" fill="#102048"/>
              <path id="Path_2833" data-name="Path 2833" d="M735.442,1073.659c.1.378.381.212.791.105s.741-.313.694-.493-.418-.239-.828-.132S735.366,1073.367,735.442,1073.659Z" transform="translate(-732.083 -1073.085)" fill="#102048"/>
            </g>
            <circle id="Ellipse_46" data-name="Ellipse 46" cx="1.166" cy="1.166" r="1.166" transform="matrix(0.735, -0.678, 0.678, 0.735, 10.35, 10.779)" fill="#eb5d60" opacity="0.4"/>
            <ellipse id="Ellipse_47" data-name="Ellipse 47" cx="1.579" cy="1.794" rx="1.579" ry="1.794" transform="matrix(0.611, -0.792, 0.792, 0.611, 5.186, 11.004)" fill="#f9b384"/>
            <path id="Path_2834" data-name="Path 2834" d="M654,1115.252a.112.112,0,0,1-.112-.112.981.981,0,0,0-.431-.817.79.79,0,0,0-.736-.1.112.112,0,0,1-.085-.207,1.012,1.012,0,0,1,.945.119,1.2,1.2,0,0,1,.53,1A.112.112,0,0,1,654,1115.252Z" transform="translate(-645.732 -1103.818)" fill="#102048"/>
          </g>
          <g id="Group_2243" data-name="Group 2243" transform="translate(11.151 19.563)">
            <rect id="Rectangle_335" data-name="Rectangle 335" width="5.95" height="0.256" transform="translate(0 4.369) rotate(-47.248)" fill="#102048"/>
            <path id="Path_2835" data-name="Path 2835" d="M787.21,1341.809l-.074-.245c2.94-.9,5.794-1.968,8.38-5.2l.2.16C793.084,1339.813,790.191,1340.9,787.21,1341.809Z" transform="translate(-754.718 -1323.032)" fill="#102048"/>
          </g>
        </g>
        <g id="Group_2247" data-name="Group 2247" transform="translate(18.792 28.432)">
          <g id="Group_2245" data-name="Group 2245">
            <path id="Path_2836" data-name="Path 2836" d="M571.64,1292.776H546.629a1.7,1.7,0,0,0-1.629,1.762V1312.4a1.7,1.7,0,0,0,1.629,1.762H571.64a1.7,1.7,0,0,0,1.629-1.762v-17.858A1.7,1.7,0,0,0,571.64,1292.776Z" transform="translate(-545 -1292.776)" fill="#d3dfff"/>
          </g>
          <g id="Group_2246" data-name="Group 2246" transform="translate(12.13 9.05)">
            <path id="Path_2837" data-name="Path 2837" d="M666.866,1381.73a.179.179,0,0,1,.172.186v1.885a.179.179,0,0,1-.172.186h-2.641a.179.179,0,0,1-.172-.186v-1.885a.179.179,0,0,1,.172-.186h2.641m0-.512h-2.641a.691.691,0,0,0-.684.7v1.885a.691.691,0,0,0,.684.7h2.641a.691.691,0,0,0,.684-.7v-1.885a.691.691,0,0,0-.684-.7Z" transform="translate(-663.542 -1381.218)" fill="#1f3c88"/>
          </g>
        </g>
      </g>
    </g>
    <rect id="Rectangle_336" data-name="Rectangle 336" width="150.802" height="0.512" transform="translate(280.261 509.128)" fill="#102048"/>
  </g>
</svg>
