<svg xmlns="http://www.w3.org/2000/svg" width="12.146" height="12.148" viewBox="0 0 12.146 12.148">
  <g id="info" transform="translate(385.084 -103.734)">
    <path id="Path_3266" data-name="Path 3266" d="M-379.366,115.882c-.234-.031-.471-.051-.7-.1a5.983,5.983,0,0,1-4.3-3.13,5.632,5.632,0,0,1-.7-3.1,5.954,5.954,0,0,1,3.214-5.1,5.562,5.562,0,0,1,3.1-.7,5.963,5.963,0,0,1,5.1,3.213,5.622,5.622,0,0,1,.694,2.392.808.808,0,0,0,.02.1v.712a.807.807,0,0,0-.02.1,5.714,5.714,0,0,1-.693,2.392,5.991,5.991,0,0,1-4.3,3.127c-.232.045-.468.064-.7.1Z" fill="#fff"/>
    <path id="Path_3267" data-name="Path 3267" d="M-226.745,275.212a.463.463,0,0,1,.393-.463,3.141,3.141,0,0,1,1.006-.187.82.82,0,0,1,.808.607,1.727,1.727,0,0,1-.029.656c-.121.514-.277,1.02-.413,1.531a1.529,1.529,0,0,0-.04.34.28.28,0,0,0,.267.329,2.984,2.984,0,0,0,.515-.02.934.934,0,0,0,.177-.053c-.031.118-.054.22-.085.32-.006.02-.039.037-.063.045a6.863,6.863,0,0,1-.74.245,1.292,1.292,0,0,1-1.07-.152.729.729,0,0,1-.319-.673,5.284,5.284,0,0,1,.262-1.151c.081-.3.158-.6.235-.9a.623.623,0,0,0,.013-.129c.013-.329-.132-.467-.464-.429C-226.441,275.14-226.589,275.181-226.745,275.212Z" transform="translate(-153.635 -165.753)" fill="#91c947"/>
    <path id="Path_3268" data-name="Path 3268" d="M-185.682,206.027a.739.739,0,0,1,.782.727.711.711,0,0,1-.554.655.81.81,0,0,1-.925-.372.707.707,0,0,1,.615-1.006C-185.733,206.029-185.7,206.028-185.682,206.027Z" transform="translate(-192.73 -99.254)" fill="#91c947"/>
  </g>
</svg>
