<svg xmlns="http://www.w3.org/2000/svg" xmlns:xlink="http://www.w3.org/1999/xlink" width="376" height="326.441" viewBox="0 0 376 326.441">
  <defs>
    <linearGradient id="linear-gradient" x1="0.394" y1="-0.202" x2="0.551" y2="0.839" gradientUnits="objectBoundingBox">
      <stop offset="0" stop-color="#6ec2fc"/>
      <stop offset="0.981" stop-color="#fff"/>
    </linearGradient>
    <linearGradient id="linear-gradient-2" x1="0.677" y1="-0.23" x2="0.471" y2="0.621" xlink:href="#linear-gradient"/>
    <linearGradient id="linear-gradient-3" x1="0.887" y1="2.257" x2="0.359" y2="-0.142" gradientUnits="objectBoundingBox">
      <stop offset="0" stop-color="#e0ecf6"/>
      <stop offset="1" stop-color="#bed3e4"/>
    </linearGradient>
    <linearGradient id="linear-gradient-5" x1="0.165" y1="-0.03" x2="0.677" y2="0.805" gradientUnits="objectBoundingBox">
      <stop offset="0" stop-color="#72c7bb"/>
      <stop offset="0.981" stop-color="#4473e4"/>
    </linearGradient>
    <linearGradient id="linear-gradient-6" x1="0.984" y1="0.43" x2="0.136" y2="0.655" gradientUnits="objectBoundingBox">
      <stop offset="0" stop-color="#6ec2fc"/>
      <stop offset="0.981" stop-color="#4473e4"/>
    </linearGradient>
    <linearGradient id="linear-gradient-7" x1="1.004" y1="1.137" x2="0.443" y2="0.472" xlink:href="#linear-gradient-6"/>
    <linearGradient id="linear-gradient-8" x1="0.636" y1="0.203" x2="0.28" y2="1.077" xlink:href="#linear-gradient-6"/>
    <linearGradient id="linear-gradient-9" x1="-1.619" y1="0.491" x2="1.345" y2="0.491" xlink:href="#linear-gradient-6"/>
    <linearGradient id="linear-gradient-10" x1="1.025" y1="0.106" x2="-0.237" y2="0.885" gradientUnits="objectBoundingBox">
      <stop offset="0" stop-color="#e3825e"/>
      <stop offset="0.563" stop-color="#d3595f"/>
      <stop offset="1" stop-color="#c93f60"/>
    </linearGradient>
    <linearGradient id="linear-gradient-11" x1="-56.855" y1="-3.371" x2="-55.84" y2="-3.371" gradientUnits="objectBoundingBox">
      <stop offset="0" stop-color="#c93f60"/>
      <stop offset="0.437" stop-color="#d3595f"/>
      <stop offset="1" stop-color="#e3825e"/>
    </linearGradient>
    <linearGradient id="linear-gradient-12" x1="0.014" y1="0.47" x2="0.892" y2="0.366" gradientUnits="objectBoundingBox">
      <stop offset="0" stop-color="#705cb2"/>
      <stop offset="0.969" stop-color="#d93e73"/>
    </linearGradient>
    <linearGradient id="linear-gradient-13" x1="-1.085" y1="-7.45" x2="-0.349" y2="-7.45" gradientUnits="objectBoundingBox">
      <stop offset="0.031" stop-color="#d93e73"/>
      <stop offset="1" stop-color="#705cb2"/>
    </linearGradient>
    <linearGradient id="linear-gradient-14" y1="0.5" x2="1" y2="0.5" gradientUnits="objectBoundingBox">
      <stop offset="0" stop-color="#2f456b"/>
      <stop offset="1" stop-color="#40689e"/>
    </linearGradient>
    <linearGradient id="linear-gradient-15" x1="0.5" y1="1.071" x2="0.5" y2="0.231" xlink:href="#linear-gradient-3"/>
    <linearGradient id="linear-gradient-16" x1="0.515" y1="0.5" x2="-0.012" y2="0.5" gradientUnits="objectBoundingBox">
      <stop offset="0" stop-color="#fff"/>
      <stop offset="0.367" stop-color="#fbfcfd"/>
      <stop offset="0.709" stop-color="#f0f5fa"/>
      <stop offset="1" stop-color="#e0ecf6"/>
    </linearGradient>
    <linearGradient id="linear-gradient-17" x1="0" y1="0.5" x2="1" y2="0.5" xlink:href="#linear-gradient-3"/>
    <linearGradient id="linear-gradient-23" x1="0.656" y1="0.5" x2="0.984" y2="0.5" gradientUnits="objectBoundingBox">
      <stop offset="0" stop-color="#fff"/>
      <stop offset="0.452" stop-color="#fcfdfe"/>
      <stop offset="0.717" stop-color="#f4f8fb"/>
      <stop offset="0.932" stop-color="#e6eff7"/>
      <stop offset="1" stop-color="#e0ecf6"/>
    </linearGradient>
    <linearGradient id="linear-gradient-31" x1="0.382" y1="-0.193" x2="0.606" y2="1.137" xlink:href="#linear-gradient-3"/>
    <linearGradient id="linear-gradient-32" y1="0.5" x2="1" y2="0.5" gradientUnits="objectBoundingBox">
      <stop offset="0" stop-color="#fff"/>
      <stop offset="0.854" stop-color="#e0ecf6"/>
    </linearGradient>
    <linearGradient id="linear-gradient-41" x1="0" y1="0.5" x2="1" y2="0.5" xlink:href="#linear-gradient-3"/>
    <linearGradient id="linear-gradient-44" x1="0" y1="0.5" x2="1" y2="0.5" xlink:href="#linear-gradient-5"/>
    <linearGradient id="linear-gradient-58" x1="0" y1="0.5" x2="1" y2="0.5" xlink:href="#linear-gradient-3"/>
    <linearGradient id="linear-gradient-61" x1="0" y1="0.5" x2="1" y2="0.5" xlink:href="#linear-gradient-10"/>
    <linearGradient id="linear-gradient-80" x1="1.066" y1="0.059" x2="0.176" y2="0.753" xlink:href="#linear-gradient-14"/>
    <linearGradient id="linear-gradient-82" x1="0.5" y1="1.226" x2="0.5" y2="-2.063" gradientUnits="objectBoundingBox">
      <stop offset="0" stop-color="#e0ecf6"/>
      <stop offset="1" stop-color="#80939c"/>
    </linearGradient>
    <linearGradient id="linear-gradient-86" y1="0.5" x2="1" y2="0.5" gradientUnits="objectBoundingBox">
      <stop offset="0" stop-color="#e3825e"/>
      <stop offset="1" stop-color="#c93f60"/>
    </linearGradient>
    <linearGradient id="linear-gradient-87" x1="0.5" y1="0.277" x2="0.5" y2="0.942" xlink:href="#linear-gradient-14"/>
    <linearGradient id="linear-gradient-88" x1="0.5" y1="0.93" x2="0.5" y2="0.093" xlink:href="#linear-gradient-14"/>
    <linearGradient id="linear-gradient-89" x1="-0.917" y1="0.5" x2="0.812" y2="0.5" xlink:href="#linear-gradient-14"/>
    <linearGradient id="linear-gradient-90" x1="-0.384" y1="0.5" x2="0.867" y2="0.5" xlink:href="#linear-gradient-14"/>
    <linearGradient id="linear-gradient-91" x1="0.926" y1="0.5" x2="0.072" y2="0.5" xlink:href="#linear-gradient-14"/>
    <linearGradient id="linear-gradient-92" y1="0.5" x2="1" y2="0.5" gradientUnits="objectBoundingBox">
      <stop offset="0" stop-color="#ebb340"/>
      <stop offset="1" stop-color="#f3d646"/>
    </linearGradient>
    <linearGradient id="linear-gradient-93" x1="0.5" y1="-0.017" x2="0.5" y2="0.783" xlink:href="#linear-gradient-14"/>
    <linearGradient id="linear-gradient-94" x1="0.5" y1="0.719" x2="0.5" y2="-0.331" xlink:href="#linear-gradient-92"/>
    <linearGradient id="linear-gradient-95" x1="0.5" y1="0.155" x2="0.5" y2="0.83" gradientUnits="objectBoundingBox">
      <stop offset="0" stop-color="#ebae8e"/>
      <stop offset="1" stop-color="#f0c894"/>
    </linearGradient>
    <linearGradient id="linear-gradient-96" x1="0.223" y1="0.5" x2="1.085" y2="0.5" gradientUnits="objectBoundingBox">
      <stop offset="0" stop-color="#302254"/>
      <stop offset="0.997" stop-color="#452a52"/>
    </linearGradient>
    <linearGradient id="linear-gradient-97" x1="0.5" y1="0.082" x2="0.5" y2="0.655" xlink:href="#linear-gradient-95"/>
    <linearGradient id="linear-gradient-98" x1="0" y1="0.5" x2="1" y2="0.5" xlink:href="#linear-gradient-96"/>
    <linearGradient id="linear-gradient-99" x1="0.5" y1="0.45" x2="0.5" y2="1.027" xlink:href="#linear-gradient-96"/>
    <linearGradient id="linear-gradient-100" x1="0.5" y1="0.928" x2="0.5" y2="0.347" xlink:href="#linear-gradient-96"/>
    <linearGradient id="linear-gradient-101" x1="0.5" y1="1" x2="0.5" y2="0" xlink:href="#linear-gradient-95"/>
    <linearGradient id="linear-gradient-102" x1="0.5" y1="0.188" x2="0.5" y2="0.566" gradientUnits="objectBoundingBox">
      <stop offset="0" stop-color="#5ca1ed"/>
      <stop offset="0.997" stop-color="#467cd1"/>
    </linearGradient>
    <linearGradient id="linear-gradient-104" x1="0.5" y1="0.212" x2="0.5" y2="1.019" gradientUnits="objectBoundingBox">
      <stop offset="0" stop-color="#5ca1ed"/>
      <stop offset="0.997" stop-color="#4d87e2"/>
    </linearGradient>
    <linearGradient id="linear-gradient-105" x1="0.866" y1="0.402" x2="0.213" y2="0.606" xlink:href="#linear-gradient-16"/>
    <linearGradient id="linear-gradient-106" x1="-0.672" y1="0.5" x2="2.159" y2="0.5" xlink:href="#linear-gradient-3"/>
    <linearGradient id="linear-gradient-107" x1="0.5" y1="1.242" x2="0.5" y2="0.439" xlink:href="#linear-gradient-95"/>
    <linearGradient id="linear-gradient-108" x1="1.698" y1="0.919" x2="-0.297" y2="0.221" xlink:href="#linear-gradient-14"/>
    <linearGradient id="linear-gradient-109" x1="-0.29" y1="0.195" x2="1.353" y2="0.83" xlink:href="#linear-gradient-96"/>
    <linearGradient id="linear-gradient-110" x1="0.5" y1="0.998" x2="0.5" y2="0.034" xlink:href="#linear-gradient-14"/>
    <linearGradient id="linear-gradient-112" x1="0.5" y1="0.161" x2="0.5" y2="1.52" xlink:href="#linear-gradient-96"/>
    <linearGradient id="linear-gradient-114" x1="0.5" y1="0.117" x2="0.5" y2="1.184" xlink:href="#linear-gradient-96"/>
    <linearGradient id="linear-gradient-115" x1="0.5" y1="0.205" x2="0.5" y2="0.77" xlink:href="#linear-gradient-96"/>
    <linearGradient id="linear-gradient-116" x1="0.5" y1="0.084" x2="0.5" y2="0.55" xlink:href="#linear-gradient-96"/>
    <linearGradient id="linear-gradient-118" x1="0.5" y1="0.688" x2="0.5" y2="-0.255" xlink:href="#linear-gradient-95"/>
    <linearGradient id="linear-gradient-119" x1="0.423" y1="-0.116" x2="0.641" y2="1.108" xlink:href="#linear-gradient-10"/>
    <linearGradient id="linear-gradient-120" x1="0.757" y1="1.006" x2="0.757" y2="0.005" xlink:href="#linear-gradient-95"/>
    <linearGradient id="linear-gradient-122" x1="0.779" y1="0.996" x2="0.779" y2="-0.004" xlink:href="#linear-gradient-95"/>
    <linearGradient id="linear-gradient-123" x1="0.546" y1="-0.06" x2="0.546" y2="0.941" xlink:href="#linear-gradient-96"/>
    <linearGradient id="linear-gradient-125" x1="0.5" y1="0.236" x2="0.5" y2="0.883" xlink:href="#linear-gradient-95"/>
    <linearGradient id="linear-gradient-126" x1="0.501" y1="1.012" x2="0.501" y2="0.007" xlink:href="#linear-gradient-95"/>
    <linearGradient id="linear-gradient-127" x1="0.544" y1="-0.174" x2="0.544" y2="0.983" xlink:href="#linear-gradient-10"/>
    <linearGradient id="linear-gradient-128" x1="0.5" y1="1.206" x2="0.5" y2="0.63" xlink:href="#linear-gradient-95"/>
    <linearGradient id="linear-gradient-129" x1="0.463" y1="0.671" x2="0.463" y2="1.117" xlink:href="#linear-gradient-96"/>
    <linearGradient id="linear-gradient-130" x1="0.508" y1="0.366" x2="0.508" y2="0.842" xlink:href="#linear-gradient-96"/>
    <linearGradient id="linear-gradient-131" x1="0.21" y1="0.428" x2="0.21" y2="1.274" xlink:href="#linear-gradient-16"/>
    <linearGradient id="linear-gradient-132" x1="0.076" y1="0.57" x2="0.076" y2="1.257" xlink:href="#linear-gradient-96"/>
    <linearGradient id="linear-gradient-133" x1="0.644" y1="0.538" x2="0.644" y2="0.978" xlink:href="#linear-gradient-96"/>
    <linearGradient id="linear-gradient-134" x1="0.5" y1="0.196" x2="0.5" y2="1.144" gradientUnits="objectBoundingBox">
      <stop offset="0" stop-color="#f5de42"/>
      <stop offset="1" stop-color="#e8a32d"/>
    </linearGradient>
    <linearGradient id="linear-gradient-136" x1="1.066" y1="-0.295" x2="0.217" y2="1.021" xlink:href="#linear-gradient-14"/>
    <linearGradient id="linear-gradient-137" x1="0.895" y1="-0.094" x2="0.183" y2="0.982" xlink:href="#linear-gradient-14"/>
    <linearGradient id="linear-gradient-138" x1="1.034" y1="-0.567" x2="0.039" y2="1.122" xlink:href="#linear-gradient-14"/>
    <linearGradient id="linear-gradient-139" x1="0.5" y1="0.355" x2="0.5" y2="2.906" xlink:href="#linear-gradient-134"/>
    <linearGradient id="linear-gradient-140" x1="0.5" y1="-0.109" x2="0.5" y2="2.916" xlink:href="#linear-gradient-134"/>
    <linearGradient id="linear-gradient-141" x1="0.5" y1="-2.892" x2="0.5" y2="2.976" xlink:href="#linear-gradient-134"/>
    <linearGradient id="linear-gradient-142" x1="0.5" y1="-5.177" x2="0.5" y2="0.285" xlink:href="#linear-gradient-134"/>
    <linearGradient id="linear-gradient-144" x1="0.5" y1="-2.892" x2="0.5" y2="2.976" xlink:href="#linear-gradient-134"/>
  </defs>
  <g id="intro" transform="translate(0 -65.903)">
    <path id="Path_1796" data-name="Path 1796" d="M376,93.679a52.455,52.455,0,0,0-14.6,1.18c-24.534,5.662-43.723,29.243-44.279,54.415-24.8-19.617-62.171-17.495-88.993-.751s-44.251,45.421-54.706,75.261c-7.038,20.087-11.376,41.485-9.241,62.662-21.379-13.075-45.793-22.17-70.853-22.128S42.6,274.414,27.012,294.04c-13.729,17.29-18.57,40.284-17.921,62.352A39.479,39.479,0,0,0,0,355.066v44.145H376Z" transform="translate(0 -6.868)" fill="url(#linear-gradient)"/>
    <path id="Path_1797" data-name="Path 1797" d="M376,320.361c-61.723-25.591-139.114-3.039-151,7.525-7.549-17.738-15.878-36.451-31.82-47.29-12.278-8.346-27.535-10.884-42.325-12.183-27.365-2.4-55.8-1.1-80.89,10.081,4.758-17.055,3.792-36.716-7.038-50.725s-33.1-19.457-46.98-8.468c-.2-15.6-2.354-34.373-15.948-41.5v242.3H376Z" transform="translate(0 -27.75)" fill="url(#linear-gradient-2)"/>
    <g id="Group_616" data-name="Group 616" transform="translate(22.177 65.903)">
      <path id="Path_1798" data-name="Path 1798" d="M263.908,427.1c0,2.328-10.078,4.216-22.51,4.216s-22.51-1.888-22.51-4.216,10.078-4.216,22.51-4.216S263.908,424.773,263.908,427.1Z" transform="translate(-76.461 -154.435)" fill="url(#linear-gradient-3)"/>
      <path id="Path_1799" data-name="Path 1799" d="M404.988,396.808c0,2.846-12.317,5.153-27.512,5.153s-27.511-2.307-27.511-5.153,12.317-5.152,27.511-5.152S404.988,393.962,404.988,396.808Z" transform="translate(-108.969 -146.69)" fill="url(#linear-gradient-3)"/>
      <path id="Path_1800" data-name="Path 1800" d="M275.887,181.892c-6.358-19.66-17.929-40.051-38.63-47.461-10.936-3.915-23.142-3.653-34.691-1.77s-22.737,5.309-34.2,7.6A178.038,178.038,0,0,1,124.61,143.5c-13.928-.695-28.7-2.884-41.208,2.826-12.579,5.744-19.982,18.656-21.5,31.549s2.021,25.837,6.548,38.112,10.1,24.293,12.87,37.006a87.379,87.379,0,0,1,1.366,29.193c-.577,4.72-1.53,9.579-.132,14.15,3.1,10.139,15.857,14.441,27,16.662,25.962,5.176,52.859,7.223,79.157,3.791s52.015-12.532,72.654-27.984a70.3,70.3,0,0,0,12.331-11.366c8.832-10.741,12.156-24.451,12.313-37.736.126-10.77-3.575-21.489-4.551-32.253A118.035,118.035,0,0,0,275.887,181.892Z" transform="translate(-37.441 -82.13)" fill="url(#linear-gradient-5)"/>
      <path id="Path_1801" data-name="Path 1801" d="M311.587,337.994c11.448.252,27.171-.649,37.152-6.26,8.067-4.535,16.911-15.772,18.944-25.715,3.542-17.324,1.207-33.626-8.243-46.914-8.1-11.385-18.834-21.581-22.531-35.054-3.025-11.025.389-23.744-5.5-33.545-5.646-9.406-17.784-12.507-28.739-13.078-18.283-.954-36.6,2.774-53.788,9.078-36.458,13.371-68.646,38.881-88.489,72.26-10.411,17.512-17.407,36.926-28.362,54.1-3.538,5.547-7.482,10.851-10.611,16.65-1.245,2.307-3.881,6.273-3.867,8.967.019,3.443,2.858,1.63,5.235,1.336,15-1.851,30.812-1.151,45.916-1.542q45.915-1.192,91.852-.969Q286.075,337.435,311.587,337.994Z" transform="translate(-51.331 -93.525)" fill="url(#linear-gradient-6)"/>
      <path id="Path_1802" data-name="Path 1802" d="M351.661,245.563c-5.147-6.638-9.844-13.493-12.044-21.512-3.025-11.025.389-23.744-5.5-33.545-5.646-9.406-17.784-12.507-28.739-13.078-18.283-.954-36.6,2.774-53.788,9.078q-7.434,2.726-14.607,6.123c-.035.068-.077.137-.105.2-.025-.038-.054-.077-.08-.116-30.292,14.342-56.586,37.267-73.7,66.05-10.411,17.512-17.407,36.926-28.362,54.1-2.031,3.185-4.193,6.292-6.261,9.456l.389.438v.205a1.6,1.6,0,0,0,2.276,1.253c7.862-3.13,36.288-11.512,88.229,3.941,0,0,4.819,1.631,6.771,3.825,1.427,1.6,2.968,4.107,6.286,5.338q4.5-.025,9-.039c3.249-1.244,4.774-3.71,6.187-5.3,1.952-2.194,6.77-3.825,6.77-3.825,51.935-15.451,80.36-7.073,88.227-3.942,1.064.423,2.549-.036,2.279-1.457l6.767-7.628Z" transform="translate(-54.041 -93.525)" opacity="0.4" fill="url(#linear-gradient-7)" style="mix-blend-mode: multiply;isolation: isolate"/>
      <g id="Group_572" data-name="Group 572" transform="translate(217.237)">
        <path id="Path_1803" data-name="Path 1803" d="M322.059,164c-.26,4.758-4.208,9.193-2.926,13.783.943,3.376,4.572,5.438,8.072,5.66s6.911-1,10.193-2.237c3.775-1.421,7.619-2.93,10.66-5.581s5.165-6.706,4.454-10.675c-.685-3.821-3.855-7.285-3.008-11.073,1.02-4.553,7.2-6.369,8.435-10.867,1.324-4.811-3.767-9.441-3.067-14.381.814-5.747,8.937-8.761,8.739-14.562-.141-4.161-4.741-7.372-4.3-11.512.388-3.643,4.53-5.96,5.092-9.58.853-5.5-6.706-8.965-7.353-14.49-.45-3.838,2.461-8.321-.079-11.233-1.648-1.889-4.83-1.657-6.827-.141s-3.07,3.931-3.951,6.278-1.7,4.807-3.381,6.663c-2.773,3.054-7.607,4.148-9.346,7.889-1.925,4.144,1.089,8.951.63,13.5-.65,6.441-8.011,10.845-8.153,17.317-.08,3.665,2.251,7.057,2.193,10.722-.114,7.251-9.136,11.791-9.732,19.018C317.961,153.835,322.352,158.649,322.059,164Z" transform="translate(-318.371 -65.903)" fill="url(#linear-gradient-8)"/>
        <path id="Path_1804" data-name="Path 1804" d="M340.337,154.2l.008-.012a35.255,35.255,0,0,1,9.189-9.82c.878-.638-.059-2.042-.94-1.4a37.293,37.293,0,0,0-8.044,7.965q1.677-12.905,4.609-25.6a.841.841,0,0,0,.214-.338l10.608-8.534c.841-.676-.092-2.083-.941-1.4l-9.2,7.4q2.484-10.246,5.774-20.278a.842.842,0,0,0,.219-.113l7.545-5.414c.882-.633-.056-2.036-.941-1.4l-5.93,4.256q1.644-4.831,3.473-9.6c.387-1.007-1.128-1.754-1.519-.735q-2.029,5.284-3.827,10.648a13.208,13.208,0,0,1-3.229-4.346c-.45-.979-2.055-.452-1.6.535a15.21,15.21,0,0,0,4.253,5.536q-3.4,10.341-5.942,20.926a16.651,16.651,0,0,1-1.975-6.6.844.844,0,0,0-1.684.1,18.479,18.479,0,0,0,3.1,8.836q-2.855,12.341-4.537,24.912a51.507,51.507,0,0,0-2.927-6.5c-.514-.959-1.91-.009-1.4.941a48.458,48.458,0,0,1,3.831,9.468,267.291,267.291,0,0,0-1.732,40.529c.036,1.09,1.721.979,1.684-.105a265.584,265.584,0,0,1,1.622-39.439A.816.816,0,0,0,340.337,154.2Z" transform="translate(-322.392 -71.553)" fill="url(#linear-gradient-9)"/>
      </g>
      <g id="Group_573" data-name="Group 573" transform="translate(231.902 30.218)">
        <path id="Path_1805" data-name="Path 1805" d="M409.2,111.3c4.929,6.276,2.687,15.857-2.425,21.985s-12.416,9.907-18.908,14.547c-13.613,9.731-23.808,23.409-33.644,36.945-1.78,2.449-3.649,4.984-6.32,6.409s-6.393,1.373-8.338-.948c-2.131-2.544-1.263-6.358-.2-9.5A180.871,180.871,0,0,1,374.452,119.9c4.511-5.153,9.544-10.2,15.964-12.586S404.972,105.912,409.2,111.3Z" transform="translate(-337.968 -106.086)" fill="url(#linear-gradient-10)"/>
        <path id="Path_1806" data-name="Path 1806" d="M354.518,168.069a.739.739,0,0,1-.138-.721,94.652,94.652,0,0,1,11.77-25.328c.6-.9,2.07-.078,1.468.833a93.17,93.17,0,0,0-10.078,20.225c1.407-2.244,2.86-4.46,4.379-6.636,5.034-7.21,17.156-20.266,17.29-20.462q5.245-7.641,10.49-15.284c.611-.89,2.085-.067,1.468.832l-7.383,10.758a131.119,131.119,0,0,1,12.032-9.189c.9-.611,1.768.839.87,1.446a128.192,128.192,0,0,0-19.5,16.229,182.575,182.575,0,0,1,19.56-10.6c.978-.456,1.856.987.871,1.445a182.743,182.743,0,0,0-25.183,14.249l-.014.008a132.239,132.239,0,0,0-9.727,12.4c-3.119,4.507-5.969,9.178-8.645,13.95a137.783,137.783,0,0,1,21.12-17.576c.9-.611,1.767.839.87,1.445a135.874,135.874,0,0,0-24.83,21.6.859.859,0,0,1-.232.181c-4.1,7.784-7.833,15.772-11.552,23.724-.461.985-1.927.148-1.468-.833C343.134,189.7,348.352,178.612,354.518,168.069Z" transform="translate(-337.872 -109.615)" fill="url(#linear-gradient-11)"/>
      </g>
      <g id="Group_574" data-name="Group 574" transform="translate(235.552 70.492)">
        <path id="Path_1807" data-name="Path 1807" d="M357.187,174.027c-2.23,2.175-5.869,1.877-8.636,3.307-4.583,2.367-5.406,9-3.052,13.59s6.9,7.581,11.286,10.292a26.831,26.831,0,0,0,7.741,3.677,9.4,9.4,0,0,0,8.161-1.508c2.558-2.154,3.429-6,6.324-7.675,4.88-2.822,11.266,2.562,16.506.483,4.928-1.957,6.1-9.459,11.234-10.795,3.893-1.014,8.387,2.148,11.832.071,2.6-1.567,3.021-5.3,5.35-7.248,2.366-1.976,5.823-1.513,8.9-1.724s6.76-2.19,6.322-5.241c-.284-1.979-2.272-3.286-4.217-3.751s-4-.357-5.928-.877c-5.536-1.489-9.707-7.921-15.342-6.871-2.691.5-4.78,2.671-7.388,3.5-5.738,1.827-12.09-3.216-17.748-1.155-4.01,1.46-6.3,6.091-10.405,7.261-2.94.838-6.025-.318-8.981-1.1s-6.5-1.055-8.691,1.079C359.085,170.676,358.555,172.693,357.187,174.027Z" transform="translate(-343.096 -159.643)" fill="url(#linear-gradient-12)"/>
        <path id="Path_1808" data-name="Path 1808" d="M425.513,173.685q-4.083.451-8.21.927l2.432-3.041c.554-.692-.439-1.657-1-.961l-2.985,3.732a.7.7,0,0,0-.159.472q-3.748.448-7.51.951a11.678,11.678,0,0,1,3.522-3.25.692.692,0,0,0-.715-1.185,13.092,13.092,0,0,0-4.6,4.683q-4.043.567-8.075,1.239a20.188,20.188,0,0,1,4.249-4.316c.709-.531,0-1.72-.715-1.185a22.1,22.1,0,0,0-5.419,5.826c-3.27.577-6.525,1.221-9.753,1.954a29.591,29.591,0,0,1,5.172-4.974c.708-.532,0-1.721-.716-1.185a31.636,31.636,0,0,0-6.561,6.651c-3.226.775-6.421,1.645-9.573,2.629a16.816,16.816,0,0,1,4.086-4.853c.692-.565-.314-1.518-1-.961a17.642,17.642,0,0,0-4.94,6.406q-4,1.314-7.884,2.9l2.475-5.14c.386-.8-.829-1.468-1.216-.663l-3.184,6.614a90.379,90.379,0,0,0-20.229,11.937c-.693.547.017,1.737.715,1.185a89.623,89.623,0,0,1,19.822-11.739l.016,0a.765.765,0,0,0,.132.1,55.01,55.01,0,0,0,13.034,5.69c.857.249,1.171-1.1.315-1.348a53.417,53.417,0,0,1-11.926-5.116q3.912-1.631,7.946-2.967a.817.817,0,0,0,.179.1.714.714,0,0,0,.211.183l10.78,6.261c.773.449,1.433-.769.663-1.216l-10.129-5.883q4.542-1.443,9.2-2.579a34.892,34.892,0,0,0,10.589,6.924c.815.341,1.485-.872.663-1.216a33.814,33.814,0,0,1-9.633-6.1c3.442-.811,6.918-1.517,10.413-2.142a.791.791,0,0,0,.172.13.727.727,0,0,0,.2.19l8.334,5.256c.756.477,1.414-.742.663-1.216l-7.446-4.7q4.16-.711,8.339-1.292a.7.7,0,0,0,.657.063.749.749,0,0,0,.078.053l6.566,3.575a.693.693,0,0,0,.662-1.216l-5.233-2.849q3.91-.521,7.81-.975a.724.724,0,0,0,.268.144l4.732,1.424c.854.257,1.167-1.092.315-1.348l-2-.6q2.729-.31,5.441-.608C426.435,174.972,426.4,173.587,425.513,173.685Z" transform="translate(-342.725 -162.303)" fill="url(#linear-gradient-13)"/>
      </g>
      <g id="Group_587" data-name="Group 587" transform="translate(61.326 71.791)">
        <path id="Path_1809" data-name="Path 1809" d="M336.936,341.053,312.47,328.73l-84.847,14.348L142.775,328.73,118.31,341.053l1.3,11.025v.205a1.6,1.6,0,0,0,2.276,1.253c7.863-3.13,36.288-11.512,88.23,3.941,0,0,4.818,1.631,6.77,3.825s4.1,6.075,10.736,6.075,8.784-3.881,10.736-6.075,6.77-3.825,6.77-3.825c51.935-15.451,80.359-7.073,88.226-3.942,1.065.423,2.549-.036,2.279-1.457h0Z" transform="translate(-112.844 -202.875)" fill="url(#linear-gradient-14)"/>
        <path id="Path_1810" data-name="Path 1810" d="M335.133,337.763l-24.466-12.324L225.82,339.787l-84.848-14.348-24.465,12.324-5.466,5.872,6.767,7.628s28.493-15.524,90.505,2.924c0,0,5.15,1.715,6.77,3,3.2,2.538,4.1,6.756,10.736,6.756s7.79-4.3,10.257-6.519c1.177-1.061,7.25-3.237,7.25-3.237,62.012-18.449,90.505-2.924,90.505-2.924l6.766-7.628Z" transform="translate(-111.041 -202.059)" fill="url(#linear-gradient-15)"/>
        <path id="Path_1811" data-name="Path 1811" d="M263.673,309.581s69.492-28.349,114.778-6.075V175.128c-44.163-24.423-110.57-3.852-114.778,6.075Z" transform="translate(-148.894 -161.931)" fill="url(#linear-gradient-16)"/>
        <g id="Group_575" data-name="Group 575" transform="translate(132.286 19.031)">
          <path id="Path_1812" data-name="Path 1812" d="M316.627,189.05a296,296,0,0,0-29.674,6.1v3.179c5.752-1.553,54.416-14.207,80.741-5.63v-3.231C355.64,185.894,338.48,185.751,316.627,189.05Z" transform="translate(-286.953 -186.678)" fill="url(#linear-gradient-17)"/>
        </g>
        <g id="Group_576" data-name="Group 576" transform="translate(132.286 37.57)">
          <path id="Path_1813" data-name="Path 1813" d="M316.627,213.7a295.936,295.936,0,0,0-29.674,6.1v3.179c5.752-1.553,54.416-14.206,80.741-5.629v-3.232C355.64,210.546,338.48,210.4,316.627,213.7Z" transform="translate(-286.953 -211.33)" fill="url(#linear-gradient-17)"/>
        </g>
        <g id="Group_577" data-name="Group 577" transform="translate(132.286 56.109)">
          <path id="Path_1814" data-name="Path 1814" d="M316.627,238.356a295.72,295.72,0,0,0-29.674,6.1v3.179c5.752-1.553,54.416-14.207,80.741-5.63v-3.231C355.64,235.2,338.48,235.057,316.627,238.356Z" transform="translate(-286.953 -235.983)" fill="url(#linear-gradient-17)"/>
        </g>
        <g id="Group_578" data-name="Group 578" transform="translate(132.286 74.647)">
          <path id="Path_1815" data-name="Path 1815" d="M316.627,263.008a296.146,296.146,0,0,0-29.674,6.1v3.179c5.752-1.553,54.416-14.207,80.741-5.63v-3.232C355.64,259.852,338.48,259.709,316.627,263.008Z" transform="translate(-286.953 -260.635)" fill="url(#linear-gradient-17)"/>
        </g>
        <g id="Group_579" data-name="Group 579" transform="translate(132.286 93.186)">
          <path id="Path_1816" data-name="Path 1816" d="M316.627,287.661a295.713,295.713,0,0,0-29.674,6.1v3.179c5.752-1.553,54.416-14.207,80.741-5.63v-3.231C355.64,284.5,338.48,284.362,316.627,287.661Z" transform="translate(-286.953 -285.288)" fill="url(#linear-gradient-17)"/>
        </g>
        <g id="Group_580" data-name="Group 580" transform="translate(132.286 111.725)">
          <path id="Path_1817" data-name="Path 1817" d="M316.627,312.314a296.007,296.007,0,0,0-29.674,6.1V321.6c5.752-1.553,54.416-14.207,80.741-5.63v-3.231C355.64,309.157,338.48,309.014,316.627,312.314Z" transform="translate(-286.953 -309.941)" fill="url(#linear-gradient-17)"/>
        </g>
        <path id="Path_1818" data-name="Path 1818" d="M225.82,309.02s-69.492-28.349-114.779-6.075V174.567c44.567-24.289,104.036-10.716,114.779,6.075Z" transform="translate(-111.041 -161.37)" fill="url(#linear-gradient-23)"/>
        <g id="Group_581" data-name="Group 581" transform="translate(16.53 19.031)">
          <path id="Path_1819" data-name="Path 1819" d="M184.091,189.05a296.056,296.056,0,0,1,29.674,6.1v3.179c-5.753-1.553-54.417-14.207-80.742-5.63v-3.231C145.078,185.894,162.237,185.751,184.091,189.05Z" transform="translate(-133.023 -186.678)" fill="url(#linear-gradient-17)"/>
        </g>
        <g id="Group_582" data-name="Group 582" transform="translate(16.53 37.57)">
          <path id="Path_1820" data-name="Path 1820" d="M184.091,213.7a295.987,295.987,0,0,1,29.674,6.1v3.179c-5.753-1.553-54.417-14.206-80.742-5.629v-3.232C145.078,210.546,162.237,210.4,184.091,213.7Z" transform="translate(-133.023 -211.33)" fill="url(#linear-gradient-17)"/>
        </g>
        <g id="Group_583" data-name="Group 583" transform="translate(16.53 56.109)">
          <path id="Path_1821" data-name="Path 1821" d="M184.091,238.356a295.772,295.772,0,0,1,29.674,6.1v3.179c-5.753-1.553-54.417-14.207-80.742-5.63v-3.231C145.078,235.2,162.237,235.057,184.091,238.356Z" transform="translate(-133.023 -235.983)" fill="url(#linear-gradient-17)"/>
        </g>
        <g id="Group_584" data-name="Group 584" transform="translate(16.53 74.647)">
          <path id="Path_1822" data-name="Path 1822" d="M184.091,263.008a296.2,296.2,0,0,1,29.674,6.1v3.179c-5.753-1.553-54.417-14.207-80.742-5.63v-3.232C145.078,259.852,162.237,259.709,184.091,263.008Z" transform="translate(-133.023 -260.635)" fill="url(#linear-gradient-17)"/>
        </g>
        <g id="Group_585" data-name="Group 585" transform="translate(16.53 93.186)">
          <path id="Path_1823" data-name="Path 1823" d="M184.091,287.661a295.764,295.764,0,0,1,29.674,6.1v3.179c-5.753-1.553-54.417-14.207-80.742-5.63v-3.231C145.078,284.5,162.237,284.362,184.091,287.661Z" transform="translate(-133.023 -285.288)" fill="url(#linear-gradient-17)"/>
        </g>
        <g id="Group_586" data-name="Group 586" transform="translate(16.53 111.725)">
          <path id="Path_1824" data-name="Path 1824" d="M184.091,312.314a296.058,296.058,0,0,1,29.674,6.1V321.6c-5.753-1.553-54.417-14.207-80.742-5.63v-3.231C145.078,309.157,162.237,309.014,184.091,312.314Z" transform="translate(-133.023 -309.941)" fill="url(#linear-gradient-17)"/>
        </g>
      </g>
      <path id="Path_1825" data-name="Path 1825" d="M272.621,304.614c-.278-.294-.755-.052-1.066.2a11.586,11.586,0,0,0-3.427,3.557,9.654,9.654,0,0,1-2.353,2.864s-7.584,6.119-10.007,5.341c-3.052-.981-6.483-4.574-8.762-5.7a3.5,3.5,0,0,0-.266-.28,6.169,6.169,0,0,0-4.05-1.574l-.1.02a13.585,13.585,0,0,1-.066-4.321,2.3,2.3,0,0,0,1.672.144,5.286,5.286,0,0,0,.644-2.13,5.646,5.646,0,0,1,.1-1.53c.291.161.958.19.978-.152a4.081,4.081,0,0,0-.381-1.293c-.388-.953-.048-2.394.217-3.577a1.7,1.7,0,0,0,1.587-1.271,3.455,3.455,0,0,0-.966-3.212,5.69,5.69,0,0,0-2.139-1.464,13.856,13.856,0,0,0-2.875-1.075,8.267,8.267,0,0,0-7.518,2.55c-4.612,4.732-2.494,14.075-3.943,16.855a26.483,26.483,0,0,0-2.307,4.726,5.035,5.035,0,0,0,.895,4.946,3.625,3.625,0,0,0,.99.675,14.1,14.1,0,0,0-2.331,8.519c.364,4.952,2.8,9.351,4.731,12.118-.195,2.343-.4,4.235-.565,5.253a2.02,2.02,0,0,0,.387.151c-.037.338-.074.711-.109,1.1,1.808.5,3.638,1.013,5.507,1.569,0,0,4.818,1.631,6.77,3.825,1.387,1.56,2.883,3.965,6.011,5.229a94.956,94.956,0,0,0-1.289-13.243,1.007,1.007,0,0,0,.241-.87c-.445-2.231-1.559-7.146-1.784-8.289a10.893,10.893,0,0,1-.2-2.171,19.252,19.252,0,0,1,.818-5.911c.621-1.682,2.14-3.253,2.6-5.5a15.638,15.638,0,0,0,4.2,1.326c3.109.456,12.943-8.577,13.571-9.392.877-1.137,2.049-1.224,3.149-2.13a3.085,3.085,0,0,0,.841-1.61c-.031-.6-.8-1-.913-1.182-.325-.5.62-1.128,1.289-1.988C272.651,305.4,272.9,304.909,272.621,304.614ZM232.284,333.4a18.561,18.561,0,0,1-.968-6.263,10.794,10.794,0,0,1,1.075-3.758C232.522,326.383,232.449,329.981,232.284,333.4Z" transform="translate(-78.502 -121.232)" fill="url(#linear-gradient-17)" style="mix-blend-mode: multiply;isolation: isolate"/>
      <path id="Path_1826" data-name="Path 1826" d="M377.09,297.166l-4.861-3.525c.407-6.643.946-12.84.38-14.368a6.42,6.42,0,0,0-4.081-3.849,14.982,14.982,0,0,1-.278-2.073,1.931,1.931,0,0,0,1.6-1.739c.241-1.9,1.739-3.424,1.912-5.327s-.083-4-1.411-5.372a7.179,7.179,0,0,0-2.9-1.636,13.181,13.181,0,0,0-4.1-.725,5.461,5.461,0,0,0-2.124.312,2.306,2.306,0,0,0-1.566,2.015,1.54,1.54,0,0,0,.322.984,1.694,1.694,0,0,0,1.184.6c-.095.493-.156,1-.282,1.485a5.341,5.341,0,0,1-1.5,2.523c-.35.329-.787.771-.585,1.206.17.366.673.413.981.674a1.3,1.3,0,0,1,.237,1.389c-.156.474-.446.9-.579,1.378a1.2,1.2,0,0,0,.368,1.345c.553.342,1.32-.082,1.911.193.526.244.808,1.924.764,2.767a8.98,8.98,0,0,0-5,2.307,28.862,28.862,0,0,0-2.854,3.152l-8.409-6.1a1.512,1.512,0,0,0-2.111.337l-1.808,2.492-11.445-8.3a27.8,27.8,0,1,0-3.95,5.446l11.446,8.3-1.808,2.492a1.493,1.493,0,0,0-.271.718,2.629,2.629,0,0,0-.738,1.96,5.477,5.477,0,0,0,1.069,2.718,6.422,6.422,0,0,0,1.122,1.338c.01.013.017.027.027.039a2.233,2.233,0,0,0,1.369.72c.008.046.011.091.021.137a17.313,17.313,0,0,0,6.021.488l8.1,5.877c-.443,2.7-.882,5.545-1.3,8.673.423.237.881.459,1.364.671-.837,3.61-1.769,9.009-2.661,14.982a88.642,88.642,0,0,1,18.164,3.217q.211-1.536.49-3.06c.584-3.175,1.391-6.3,1.783-9.515a27.475,27.475,0,0,0,.2-4.5,4.559,4.559,0,0,0,.99-.667,23.4,23.4,0,0,1-.314-2.576l5.435-7.5A1.511,1.511,0,0,0,377.09,297.166Z" transform="translate(-91.309 -106.113)" fill="url(#linear-gradient-31)" style="mix-blend-mode: multiply;isolation: isolate"/>
      <g id="Group_601" data-name="Group 601" transform="translate(0 133.099)">
        <g id="Group_591" data-name="Group 591" transform="translate(14.866 76.445)">
          <path id="Path_1827" data-name="Path 1827" d="M200.475,365.243v30.373L216,378.068V347.694Z" transform="translate(-86.761 -345.332)" fill="url(#linear-gradient-32)"/>
          <g id="Group_588" data-name="Group 588" transform="translate(2.363 19.912)">
            <path id="Path_1828" data-name="Path 1828" d="M67.588,371.031a15.187,15.187,0,1,0,0,30.373h96.165V371.031Z" transform="translate(-52.401 -371.031)" fill="url(#linear-gradient-32)"/>
          </g>
          <path id="Rectangle_199" data-name="Rectangle 199" d="M1.181,0H104.776a0,0,0,0,1,0,0V2.362a0,0,0,0,1,0,0H1.181A1.181,1.181,0,0,1,0,1.181v0A1.181,1.181,0,0,1,1.181,0Z" transform="translate(8.938 33.917)" fill="url(#linear-gradient-17)"/>
          <g id="Group_589" data-name="Group 589" transform="translate(113.714 7.546)">
            <path id="Path_1829" data-name="Path 1829" d="M200.475,386.548l15.514-16.584V367.6l-15.514,16.584Z" transform="translate(-200.475 -357.815)" fill="url(#linear-gradient-17)"/>
            <path id="Path_1830" data-name="Path 1830" d="M200.475,393.056l15.514-16.584V374.11l-15.514,16.584Z" transform="translate(-200.475 -359.429)" fill="url(#linear-gradient-17)"/>
            <path id="Path_1831" data-name="Path 1831" d="M200.475,399.563l15.514-16.584v-2.362L200.475,397.2Z" transform="translate(-200.475 -361.043)" fill="url(#linear-gradient-17)"/>
            <path id="Path_1832" data-name="Path 1832" d="M200.475,380.041l15.514-16.584v-2.362l-15.514,16.584Z" transform="translate(-200.475 -356.201)" fill="url(#linear-gradient-17)"/>
            <path id="Path_1833" data-name="Path 1833" d="M200.475,373.534l15.514-16.584v-2.362l-15.514,16.584Z" transform="translate(-200.475 -354.588)" fill="url(#linear-gradient-17)"/>
          </g>
          <path id="Path_1834" data-name="Path 1834" d="M166.7,385.51H65.468a1.181,1.181,0,0,1-1.181-1.181h0a1.181,1.181,0,0,1,1.181-1.181H166.7Z" transform="translate(-52.986 -354.124)" fill="url(#linear-gradient-17)"/>
          <path id="Path_1835" data-name="Path 1835" d="M167.573,379H68.985a1.181,1.181,0,0,1-1.181-1.181h0a1.181,1.181,0,0,1,1.181-1.181h98.587Z" transform="translate(-53.858 -352.51)" fill="url(#linear-gradient-41)"/>
          <path id="Path_1836" data-name="Path 1836" d="M166.7,396.162H65.468a1.182,1.182,0,0,0-1.181,1.181h0a1.181,1.181,0,0,0,1.181,1.181H166.7Z" transform="translate(-52.986 -357.352)" fill="url(#linear-gradient-41)"/>
          <path id="Path_1837" data-name="Path 1837" d="M167.573,402.67H68.985a1.181,1.181,0,0,0-1.181,1.181h0a1.181,1.181,0,0,0,1.181,1.181h98.587Z" transform="translate(-53.858 -358.966)" fill="url(#linear-gradient-17)"/>
          <g id="Group_590" data-name="Group 590" transform="translate(0 17.549)">
            <path id="Path_1838" data-name="Path 1838" d="M166.911,402.987H66.808a17.549,17.549,0,1,1,0-35.1h100.1v2.363H66.808a15.187,15.187,0,1,0,0,30.373h100.1Z" transform="translate(-49.259 -367.889)" fill="url(#linear-gradient-44)"/>
          </g>
          <path id="Path_1839" data-name="Path 1839" d="M205.711,362.1l15.524-17.549v2.362l-15.524,17.549Z" transform="translate(-88.059 -344.553)" fill="url(#linear-gradient-44)"/>
          <path id="Path_1840" data-name="Path 1840" d="M205.711,405.633l15.524-17.549v2.362L205.711,408Z" transform="translate(-88.059 -355.349)" fill="url(#linear-gradient-44)"/>
          <path id="Path_1841" data-name="Path 1841" d="M83.86,344.553a17.506,17.506,0,0,0-13.119,5.91h0L55.416,367.788h0A17.591,17.591,0,0,1,68.335,362.1h100.1l13.434-15.187,2.09-2.362Z" transform="translate(-50.786 -344.553)" fill="url(#linear-gradient-44)"/>
          <path id="Path_1842" data-name="Path 1842" d="M216,388.084h3.937l-15.524,17.549h-3.937Z" transform="translate(-86.761 -355.349)" fill="url(#linear-gradient-44)"/>
        </g>
        <g id="Group_595" data-name="Group 595" transform="translate(0 38.223)">
          <path id="Path_1843" data-name="Path 1843" d="M180.706,314.415v30.373L196.23,327.24V296.866Z" transform="translate(-66.992 -294.504)" fill="url(#linear-gradient-32)"/>
          <g id="Group_592" data-name="Group 592" transform="translate(2.362 19.912)">
            <path id="Path_1844" data-name="Path 1844" d="M47.819,320.2a15.187,15.187,0,1,0,0,30.373h96.165V320.2Z" transform="translate(-32.632 -320.203)" fill="url(#linear-gradient-32)"/>
          </g>
          <path id="Rectangle_200" data-name="Rectangle 200" d="M1.181,0H104.776a0,0,0,0,1,0,0V2.362a0,0,0,0,1,0,0H1.181A1.181,1.181,0,0,1,0,1.181v0A1.181,1.181,0,0,1,1.181,0Z" transform="translate(8.938 33.917)" fill="url(#linear-gradient-17)"/>
          <g id="Group_593" data-name="Group 593" transform="translate(113.714 7.546)">
            <path id="Path_1845" data-name="Path 1845" d="M180.706,335.72l15.514-16.584v-2.362l-15.514,16.584Z" transform="translate(-180.706 -306.987)" fill="url(#linear-gradient-17)"/>
            <path id="Path_1846" data-name="Path 1846" d="M180.706,342.228l15.514-16.584v-2.362l-15.514,16.584Z" transform="translate(-180.706 -308.601)" fill="url(#linear-gradient-17)"/>
            <path id="Path_1847" data-name="Path 1847" d="M180.706,348.735l15.514-16.584v-2.362l-15.514,16.584Z" transform="translate(-180.706 -310.215)" fill="url(#linear-gradient-17)"/>
            <path id="Path_1848" data-name="Path 1848" d="M180.706,329.213l15.514-16.584v-2.362l-15.514,16.584Z" transform="translate(-180.706 -305.373)" fill="url(#linear-gradient-17)"/>
            <path id="Path_1849" data-name="Path 1849" d="M180.706,322.706l15.514-16.584V303.76l-15.514,16.584Z" transform="translate(-180.706 -303.76)" fill="url(#linear-gradient-17)"/>
          </g>
          <path id="Path_1850" data-name="Path 1850" d="M146.931,334.682H45.7a1.181,1.181,0,0,1-1.181-1.181h0A1.181,1.181,0,0,1,45.7,332.32H146.931Z" transform="translate(-33.218 -303.296)" fill="url(#linear-gradient-17)"/>
          <path id="Path_1851" data-name="Path 1851" d="M147.8,328.175H49.217a1.181,1.181,0,0,1-1.181-1.181h0a1.181,1.181,0,0,1,1.181-1.181H147.8Z" transform="translate(-34.09 -301.683)" fill="url(#linear-gradient-58)"/>
          <path id="Path_1852" data-name="Path 1852" d="M146.931,345.334H45.7a1.182,1.182,0,0,0-1.181,1.181h0A1.181,1.181,0,0,0,45.7,347.7H146.931Z" transform="translate(-33.218 -306.524)" fill="url(#linear-gradient-17)"/>
          <path id="Path_1853" data-name="Path 1853" d="M147.8,351.842H49.217a1.181,1.181,0,0,0-1.181,1.181h0a1.181,1.181,0,0,0,1.181,1.181H147.8Z" transform="translate(-34.09 -308.138)" fill="url(#linear-gradient-17)"/>
          <g id="Group_594" data-name="Group 594" transform="translate(0 17.549)">
            <path id="Path_1854" data-name="Path 1854" d="M147.142,352.159H47.04a17.549,17.549,0,0,1,0-35.1h100.1v2.363H47.04a15.187,15.187,0,0,0,0,30.373h100.1Z" transform="translate(-29.491 -317.061)" fill="url(#linear-gradient-61)"/>
          </g>
          <path id="Path_1855" data-name="Path 1855" d="M185.942,311.274l15.524-17.549v2.362l-15.524,17.549Z" transform="translate(-68.291 -293.725)" fill="url(#linear-gradient-61)"/>
          <path id="Path_1856" data-name="Path 1856" d="M185.942,354.805l15.524-17.549v2.362l-15.524,17.549Z" transform="translate(-68.291 -304.521)" fill="url(#linear-gradient-61)"/>
          <path id="Path_1857" data-name="Path 1857" d="M64.091,293.725a17.507,17.507,0,0,0-13.119,5.91h0L35.647,316.96h0a17.591,17.591,0,0,1,12.918-5.686h100.1L162.1,296.087l2.09-2.362Z" transform="translate(-31.018 -293.725)" fill="url(#linear-gradient-61)"/>
          <path id="Path_1858" data-name="Path 1858" d="M196.23,337.256h3.937l-15.524,17.549h-3.937Z" transform="translate(-66.992 -304.521)" fill="url(#linear-gradient-61)"/>
        </g>
        <g id="Group_600" data-name="Group 600" transform="translate(16.374 0)">
          <path id="Path_1859" data-name="Path 1859" d="M202.48,263.587v30.373L218,276.412V246.038Z" transform="translate(-88.766 -243.676)" fill="url(#linear-gradient-32)"/>
          <g id="Group_596" data-name="Group 596" transform="translate(2.362 19.912)">
            <path id="Path_1860" data-name="Path 1860" d="M69.593,269.375a15.187,15.187,0,0,0,0,30.373h96.165V269.375Z" transform="translate(-54.406 -269.375)" fill="url(#linear-gradient-32)"/>
          </g>
          <g id="Group_597" data-name="Group 597" transform="translate(113.714 7.546)">
            <path id="Path_1861" data-name="Path 1861" d="M202.48,284.892l15.514-16.584v-2.362L202.48,282.53Z" transform="translate(-202.48 -256.159)" fill="url(#linear-gradient-17)"/>
            <path id="Path_1862" data-name="Path 1862" d="M202.48,291.4l15.514-16.584v-2.362L202.48,289.037Z" transform="translate(-202.48 -257.773)" fill="url(#linear-gradient-17)"/>
            <path id="Path_1863" data-name="Path 1863" d="M202.48,297.907l15.514-16.584v-2.362L202.48,295.545Z" transform="translate(-202.48 -259.387)" fill="url(#linear-gradient-17)"/>
            <path id="Path_1864" data-name="Path 1864" d="M202.48,278.385,217.995,261.8v-2.362L202.48,276.023Z" transform="translate(-202.48 -254.545)" fill="url(#linear-gradient-17)"/>
            <path id="Path_1865" data-name="Path 1865" d="M202.48,271.878l15.514-16.584v-2.362L202.48,269.515Z" transform="translate(-202.48 -252.932)" fill="url(#linear-gradient-17)"/>
          </g>
          <g id="Group_598" data-name="Group 598" transform="translate(8.938 24.13)">
            <path id="Rectangle_201" data-name="Rectangle 201" d="M1.181,0H104.776a0,0,0,0,1,0,0V2.362a0,0,0,0,1,0,0H1.181A1.181,1.181,0,0,1,0,1.181v0A1.181,1.181,0,0,1,1.181,0Z" transform="translate(0 9.787)" fill="url(#linear-gradient-17)"/>
            <path id="Path_1866" data-name="Path 1866" d="M168.705,283.854H67.473a1.181,1.181,0,0,1-1.181-1.181h0a1.181,1.181,0,0,1,1.181-1.181H168.705Z" transform="translate(-63.93 -276.599)" fill="url(#linear-gradient-17)"/>
            <path id="Path_1867" data-name="Path 1867" d="M169.578,277.347H70.991a1.181,1.181,0,0,1-1.181-1.181h0a1.181,1.181,0,0,1,1.181-1.181h98.587Z" transform="translate(-64.802 -274.985)" fill="url(#linear-gradient-58)"/>
            <path id="Path_1868" data-name="Path 1868" d="M168.705,294.506H67.473a1.182,1.182,0,0,0-1.181,1.181h0a1.181,1.181,0,0,0,1.181,1.181H168.705Z" transform="translate(-63.93 -279.826)" fill="url(#linear-gradient-17)"/>
            <path id="Path_1869" data-name="Path 1869" d="M169.578,301.014H70.991A1.181,1.181,0,0,0,69.81,302.2h0a1.181,1.181,0,0,0,1.181,1.181h98.587Z" transform="translate(-64.802 -281.44)" fill="url(#linear-gradient-17)"/>
          </g>
          <g id="Group_599" data-name="Group 599" transform="translate(0 17.549)">
            <path id="Path_1870" data-name="Path 1870" d="M168.916,301.331H68.814a17.549,17.549,0,0,1,0-35.1h100.1V268.6H68.814a15.187,15.187,0,0,0,0,30.373h100.1Z" transform="translate(-51.265 -266.233)" fill="url(#linear-gradient-14)"/>
          </g>
          <path id="Path_1871" data-name="Path 1871" d="M207.716,260.446,223.24,242.9v2.362l-15.524,17.549Z" transform="translate(-90.065 -242.897)" fill="url(#linear-gradient-14)"/>
          <path id="Path_1872" data-name="Path 1872" d="M207.716,303.977l15.524-17.549v2.362L207.716,306.34Z" transform="translate(-90.065 -253.693)" fill="url(#linear-gradient-80)"/>
          <path id="Path_1873" data-name="Path 1873" d="M85.865,242.9a17.51,17.51,0,0,0-13.119,5.91h0L57.421,266.132h0a17.591,17.591,0,0,1,12.918-5.686h100.1l13.434-15.187,2.09-2.362Z" transform="translate(-52.792 -242.897)" fill="url(#linear-gradient-14)"/>
          <ellipse id="Ellipse_20" data-name="Ellipse 20" cx="22.31" cy="5.388" rx="22.31" ry="5.388" transform="translate(50.418 4.532)" fill="url(#linear-gradient-82)" style="mix-blend-mode: multiply;isolation: isolate"/>
          <path id="Path_1874" data-name="Path 1874" d="M218,286.428h3.937l-15.524,17.549H202.48Z" transform="translate(-88.766 -253.693)" fill="url(#linear-gradient-14)"/>
        </g>
      </g>
      <path id="Path_1875" data-name="Path 1875" d="M116.764,376.388l6.794-114.553a1.189,1.189,0,0,0-1.157-1.2.814.814,0,0,0-.843.778l-.706,11.912h-18.9l.681-11.491a1.189,1.189,0,0,0-1.157-1.2.814.814,0,0,0-.843.778L93.815,376.388H95.84l.074-1.263h18.9l-.075,1.263ZM101.858,274.9h18.9L120,287.644H101.1Zm-.849,14.318h18.9l-.755,12.743h-18.9Zm-.849,14.317h18.9l-.756,12.743H99.4Zm-.849,14.318h18.9l-.756,12.743h-18.9Zm-.849,14.317h18.9l-.756,12.743h-18.9Zm-.85,14.318h18.9l-.756,12.743h-18.9Zm-1.6,27.061.756-12.743h18.9l-.756,12.743Z" transform="translate(-45.443 -114.197)" fill="url(#linear-gradient-17)" style="mix-blend-mode: multiply;isolation: isolate"/>
      <path id="Path_1876" data-name="Path 1876" d="M114.808,261.414l-2.6,11.912h-18.9l2.5-11.491a.989.989,0,0,0-.966-1.2h0a.988.988,0,0,0-.966.778L67.121,384.275a.989.989,0,0,0,.966,1.2h0a.99.99,0,0,0,.967-.779l2.085-9.571h18.9l-1.994,9.15a.99.99,0,0,0,.967,1.2h0a.989.989,0,0,0,.966-.779l26.763-122.861a.989.989,0,0,0-.967-1.2h0A.99.99,0,0,0,114.808,261.414ZM111.87,274.9l-2.776,12.743h-18.9L92.971,274.9ZM77.72,344.916,80.5,332.172h18.9l-2.776,12.743Zm18.556,1.575L93.5,359.233H74.6l2.776-12.743ZM80.839,330.6l2.776-12.743h18.9L99.738,330.6Zm3.119-14.318,2.776-12.743h18.9l-2.776,12.743Zm3.119-14.317,2.776-12.743h18.9l-2.776,12.743ZM71.482,373.551l2.776-12.743h18.9l-2.776,12.743Z" transform="translate(-38.818 -114.197)" fill="url(#linear-gradient-14)"/>
      <path id="Path_1877" data-name="Path 1877" d="M406.247,311.489a.917.917,0,0,1-.57-.35,10.548,10.548,0,0,1-2.385-4.571,25.976,25.976,0,0,1-.687-5.155,22.058,22.058,0,0,1,.643-8.049c.806-2.492.386-6.789,1.02-9.331,5.91,2.347,8.1,11.075,8.155,12.335a9.248,9.248,0,0,1-.789,3.57,94.776,94.776,0,0,1-4.606,10.878C406.862,311.14,406.611,311.51,406.247,311.489Z" transform="translate(-122.002 -119.999)" fill="url(#linear-gradient-86)"/>
      <g id="Group_603" data-name="Group 603" transform="translate(113.154 15.872)">
        <path id="Path_1878" data-name="Path 1878" d="M212.311,114.789v23.683h0c0,2.564,12.221,8.132,27.3,8.132s27.3-5.569,27.3-8.132V114.789Z" transform="translate(-187.985 -93.899)" fill="url(#linear-gradient-87)"/>
        <path id="Path_1879" data-name="Path 1879" d="M232.822,87.01l-47.869,16.37,47.869,16.37,47.868-16.37Z" transform="translate(-181.2 -87.01)" fill="url(#linear-gradient-88)"/>
        <path id="Path_1880" data-name="Path 1880" d="M296.477,108.779v2.263l-47.868,16.37v-2.263Z" transform="translate(-196.987 -92.408)" fill="url(#linear-gradient-89)"/>
        <path id="Path_1881" data-name="Path 1881" d="M184.953,108.779l47.869,16.37v2.263l-47.869-16.37Z" transform="translate(-181.2 -92.408)" fill="url(#linear-gradient-90)"/>
        <g id="Group_602" data-name="Group 602" transform="translate(3.167 15.329)">
          <path id="Path_1882" data-name="Path 1882" d="M184.76,128.9a.586.586,0,0,1-.586-.587V107.98a.586.586,0,0,1,.586-.586h47.869a.586.586,0,0,1,0,1.172H185.346v19.748A.586.586,0,0,1,184.76,128.9Z" transform="translate(-184.174 -107.394)" fill="url(#linear-gradient-91)"/>
        </g>
        <path id="Path_1883" data-name="Path 1883" d="M185.892,135.389h-3.7a.916.916,0,0,1-.915-.916h0a.915.915,0,0,1,.915-.916h3.7a.916.916,0,0,1,.916.916h0A.916.916,0,0,1,185.892,135.389Z" transform="translate(-180.288 -98.554)" fill="url(#linear-gradient-92)"/>
        <path id="Path_1884" data-name="Path 1884" d="M185.569,135.993h-3.707l-1.9,6.558h7.506Z" transform="translate(-179.962 -99.158)" fill="url(#linear-gradient-93)"/>
        <path id="Path_1885" data-name="Path 1885" d="M250.93,107.656c0,.866-1.551,1.569-3.464,1.569s-3.463-.7-3.463-1.569,1.551-1.569,3.463-1.569S250.93,106.789,250.93,107.656Z" transform="translate(-195.844 -91.741)" fill="url(#linear-gradient-94)"/>
      </g>
      <g id="Group_604" data-name="Group 604" transform="translate(68.063 40.821)">
        <path id="Path_1886" data-name="Path 1886" d="M154.784,247.517a.53.53,0,0,0-.164-.35.426.426,0,0,0-.287-.043l-3.528.308a5.076,5.076,0,0,1,.2,1.951,2.372,2.372,0,0,0,.584,1.8,2.05,2.05,0,0,0,1.424.328,3.562,3.562,0,0,0,.884-.092,1.329,1.329,0,0,0,.749-.505,2.17,2.17,0,0,0,.288-1.106A9.382,9.382,0,0,0,154.784,247.517Z" transform="translate(-127.64 -151.666)" fill="url(#linear-gradient-95)"/>
        <path id="Path_1887" data-name="Path 1887" d="M150.306,255.224a8.223,8.223,0,0,1,.5-4.886,2.836,2.836,0,0,0,2.015.843,2.868,2.868,0,0,0,2-.893c.217-.224.54.125.713.39s.267.588.438.855a2.089,2.089,0,0,0,1.639.856c.62.054,1.248-.034,1.866.055a1.819,1.819,0,0,1,.885.341,2.106,2.106,0,0,1,.685,1.448,6.752,6.752,0,0,1-.114,1.68,12.678,12.678,0,0,1-7.028.231C152.691,255.914,151.5,255.565,150.306,255.224Z" transform="translate(-127.473 -152.434)" fill="url(#linear-gradient-96)"/>
        <path id="Path_1888" data-name="Path 1888" d="M137.321,245.517c.016-.13-.632.244-.726.252-1.139.1-2.086-.578-3.225-.479.077.566-.038,2.209-.033,2.849a1.913,1.913,0,0,0,.6,1.559,1.984,1.984,0,0,0,1.379.319,3.485,3.485,0,0,0,.857-.09,1.286,1.286,0,0,0,.726-.49,2.1,2.1,0,0,0,.279-1.072C137.218,247.622,137.2,246.5,137.321,245.517Z" transform="translate(-123.307 -151.21)" fill="url(#linear-gradient-97)"/>
        <path id="Path_1889" data-name="Path 1889" d="M132.638,253.777a7.969,7.969,0,0,1,.484-4.735,2.745,2.745,0,0,0,1.951.817,2.773,2.773,0,0,0,1.939-.866c.21-.217.523.121.691.378s1.41.211,2.011.264,1.21-.033,1.809.053a1.771,1.771,0,0,1,.858.332,2.039,2.039,0,0,1,.663,1.4,6.518,6.518,0,0,1-.109,1.629C140.778,253.907,133.793,254.107,132.638,253.777Z" transform="translate(-123.093 -152.113)" fill="url(#linear-gradient-98)"/>
        <path id="Path_1890" data-name="Path 1890" d="M128.587,185.32c-1.131,3.128-1.263,2.382-.908,5.73s3,11.115,3.545,14.429a74.035,74.035,0,0,1-.214,25.3,11.227,11.227,0,0,0,6.694.057c.665-4.412,1.3-8.864,1.967-13.276a62.367,62.367,0,0,0,.96-10.028c-.051-4.159-.931-8.269-.888-12.428.027-2.661.43-5.357-.058-7.959a2.735,2.735,0,0,0-.668-1.521c-.766-.711-1.9-.255-2.848.1C134.217,186.444,130.591,185.816,128.587,185.32Z" transform="translate(-121.861 -136.322)" fill="url(#linear-gradient-99)"/>
        <path id="Path_1891" data-name="Path 1891" d="M131.412,187.741c-.143,3.369,1.5,6.46,3.047,9.344a107.354,107.354,0,0,1,7.619,16.734,46.918,46.918,0,0,1,2.589,18.451,9.227,9.227,0,0,0,6.879-.426c1.669-12.135-.921-24.532-3.2-36.527-.669-3.516-1.395-7.171-3.4-9.974a10.535,10.535,0,0,1-5.579,3.449,15.432,15.432,0,0,1-6.3.172,2.76,2.76,0,0,1-1.081-.338A1.027,1.027,0,0,1,131.412,187.741Z" transform="translate(-122.828 -136.345)" fill="url(#linear-gradient-100)"/>
        <path id="Path_1892" data-name="Path 1892" d="M130.76,138.56a7.606,7.606,0,0,0,.42-3.076c-.1-2.089-.838-4.289-.7-6.376a11.47,11.47,0,0,1,.989-4.343,5.328,5.328,0,0,1,3.255-2.882c1.445-.383,3.561.125,4.3,1.425.508.9.295,1.537.556,2.534a4.369,4.369,0,0,0,1.251,2.428c.372.351.838.822.623,1.286-.181.391-.717.441-1.045.718-.406.344.12,1.346.287,1.851s.09,1.334.232,1.846a.959.959,0,0,1-.523,1.154c-.59.365-1.381.043-2.009.335s-.749,3-.583,3.687.62-.3.478.39a2.636,2.636,0,0,1-2.172,1.729,7.079,7.079,0,0,1-3.167-.008,2.741,2.741,0,0,1-1.581-.859A2.906,2.906,0,0,1,130.76,138.56Z" transform="translate(-122.595 -120.577)" fill="url(#linear-gradient-101)"/>
        <path id="Path_1893" data-name="Path 1893" d="M132.978,130.647a2.43,2.43,0,0,1-.632-4.205,1.1,1.1,0,0,1,.719-.271.575.575,0,0,1,.508.608,2.249,2.249,0,0,0,.692,1.572.563.563,0,0,0,.695.115l.008,0a.546.546,0,0,0,.235-.7,3.441,3.441,0,0,1-.374-1.85,1.684,1.684,0,0,1,.25-.7c.975-1.5,3.216-.142,4.29-1.491a1.646,1.646,0,0,0,.344-1.049,2.461,2.461,0,0,0-1.671-2.148,5.808,5.808,0,0,0-2.264-.332,14.028,14.028,0,0,0-4.37.772,7.648,7.648,0,0,0-3.087,1.745,7.512,7.512,0,0,0-1.8,5.632,13.577,13.577,0,0,0,3.582,7.731,11.125,11.125,0,0,0,1.466-.3,2.844,2.844,0,0,0,1.1-.458,1.148,1.148,0,0,0,.465-1.169,5.2,5.2,0,0,1-.1-2.282C133.248,131.5,133.374,130.795,132.978,130.647Z" transform="translate(-121.614 -120.187)"/>
        <path id="Path_1894" data-name="Path 1894" d="M126.785,174.082a1,1,0,0,0,.622-.382,11.514,11.514,0,0,0,2.6-4.992,28.378,28.378,0,0,0,.75-5.629,24.08,24.08,0,0,0-.7-8.789c-.879-2.721-1.2-7.413-1.894-10.189-3.813,1.872-7.518,9.459-8.125,13.47a8.147,8.147,0,0,0,.861,3.9,103.51,103.51,0,0,0,5.03,11.878C126.114,173.7,126.387,174.105,126.785,174.082Z" transform="translate(-120 -126.117)" fill="url(#linear-gradient-102)"/>
        <path id="Path_1895" data-name="Path 1895" d="M174.379,132.133a41.408,41.408,0,0,0,2.834-4.65,20.84,20.84,0,0,1,3.125-4.446c1.273-1.3,3.233-1.754,3.475-1.357.233.381-.086,1.375-.92,2.157-.429.4-1.353,1.587-1.023,2.073a3.205,3.205,0,0,1,.086,3.334c-.56.75-1.608.93-2.337,1.517a14.407,14.407,0,0,0-2.8,3.993c-.593-.212-1.013-1.087-1.458-1.533A3.983,3.983,0,0,0,174.379,132.133Z" transform="translate(-133.486 -120.523)" fill="url(#linear-gradient-101)"/>
        <path id="Path_1896" data-name="Path 1896" d="M145.076,153.562a1.547,1.547,0,0,1,1.135-.535A25.868,25.868,0,0,0,165.5,137.6a4.231,4.231,0,0,0-3.224-2.754A49.579,49.579,0,0,1,152.7,142.6a24.752,24.752,0,0,1-4.253,1.5,8.271,8.271,0,0,1-4.459-.117c-.964-.332-5.4-1.475-7.412-1.942a10.188,10.188,0,0,1-7-.241,6.928,6.928,0,0,0-2,1.387,6.852,6.852,0,0,0-1.743,3.061c-.76,3.179,1.509,22.751-.066,31.076-.244,1.291,5.186,2.222,6.5,2.321a22.422,22.422,0,0,0,10.12-1.856c.857-.381,4.353-2.244,4.119-3.153C145.765,171.788,144.841,153.943,145.076,153.562Z" transform="translate(-121.406 -123.823)" fill="url(#linear-gradient-104)"/>
      </g>
      <g id="Group_610" data-name="Group 610" transform="translate(186.575 113.527)">
        <g id="Group_605" data-name="Group 605" transform="translate(4.531 4.744)">
          <path id="Path_1897" data-name="Path 1897" d="M331.534,234.613a9.788,9.788,0,0,0-2.923-2.994,1.18,1.18,0,0,1-.481-.18c-5.473-3.45-11.391-7.975-18.125-8.246a18.433,18.433,0,0,0-9.7,2.594c-2.9,1.534-5.921,2.966-8.343,5.221-3.681,3.425-7.977,7.861-8.286,13.137a39.46,39.46,0,0,0,2.044,14.734c1.709,4.89,4.811,9.68,9.621,11.988,4.773,2.29,10.175,2.329,15.36,2.239,4.4-.076,8.819-.436,12.47-3.165,3.882-2.9,6.475-7.615,8.214-12.047a33.857,33.857,0,0,0,2.16-15.718A18.3,18.3,0,0,0,331.534,234.613Z" transform="translate(-283.621 -223.179)" fill="url(#linear-gradient-105)"/>
          <path id="Path_1898" data-name="Path 1898" d="M302.728,257.252c-6.4,1.117-12.524,2.353-18.215,3.607a37.048,37.048,0,0,0,1.432,5.468c.053.151.111.3.166.452a363.465,363.465,0,0,1,47.215-7.349,33.71,33.71,0,0,0,.6-6.212Q319.39,254.347,302.728,257.252Z" transform="translate(-283.842 -230.629)" fill="url(#linear-gradient-106)"/>
        </g>
        <g id="Group_608" data-name="Group 608">
          <path id="Path_1899" data-name="Path 1899" d="M359.58,298.782a1.149,1.149,0,0,1,1.1.11,1.351,1.351,0,0,1,.349,1.2,4.071,4.071,0,0,0-.059,1.292c.168.742.9,1.19,1.577,1.547s1.412.791,1.6,1.529a1.664,1.664,0,0,1-1.091,1.855,2.567,2.567,0,0,1-2.244-.365,5.91,5.91,0,0,1-1.583-1.728,5.847,5.847,0,0,1-1.14-2.9A2.553,2.553,0,0,1,359.58,298.782Z" transform="translate(-297.558 -237.163)" fill="url(#linear-gradient-107)"/>
          <rect id="Rectangle_202" data-name="Rectangle 202" width="7.171" height="20.48" transform="matrix(0.587, -0.81, 0.81, 0.587, 46.955, 46.623)" fill="url(#linear-gradient-108)"/>
          <rect id="Rectangle_203" data-name="Rectangle 203" width="16.957" height="43.865" rx="2.142" transform="matrix(0.587, -0.81, 0.81, 0.587, 60.662, 62.607)" fill="url(#linear-gradient-109)"/>
          <path id="Path_1900" data-name="Path 1900" d="M324.623,222.516a29.63,29.63,0,1,0,6.592,41.382A29.63,29.63,0,0,0,324.623,222.516Zm1.037,37.353a22.768,22.768,0,1,1-5.065-31.8A22.768,22.768,0,0,1,325.66,259.869Z" transform="translate(-277.596 -216.87)" fill="url(#linear-gradient-110)"/>
          <g id="Group_606" data-name="Group 606" transform="translate(23.035 10.471)">
            <path id="Path_1901" data-name="Path 1901" d="M310.343,235.63a2.117,2.117,0,0,1-.553-4.16,19.156,19.156,0,0,1,5.687-.663,2.116,2.116,0,1,1-.141,4.23,15.06,15.06,0,0,0-4.437.518A2.123,2.123,0,0,1,310.343,235.63Z" transform="translate(-308.228 -230.795)" fill="#fff"/>
          </g>
          <g id="Group_607" data-name="Group 607" transform="translate(10.656 13.822)">
            <path id="Path_1902" data-name="Path 1902" d="M293.885,250.661a2.118,2.118,0,0,1-2.1-2.427,19.392,19.392,0,0,1,7.552-12.561,2.116,2.116,0,1,1,2.536,3.389,15.13,15.13,0,0,0-5.9,9.794A2.118,2.118,0,0,1,293.885,250.661Z" transform="translate(-291.766 -235.251)" fill="#fff"/>
          </g>
        </g>
        <g id="Group_609" data-name="Group 609" transform="translate(61.552 32.523)">
          <path id="Path_1903" data-name="Path 1903" d="M377.073,391.439a.564.564,0,0,1,.184-.37.475.475,0,0,1,.314-.042l3.855.379c-.121.768-.212,2.276-.212,2.276a2.084,2.084,0,0,1-.7,1.707,2.286,2.286,0,0,1-1.562.33,3.975,3.975,0,0,1-.966-.111,1.45,1.45,0,0,1-.811-.549,2.267,2.267,0,0,1-.3-1.184A9.8,9.8,0,0,1,377.073,391.439Z" transform="translate(-363.767 -292.582)" fill="url(#linear-gradient-101)"/>
          <path id="Path_1904" data-name="Path 1904" d="M379.13,399.716a8.567,8.567,0,0,0-.474-5.218,3.069,3.069,0,0,1-4.392-.111c-.233-.241-.592.126-.785.405s-.3.623-.491.906c-.4.6-1.949.84-2.629.889s-1.366-.054-2.042.032a2.03,2.03,0,0,0-.972.353,2.222,2.222,0,0,0-.77,1.533,7.046,7.046,0,0,0,.1,1.794,35.971,35.971,0,0,0,10.54.3C378.542,400.369,378.867,400.254,379.13,399.716Z" transform="translate(-361.208 -293.398)" fill="url(#linear-gradient-112)"/>
          <path id="Path_1905" data-name="Path 1905" d="M398.68,386.935a16.806,16.806,0,0,1,4.112-.243c.043.743.3,3.018.3,3.018a1.933,1.933,0,0,1-.65,1.587,2.127,2.127,0,0,1-1.452.308,3.715,3.715,0,0,1-.9-.1,1.343,1.343,0,0,1-.754-.51,2.112,2.112,0,0,1-.279-1.1C399.024,389.129,398.829,387.819,398.68,386.935Z" transform="translate(-369.176 -291.501)" fill="url(#linear-gradient-101)"/>
          <path id="Path_1906" data-name="Path 1906" d="M401.528,395.511a7.964,7.964,0,0,0-.441-4.853,2.854,2.854,0,0,1-4.083-.1c-.217-.225-.55.117-.73.377a20.8,20.8,0,0,1-4.033.874,1.887,1.887,0,0,0-.9.327,2.068,2.068,0,0,0-.716,1.426,6.5,6.5,0,0,0,.092,1.668C393.807,396.156,400.312,395.833,401.528,395.511Z" transform="translate(-367.171 -292.449)" fill="url(#linear-gradient-114)"/>
          <path id="Path_1907" data-name="Path 1907" d="M403.852,325.721a22.508,22.508,0,0,1,.769,10.211c-.418,3.422-1.278,6.758-1.9,10.142a73.908,73.908,0,0,0-.127,25.9,12.073,12.073,0,0,1-7.027-.032c-.636-4.524-1.243-9.089-1.879-13.613a62.249,62.249,0,0,1-.869-10.276c.111-4.256,1.093-8.449,1.106-12.707.008-2.723-.378-5.488.171-8.144a2.766,2.766,0,0,1,.723-1.548c.814-.718,2-.235,2.988.137C399.844,326.554,401.742,326.2,403.852,325.721Z" transform="translate(-367.72 -276.278)" fill="url(#linear-gradient-115)"/>
          <path id="Path_1908" data-name="Path 1908" d="M397.52,327.981c.108,3.595-1.732,6.868-3.468,9.92-3.234,5.687-10.013,23.556-11.674,37.375a10.333,10.333,0,0,1-7.518-.551c1.509-16.554,5.663-46.532,7.891-49.494a11.563,11.563,0,0,0,6.052,3.758,17.286,17.286,0,0,0,6.89.272,3.065,3.065,0,0,0,1.187-.345A1.1,1.1,0,0,0,397.52,327.981Z" transform="translate(-363.269 -276.267)" fill="url(#linear-gradient-116)"/>
          <path id="Path_1909" data-name="Path 1909" d="M401.511,279a14.548,14.548,0,0,1-.4-3.683c.1-2.089,1.2-4.184,1.063-6.27a11.469,11.469,0,0,0-.989-4.343,5.327,5.327,0,0,0-3.255-2.882,3.511,3.511,0,0,0-3.9,1.463,11.987,11.987,0,0,0-.764,2.982,5.686,5.686,0,0,1-1.595,2.689c-.373.351-.839.822-.623,1.286.181.391.717.441,1.045.718a1.381,1.381,0,0,1,.253,1.481c-.167.505-.475.957-.617,1.469a1.28,1.28,0,0,0,.393,1.434c.59.365,1.408-.087,2.037.205s.941,2.584.775,3.268a5.131,5.131,0,0,0,.12,2.158c.2.959.53.012,1.484.229a7.079,7.079,0,0,0,3.167-.008,2.741,2.741,0,0,0,1.581-.859A1.557,1.557,0,0,0,401.511,279Z" transform="translate(-367.27 -260.51)" fill="url(#linear-gradient-101)"/>
          <path id="Path_1910" data-name="Path 1910" d="M399.016,270.58a2.43,2.43,0,0,0,.632-4.205,1.1,1.1,0,0,0-.719-.271.575.575,0,0,0-.508.608,2.251,2.251,0,0,1-.692,1.573.563.563,0,0,1-.694.114l-.009,0a.546.546,0,0,1-.235-.7,3.44,3.44,0,0,0,.374-1.85,1.684,1.684,0,0,0-.25-.7c-.975-1.5-3.216-.142-4.29-1.491a1.643,1.643,0,0,1-.344-1.048,2.461,2.461,0,0,1,1.671-2.148,5.822,5.822,0,0,1,2.264-.332,14.028,14.028,0,0,1,4.37.772,7.657,7.657,0,0,1,3.087,1.745c1.416,1.465,1.688,3.7,1.5,5.726s-1.78,3.658-2.038,5.678c-.16,1.254-1.255,2.006-1.983,1.832a7.5,7.5,0,0,1-1.827-.632,1.148,1.148,0,0,1-.466-1.169C398.986,273.653,398.619,270.727,399.016,270.58Z" transform="translate(-367.589 -260.119)"/>
          <path id="Path_1911" data-name="Path 1911" d="M360.129,305.132a4,4,0,0,0,.663,1.446,2.64,2.64,0,0,0,2.207.814,1.328,1.328,0,0,0,1.184-.635,1.185,1.185,0,0,0-.38-1.261c-.751-.724-1.981-.88-2.563-1.746a8.692,8.692,0,0,1-.411-.814,1.189,1.189,0,0,0-.64-.617.575.575,0,0,0-.732.351.887.887,0,0,0,.055.438Q359.821,304.119,360.129,305.132Z" transform="translate(-359.447 -270.577)" fill="url(#linear-gradient-118)"/>
          <path id="Path_1912" data-name="Path 1912" d="M398.856,288.138a6.853,6.853,0,0,0-4.354-4.105,8.646,8.646,0,0,1-6.438,0,9.582,9.582,0,0,0-5.327,2.46,47.387,47.387,0,0,0-5.4,6.433c-4.54,6.13-10.06,7.185-12.713,6.945,0,0-1.821,1.43-1.437,3.092a20.227,20.227,0,0,0,16.772-3.307c-1.014,6.013-2.115,11.947-3.1,19.337,5.966,3.344,18.178,4.4,21.672,1.205C396.957,311.874,399.992,291.2,398.856,288.138Z" transform="translate(-360.361 -266.049)" fill="url(#linear-gradient-119)"/>
        </g>
      </g>
      <g id="Group_611" data-name="Group 611" transform="translate(144.947 164.726)">
        <path id="Path_1913" data-name="Path 1913" d="M238.431,384.93l.608,1.719-1.393,25.017-2.974-.087s-1.142-13.253-1.162-18.212l-1.72-7.52Z" transform="translate(-224.608 -309.748)" fill="url(#linear-gradient-120)"/>
        <path id="Path_1914" data-name="Path 1914" d="M235.113,419.474s.774.862,3.065.314a9.552,9.552,0,0,0,5.776,4.563,2.951,2.951,0,0,1,1.122.468.893.893,0,0,1,.261,1.114c-.231.346-.711.361-1.117.34l-4.205-.219c-.591-.031-3.656-.132-5.174-.193a.715.715,0,0,1-.692-.758c.08-1.082-.408-2.252-.3-3.358A3.322,3.322,0,0,1,235.113,419.474Z" transform="translate(-225.116 -318.315)" fill="url(#linear-gradient-98)"/>
        <path id="Path_1915" data-name="Path 1915" d="M249.54,385.261l.645,1.824-1.479,26.562-3.158-.093s-1.937-14.848-1.957-20.113l-1.1-7.208Z" transform="translate(-227.262 -309.83)" fill="url(#linear-gradient-122)"/>
        <path id="Path_1916" data-name="Path 1916" d="M228.758,357.638s-2.134,11.774.643,23.161c0,0,9.639,2.31,17.854-.923,0,0-.008-15.951-1.894-22.68Z" transform="translate(-223.662 -302.87)" fill="url(#linear-gradient-123)"/>
        <path id="Path_1917" data-name="Path 1917" d="M246.017,421.936s.822.916,3.255.335a10.147,10.147,0,0,0,6.133,4.845,3.129,3.129,0,0,1,1.192.5.949.949,0,0,1,.276,1.183c-.245.367-.754.382-1.185.36l-4.465-.232c-.6-.032-3.641-.133-5.305-.2a.961.961,0,0,1-.913-1c.022-1.095-.435-2.266-.323-3.376A3.53,3.53,0,0,1,246.017,421.936Z" transform="translate(-227.801 -318.925)" fill="url(#linear-gradient-98)"/>
        <path id="Path_1918" data-name="Path 1918" d="M226.559,332.253c.276-3.07,1.843-5.507,3.743-7.881l.2-6.861s-8.88,6.222-8.23,15.047c.631,8.577,7.33,15.581,7.33,15.581l.132-3.9C228.064,341.024,226.277,335.406,226.559,332.253Z" transform="translate(-222.24 -293.028)" fill="url(#linear-gradient-125)"/>
        <path id="Path_1919" data-name="Path 1919" d="M244.382,292.669c-.237,1.291-.887,3.274-.394,4.484a4.2,4.2,0,0,1,.393,1.331c-.02.351-.707.322-1.006.156a5.835,5.835,0,0,0-.1,1.574,5.455,5.455,0,0,1-.663,2.191,2.372,2.372,0,0,1-1.721-.147,13.776,13.776,0,0,0,.187,5.1,8.4,8.4,0,0,0-3.219.013,3.56,3.56,0,0,1-3.03-.915,4.084,4.084,0,0,1-.74-1.819,25.656,25.656,0,0,1-.569-5.381,14.561,14.561,0,0,1,.769-5.043,7.588,7.588,0,0,1,3.058-3.923,4.929,4.929,0,0,1,4.753-.274C243.111,290.549,244.594,291.512,244.382,292.669Z" transform="translate(-225.036 -286.088)" fill="url(#linear-gradient-126)"/>
        <path id="Path_1920" data-name="Path 1920" d="M244.168,338.241a11.237,11.237,0,0,1-.209-2.233,19.793,19.793,0,0,1,.841-6.081c1.051-2.846,4.62-5.372,1.691-11.213-1.049-2.092-1.57-3.867-2.641-4.829a6.348,6.348,0,0,0-4.166-1.62s-5.056,1.085-7.634-.224a14.222,14.222,0,0,0-3.267,11.332c.989,6.936-.208,21.983-.8,25.7,1.955,1.126,18.713,1.171,18.019-2.3C245.545,344.473,244.4,339.418,244.168,338.241Z" transform="translate(-223.664 -291.671)" fill="url(#linear-gradient-127)"/>
        <path id="Path_1921" data-name="Path 1921" d="M246.91,312.359c-1.485.168-3.491,2.013-1.264,5.56s7.084,5.78,10.282,6.248,13.314-8.822,13.961-9.661c.9-1.169,2.107-1.258,3.239-2.191a3.176,3.176,0,0,0,.864-1.657c-.031-.618-.817-1.03-.939-1.215-.334-.51.638-1.16,1.327-2.045.259-.333.515-.836.227-1.141s-.776-.053-1.1.211a11.909,11.909,0,0,0-3.525,3.659,9.942,9.942,0,0,1-2.421,2.946s-7.8,6.294-10.293,5.493C253.447,317.34,249.043,312.118,246.91,312.359Z" transform="translate(-227.798 -290.203)" fill="url(#linear-gradient-128)"/>
        <path id="Path_1922" data-name="Path 1922" d="M234.326,314.053c-1.5,1.775-4,2.206-6.277,2.227a5.965,5.965,0,0,1-4.322-1.253,5.182,5.182,0,0,1-.92-5.088,27.287,27.287,0,0,1,2.373-4.861c1.49-2.859-.688-12.47,4.056-17.337a8.506,8.506,0,0,1,7.734-2.624,14.279,14.279,0,0,1,2.958,1.106,5.852,5.852,0,0,1,2.2,1.505,3.554,3.554,0,0,1,.994,3.3,1.762,1.762,0,0,1-1.675,1.315c-.79.083-2.787-.994-3.45-.541a3.729,3.729,0,0,0-1.027,1.224,16.025,16.025,0,0,0-2.156,9.628c.186,1.958.732,3.867.893,5.827A7.647,7.647,0,0,1,234.326,314.053Z" transform="translate(-222.313 -284.954)"/>
      </g>
      <g id="Group_612" data-name="Group 612" transform="translate(190.569 203.662)">
        <path id="Rectangle_204" data-name="Rectangle 204" d="M0,0H51.113a0,0,0,0,1,0,0V32.783a3.623,3.623,0,0,1-3.623,3.623H3.622A3.622,3.622,0,0,1,0,32.783V0A0,0,0,0,1,0,0Z" transform="translate(0 16.905) rotate(-14.331)" fill="url(#linear-gradient-129)"/>
        <path id="Path_1923" data-name="Path 1923" d="M282.907,355.037l4.235,16.578a4.291,4.291,0,0,0,5.218,3.094l41.21-10.529a4.289,4.289,0,0,0,3.094-5.218l-4.235-16.578Z" transform="translate(-282.907 -338.132)" fill="url(#linear-gradient-130)"/>
        <path id="Rectangle_205" data-name="Rectangle 205" d="M0,0H8.89a0,0,0,0,1,0,0V5.836a2.22,2.22,0,0,1-2.22,2.22H2.22A2.22,2.22,0,0,1,0,5.836V0A0,0,0,0,1,0,0Z" transform="translate(24.652 28.107) rotate(-14.331)" fill="url(#linear-gradient-131)"/>
        <rect id="Rectangle_206" data-name="Rectangle 206" width="5.537" height="6.227" transform="translate(26.276 27.692) rotate(-14.332)" fill="url(#linear-gradient-132)"/>
        <path id="Path_1924" data-name="Path 1924" d="M318.079,336.9l-17.087,4.365-.4.1a2.231,2.231,0,0,0-1.609,2.713l1.549,6.062,2.564-.655-1.434-5.615,17.086-4.365,1.435,5.615,2.564-.655-1.548-6.063a2.23,2.23,0,0,0-2.713-1.609Z" transform="translate(-286.876 -336.73)" fill="url(#linear-gradient-133)"/>
      </g>
      <g id="Group_615" data-name="Group 615" transform="translate(103.752 85.318)">
        <path id="Path_1925" data-name="Path 1925" d="M225.259,223.278a17.941,17.941,0,1,0-33.279,9.306,33.789,33.789,0,0,1,4.741,17.584v1.648h21.2v-2.154a32.059,32.059,0,0,1,4.656-16.938A17.848,17.848,0,0,0,225.259,223.278Z" transform="translate(-172.895 -185.801)" fill="url(#linear-gradient-134)"/>
        <path id="Path_1926" data-name="Path 1926" d="M199.143,267.144v9.05a7.55,7.55,0,0,0,7.549,7.549h6.1a7.55,7.55,0,0,0,7.549-7.549v-9.05Z" transform="translate(-175.316 -201.129)" fill="url(#linear-gradient-14)"/>
        <g id="Group_613" data-name="Group 613" transform="translate(23.827 66.015)">
          <path id="Path_1927" data-name="Path 1927" d="M207.322,285.473l14.268-8.407v-2.818l-17.4,10.252A7.484,7.484,0,0,0,207.322,285.473Z" transform="translate(-200.395 -268.905)" fill="url(#linear-gradient-136)"/>
          <path id="Path_1928" data-name="Path 1928" d="M200.93,280.879l19.559-11.524v-2.21h-1.033l-19.707,11.612A7.52,7.52,0,0,0,200.93,280.879Z" transform="translate(-199.293 -267.144)" fill="url(#linear-gradient-137)"/>
          <path id="Path_1929" data-name="Path 1929" d="M209.208,267.144l-10.065,5.93v2.818l14.848-8.749Z" transform="translate(-199.143 -267.144)" fill="url(#linear-gradient-138)"/>
        </g>
        <path id="Path_1930" data-name="Path 1930" d="M216.358,226.149a4.323,4.323,0,0,0-4.318,4.318v4.582h-4.931v-4.582a4.318,4.318,0,0,0-8.637,0v1.273a4.323,4.323,0,0,0,4.319,4.319H206.1v20.918h1.009V236.059h4.931v20.918h1.009V236.059h3.309a4.323,4.323,0,0,0,4.319-4.319v-1.273A4.323,4.323,0,0,0,216.358,226.149Zm-10.258,8.9h-3.309a3.312,3.312,0,0,1-3.31-3.309v-1.273a3.309,3.309,0,0,1,6.618,0Zm13.568-3.309a3.312,3.312,0,0,1-3.31,3.309h-3.309v-4.582a3.309,3.309,0,0,1,6.618,0Z" transform="translate(-175.15 -190.962)" fill="#fff"/>
        <g id="Group_614" data-name="Group 614">
          <path id="Path_1931" data-name="Path 1931" d="M212.737,179.358a1.514,1.514,0,0,0-1.515,1.515v12.065a1.514,1.514,0,1,0,3.028,0V180.873A1.514,1.514,0,0,0,212.737,179.358Z" transform="translate(-178.312 -179.358)" fill="url(#linear-gradient-139)"/>
          <path id="Path_1932" data-name="Path 1932" d="M238.486,188.623a1.515,1.515,0,0,0-2.118.317l-7.175,9.7a1.514,1.514,0,0,0,2.435,1.8l7.175-9.7A1.515,1.515,0,0,0,238.486,188.623Z" transform="translate(-182.695 -181.582)" fill="url(#linear-gradient-140)"/>
          <path id="Path_1933" data-name="Path 1933" d="M239.71,217.21a1.512,1.512,0,0,0,1.891,1l11.536-3.533a1.514,1.514,0,1,0-.887-2.9l-11.536,3.533A1.514,1.514,0,0,0,239.71,217.21Z" transform="translate(-185.36 -187.384)" fill="url(#linear-gradient-141)"/>
          <path id="Path_1934" data-name="Path 1934" d="M252.645,239.13l-11.376-4.02a1.514,1.514,0,1,0-1.009,2.855l11.376,4.02a1.514,1.514,0,1,0,1.009-2.855Z" transform="translate(-185.263 -193.163)" fill="url(#linear-gradient-142)"/>
          <path id="Path_1935" data-name="Path 1935" d="M186.738,188.94a1.515,1.515,0,0,0-2.435,1.8l7.175,9.7a1.514,1.514,0,1,0,2.435-1.8Z" transform="translate(-171.562 -181.582)" fill="url(#linear-gradient-140)"/>
          <path id="Path_1936" data-name="Path 1936" d="M168.53,214.682l11.536,3.533a1.514,1.514,0,1,0,.887-2.9l-11.536-3.533a1.514,1.514,0,1,0-.887,2.9Z" transform="translate(-167.458 -187.384)" fill="url(#linear-gradient-144)"/>
          <path id="Path_1937" data-name="Path 1937" d="M180.452,235.11l-11.376,4.02a1.514,1.514,0,1,0,1.009,2.855l11.376-4.02a1.514,1.514,0,1,0-1.008-2.855Z" transform="translate(-167.609 -193.163)" fill="url(#linear-gradient-142)"/>
        </g>
      </g>
    </g>
  </g>
</svg>
