<svg xmlns="http://www.w3.org/2000/svg" width="18.298" height="14.305" viewBox="0 0 18.298 14.305">
  <path id="mail" d="M2.183,7.933l7.624,4.8a1.909,1.909,0,0,0,1.842,0l7.624-4.8c.5-.314.967-1.533.055-1.533H2.13c-.912,0-.442,1.22.054,1.533ZM19.5,10.559c-.564.344-7.509,4.588-7.855,4.8a1.523,1.523,0,0,1-.921.237,1.528,1.528,0,0,1-.921-.237c-.346-.212-7.251-4.457-7.815-4.8-.4-.243-.393.042-.393.261v8.694c0,.5.576,1.192,1.017,1.192H18.88c.441,0,1.017-.691,1.017-1.192V10.82c0-.219,0-.5-.393-.261Z" transform="translate(-1.599 -6.4)" fill="#91c947"/>
</svg>
