<svg xmlns="http://www.w3.org/2000/svg" width="22" height="23.562" viewBox="0 0 22 23.562">
  <g id="notification" transform="translate(350.71 -139.89)">
    <path id="Path_3111" data-name="Path 3111" d="M-339.768,139.89a5.788,5.788,0,0,1,1.112.452,2.543,2.543,0,0,1,1.115,2.65c.046.023.1.052.152.076a7.716,7.716,0,0,1,4.835,6.474,12.458,12.458,0,0,1,.046,1.492c.006,1.181,0,2.362,0,3.542,0,.439.04.484.471.522a2.729,2.729,0,0,1,2.512,2.128,2.655,2.655,0,0,1-2.584,3.184c-1.439.01-2.877,0-4.316,0h-.265c-.024.122-.043.234-.068.344a3.421,3.421,0,0,1-2.836,2.655.973.973,0,0,0-.13.039h-.781c-.154-.038-.31-.07-.461-.116a3.385,3.385,0,0,1-2.487-2.731c-.012-.059-.028-.118-.046-.192h-.277c-1.446,0-2.892.008-4.338,0a2.639,2.639,0,0,1-2.421-1.707,2.6,2.6,0,0,1,.667-2.863,2.79,2.79,0,0,1,1.782-.746c.338-.02.41-.1.411-.44,0-1.495-.03-2.991.007-4.485a7.458,7.458,0,0,1,4.58-7c.143-.068.343-.095.417-.207s0-.294,0-.447a2.581,2.581,0,0,1,2.135-2.585.878.878,0,0,0,.128-.042Zm-.313,19q3.937,0,7.875,0a1.144,1.144,0,0,0,1.213-1.04,1.146,1.146,0,0,0-1.072-1.231c-.167-.022-.338-.017-.5-.052a1.813,1.813,0,0,1-1.456-1.817q-.008-2.185,0-4.371a6.419,6.419,0,0,0-.424-2.337,6,6,0,0,0-8.366-3.317,5.839,5.839,0,0,0-3.332,5.327c-.045,1.571-.005,3.144-.011,4.715a1.812,1.812,0,0,1-1.471,1.8c-.194.039-.4.031-.592.065a1.132,1.132,0,0,0-.817,1.685,1.161,1.161,0,0,0,1.08.57Q-344.019,158.891-340.081,158.894Zm-1.838,1.531a1.858,1.858,0,0,0,1.8,1.506,1.861,1.861,0,0,0,1.856-1.506Zm.768-17.837h2.121a1.008,1.008,0,0,0-.471-1,1,1,0,0,0-1.164-.007A1.017,1.017,0,0,0-341.151,142.588Z" transform="translate(0 0)" fill="#c2c2c2"/>
    <path id="Path_3112" data-name="Path 3112" d="M-349.324,192.3a.737.737,0,0,1-.719-.982,18.086,18.086,0,0,1,.674-2,9.706,9.706,0,0,1,2.091-3.051.746.746,0,0,1,.838-.2.714.714,0,0,1,.488.662.869.869,0,0,1-.313.685,8.78,8.78,0,0,0-2.282,4.154c-.018.074-.034.15-.059.222A.753.753,0,0,1-349.324,192.3Z" transform="translate(-0.593 -43.29)" fill="#c2c2c2"/>
    <circle id="Ellipse_59" data-name="Ellipse 59" cx="4" cy="4" r="4" transform="translate(-336.71 142.579)" fill="#91c947"/>
    <path id="Ellipse_59_-_Outline" data-name="Ellipse 59 - Outline" d="M4,1A3,3,0,1,0,7,4,3,3,0,0,0,4,1M4,0A4,4,0,1,1,0,4,4,4,0,0,1,4,0Z" transform="translate(-336.71 142.579)" fill="#fff"/>
  </g>
</svg>
