<svg xmlns="http://www.w3.org/2000/svg" width="382" height="244" viewBox="0 0 382 244">
  <g id="OTP" transform="translate(52.608 -56.391)">
    <rect id="Rectangle_207" data-name="Rectangle 207" width="382" height="244" transform="translate(-52.608 56.391)" fill="#f8f8f5"/>
    <g id="Background_Complete" data-name="Background Complete" transform="translate(30.392 114.036)">
      <g id="Group_2283" data-name="Group 2283" transform="translate(0 91.943)">
        <g id="Group_2272" data-name="Group 2272">
          <path id="Path_2889" data-name="Path 2889" d="M63.63,350.622c6.68-5.466,7.545-14.659,6.6-22.78-.158-1.356-.124-2.8-.877-3.94a2.826,2.826,0,0,0-3.535-1.154c-.984.56-1.334,1.771-1.827,2.789a8.05,8.05,0,0,1-2.981,3.312,3.116,3.116,0,0,1-2.808.486c-1.241-.549-1.514-2.158-1.616-3.511l-.571-7.564a12.47,12.47,0,0,0-.742-3.982,4.227,4.227,0,0,0-2.9-2.616,2.594,2.594,0,0,0-3.051,1.968,12.4,12.4,0,0,0,.1,1.687,1.429,1.429,0,0,1-.734,1.409,1.675,1.675,0,0,1-1.556-.5,18.006,18.006,0,0,1-3.669-4.6A24.974,24.974,0,0,0,40,306.848a7.452,7.452,0,0,0-5.247-2.365,4.454,4.454,0,0,0-4.3,3.362c-.341,1.947.944,3.788,2.3,5.23a30.482,30.482,0,0,0,6.856,5.466,2.507,2.507,0,0,1,1.158,1.042c.371.877-.421,1.844-1.3,2.215a16.154,16.154,0,0,1-3.168.619,3.1,3.1,0,0,0-2.5,1.8c-.448,1.429.842,2.781,2.072,3.635a26.36,26.36,0,0,0,8.115,3.778,8.925,8.925,0,0,1,2.994,1.145,2.491,2.491,0,0,1,1.047,2.8,2.61,2.61,0,0,1-2.72,1.3,18.43,18.43,0,0,1-3.1-.886c-1.94-.546-4.361-.217-5.436,1.488a4.245,4.245,0,0,0-.152,3.822,9.87,9.87,0,0,0,2.35,3.17,26.415,26.415,0,0,0,11.887,6.875c4.49,1.135,8.569,1.206,12.782-.719" transform="translate(-30.392 -304.481)" fill="#ebebeb"/>
        </g>
        <g id="Group_2274" data-name="Group 2274" transform="translate(1.883 1.346)">
          <g id="Group_2273" data-name="Group 2273">
            <path id="Path_2890" data-name="Path 2890" d="M66.233,358.1a58.978,58.978,0,0,0-3.154-10.955A120.9,120.9,0,0,0,57.139,334.5l-1.73-3.234c-.57-1.061-1.135-2.111-1.752-3.105a60.575,60.575,0,0,0-3.878-5.513c-1.319-1.695-2.635-3.255-3.875-4.706s-2.429-2.777-3.561-3.942a48.693,48.693,0,0,0-5.751-5.1c-.724-.548-1.3-.955-1.694-1.227l-.449-.306c-.1-.068-.157-.1-.157-.1s.047.042.145.115l.438.322c.385.282.953.7,1.669,1.257a50.876,50.876,0,0,1,5.7,5.139c1.123,1.169,2.3,2.5,3.536,3.952s2.542,3.017,3.855,4.711a60.918,60.918,0,0,1,3.855,5.5c.613.991,1.173,2.034,1.744,3.1l1.728,3.233A123.163,123.163,0,0,1,62.9,347.21a59.8,59.8,0,0,1,3.188,10.912" transform="translate(-34.292 -307.269)" fill="#e0e0e0"/>
          </g>
        </g>
        <g id="Group_2276" data-name="Group 2276" transform="translate(21.184 7.181)">
          <g id="Group_2275" data-name="Group 2275">
            <path id="Path_2891" data-name="Path 2891" d="M74.281,334.4a3.31,3.31,0,0,0,.078-.589c.038-.379.077-.931.116-1.612.079-1.362.127-3.247.174-5.326s.128-3.959.237-5.316c.052-.679.1-1.228.141-1.607a3.244,3.244,0,0,0,.037-.592,3.377,3.377,0,0,0-.116.582c-.064.377-.135.925-.206,1.6-.147,1.358-.25,3.243-.3,5.325-.044,2.061-.084,3.925-.114,5.325-.02.652-.038,1.194-.051,1.613A3.321,3.321,0,0,0,74.281,334.4Z" transform="translate(-74.271 -319.355)" fill="#e0e0e0"/>
          </g>
        </g>
        <g id="Group_2278" data-name="Group 2278" transform="translate(3.315 20.317)">
          <g id="Group_2277" data-name="Group 2277">
            <path id="Path_2892" data-name="Path 2892" d="M37.259,346.673a.648.648,0,0,0,.183.014l.525,0c.455,0,1.114,0,1.928.021,1.627.034,3.875.163,6.346.415s4.7.586,6.3.872c.8.138,1.449.267,1.9.354l.516.1a.633.633,0,0,0,.183.021.613.613,0,0,0-.174-.061l-.507-.136c-.442-.112-1.086-.263-1.887-.42-1.6-.323-3.829-.675-6.308-.932s-4.732-.359-6.365-.356c-.816-.005-1.477.019-1.932.044l-.525.037A.611.611,0,0,0,37.259,346.673Z" transform="translate(-37.259 -346.564)" fill="#e0e0e0"/>
          </g>
        </g>
        <g id="Group_2280" data-name="Group 2280" transform="translate(30.446 17.974)">
          <g id="Group_2279" data-name="Group 2279">
            <path id="Path_2893" data-name="Path 2893" d="M93.458,364.646a1.1,1.1,0,0,0,.1-.224l.246-.655c.211-.57.5-1.4.838-2.433.683-2.062,1.538-4.94,2.441-8.128s1.737-6.069,2.383-8.141l.776-2.451.209-.667a1.078,1.078,0,0,0,.06-.238,1.109,1.109,0,0,0-.1.224c-.064.17-.145.387-.246.655-.211.57-.5,1.4-.838,2.433-.683,2.062-1.539,4.94-2.442,8.129s-1.736,6.068-2.383,8.14l-.775,2.451c-.086.273-.155.494-.21.668A1.108,1.108,0,0,0,93.458,364.646Z" transform="translate(-93.456 -341.711)" fill="#e0e0e0"/>
          </g>
        </g>
        <g id="Group_2282" data-name="Group 2282" transform="translate(6.433 35.391)">
          <g id="Group_2281" data-name="Group 2281">
            <path id="Path_2894" data-name="Path 2894" d="M43.716,377.79a1.234,1.234,0,0,0,.241.071l.7.164,2.574.588c2.172.5,5.165,1.224,8.468,2.034s6.305,1.514,8.487,1.977c1.091.232,1.976.411,2.589.524l.707.127a1.178,1.178,0,0,0,.249.03,1.119,1.119,0,0,0-.241-.071l-.7-.164-2.574-.588c-2.173-.5-5.165-1.225-8.47-2.035s-6.3-1.514-8.486-1.977c-1.091-.232-1.976-.411-2.589-.524l-.707-.127A1.118,1.118,0,0,0,43.716,377.79Z" transform="translate(-43.716 -377.787)" fill="#e0e0e0"/>
          </g>
        </g>
      </g>
      <g id="Group_2287" data-name="Group 2287" transform="translate(61.604)">
        <g id="Group_2285" data-name="Group 2285">
          <rect id="Rectangle_346" data-name="Rectangle 346" width="36.451" height="24.569" transform="translate(0.157 10.627) rotate(-16.745)" fill="#fff"/>
          <g id="Group_2284" data-name="Group 2284">
            <path id="Path_2895" data-name="Path 2895" d="M200.135,137.689s-.052-.148-.14-.43l-.386-1.243-1.45-4.731-5.2-17.095.125.068-34.9,10.525h0l.084-.156,7.068,23.53-.143-.077,25.149-7.507,7.2-2.133,1.92-.563.5-.143c.113-.031.174-.045.174-.045s-.05.02-.157.055l-.482.152-1.89.583-7.155,2.185L165.263,148.3l-.11.033-.033-.11c-2.159-7.168-4.562-15.14-7.089-23.524l-.036-.12.121-.036h0l34.91-10.477.1-.029.029.1,5.115,17.185,1.395,4.724.359,1.232C200.1,137.55,200.135,137.689,200.135,137.689Z" transform="translate(-157.995 -114.036)" fill="#e0e0e0"/>
          </g>
        </g>
        <g id="Group_2286" data-name="Group 2286" transform="translate(0.157 0.125)">
          <path id="Path_2896" data-name="Path 2896" d="M193.225,114.3a.392.392,0,0,1-.048.106l-.164.3-.649,1.141-2.436,4.185-8.18,13.873-.054.091-.1-.039-1.068-.414L164.8,127.406l-4.754-1.885L158.763,125l-.333-.142a.062.062,0,1,1,.009-.024l.342.119,1.3.48,4.782,1.811,15.748,6.064,1.068.414-.154.053,8.247-13.833,2.5-4.145.689-1.117.184-.287A.44.44,0,0,1,193.225,114.3Z" transform="translate(-158.32 -114.296)" fill="#e0e0e0"/>
        </g>
      </g>
      <g id="Group_2295" data-name="Group 2295" transform="translate(159.565 93.657)">
        <path id="Path_2897" data-name="Path 2897" d="M399.558,308.473s-2.262-2.241-6.678,3.356a82.534,82.534,0,0,0-6.336,8.951s-1.1,1.138-1.826.106-1.472-3.7-3.084-3.565c-1.671.137-2.543,1.8-2.758,4.45s-.9,8.446-.964,8.97-.5,1.2-1.109.579-3.759-5.941-6.193-4.294-1.819,9.134-1.767,9.953-.167,1.122-.575,1.241-1.3-1.768-2.257-3.244-2.327-3.019-3.652-1.951-2.726,6.315.613,15.956l1.839,4.366,4.711.67c10.17.819,14.9-1.85,15.6-3.4s-1.135-2.49-2.8-3.048-3.718-.949-3.705-1.373.251-.713,1.057-.868,8.21-1.434,9.2-4.2-4.952-4.489-5.707-4.921-.2-1.029.283-1.219,5.929-2.306,8.443-3.178,3.9-2.132,3.618-3.784c-.275-1.593-3.042-1.648-4.223-2.093s-.354-1.794-.354-1.794a82.55,82.55,0,0,0,7.08-8.374c4.315-5.677,1.5-7.333,1.5-7.333" transform="translate(-360.905 -308.03)" fill="#ebebeb"/>
        <g id="Group_2288" data-name="Group 2288" transform="translate(0.461 5.449)">
          <path id="Path_2898" data-name="Path 2898" d="M396.087,319.318a.619.619,0,0,1-.077.123l-.246.344-.966,1.31c-.842,1.135-2.076,2.766-3.609,4.776-3.065,4.019-7.353,9.529-12.116,15.593L366.9,357.013l-3.672,4.726-1,1.281-.266.329a.607.607,0,0,1-.1.107.645.645,0,0,1,.077-.123l.246-.344.966-1.309c.842-1.135,2.076-2.766,3.609-4.775,3.065-4.019,7.354-9.53,12.118-15.6l12.173-15.547,3.672-4.726,1-1.281.266-.329A.626.626,0,0,1,396.087,319.318Z" transform="translate(-361.858 -319.318)" fill="#e0e0e0"/>
        </g>
        <g id="Group_2289" data-name="Group 2289" transform="translate(21.6 13.063)">
          <path id="Path_2899" data-name="Path 2899" d="M405.668,335.087a5.957,5.957,0,0,1,.178,1.264c.072.784.137,1.871.18,3.071.031,1.154.06,2.2.083,3.071a7.961,7.961,0,0,1,0,1.275,5.376,5.376,0,0,1-.177-1.265c-.064-.786-.114-1.872-.157-3.071-.04-1.153-.076-2.2-.106-3.069A6.947,6.947,0,0,1,405.668,335.087Z" transform="translate(-405.645 -335.087)" fill="#e0e0e0"/>
        </g>
        <g id="Group_2290" data-name="Group 2290" transform="translate(22.473 21.06)">
          <path id="Path_2900" data-name="Path 2900" d="M407.454,352.5c-.006-.069,2.226-.311,4.985-.542a50.1,50.1,0,0,1,5.006-.292,99.833,99.833,0,0,1-9.991.833Z" transform="translate(-407.454 -351.652)" fill="#e0e0e0"/>
        </g>
        <g id="Group_2291" data-name="Group 2291" transform="translate(14.462 31.216)">
          <path id="Path_2901" data-name="Path 2901" d="M390.861,372.7a7.322,7.322,0,0,1,1.286.206c.788.149,1.876.357,3.083.549s2.305.339,3.1.443a7.432,7.432,0,0,1,1.285.207,6.1,6.1,0,0,1-1.3-.03c-.8-.058-1.909-.175-3.122-.371s-2.3-.43-3.082-.624A6.134,6.134,0,0,1,390.861,372.7Z" transform="translate(-390.861 -372.688)" fill="#e0e0e0"/>
        </g>
        <g id="Group_2292" data-name="Group 2292" transform="translate(11.926 23.388)">
          <path id="Path_2902" data-name="Path 2902" d="M385.612,356.475a5.707,5.707,0,0,1,.468,1.11c.259.7.6,1.663.961,2.735s.676,2.049.892,2.76a5.736,5.736,0,0,1,.3,1.166,5.73,5.73,0,0,1-.468-1.109c-.258-.7-.6-1.663-.961-2.736s-.676-2.049-.892-2.76A5.728,5.728,0,0,1,385.612,356.475Z" transform="translate(-385.607 -356.475)" fill="#e0e0e0"/>
        </g>
        <g id="Group_2293" data-name="Group 2293" transform="translate(3.811 30.71)">
          <path id="Path_2903" data-name="Path 2903" d="M368.8,371.641a9.36,9.36,0,0,1,.59,1.425c.334.891.779,2.127,1.256,3.5s.9,2.617,1.187,3.522a9.367,9.367,0,0,1,.422,1.483,9.4,9.4,0,0,1-.589-1.425c-.334-.891-.779-2.127-1.256-3.5s-.9-2.616-1.186-3.522A9.362,9.362,0,0,1,368.8,371.641Z" transform="translate(-368.797 -371.641)" fill="#e0e0e0"/>
        </g>
        <g id="Group_2294" data-name="Group 2294" transform="translate(7.253 40.37)">
          <path id="Path_2904" data-name="Path 2904" d="M375.928,391.658a11.822,11.822,0,0,1,1.636.216c1.006.156,2.4.373,3.934.575s2.936.36,3.949.47a11.865,11.865,0,0,1,1.636.218,9.788,9.788,0,0,1-1.652-.041c-1.018-.065-2.423-.192-3.967-.4s-2.932-.448-3.932-.65A9.8,9.8,0,0,1,375.928,391.658Z" transform="translate(-375.928 -391.65)" fill="#e0e0e0"/>
        </g>
      </g>
      <g id="Group_2307" data-name="Group 2307" transform="translate(170.633 46.624)">
        <rect id="Rectangle_347" data-name="Rectangle 347" width="37.457" height="27.373" transform="matrix(0.031, -1, 1, 0.031, 5.146, 37.44)" fill="#f5f5f5"/>
        <g id="Group_2306" data-name="Group 2306" transform="translate(0 4.844)">
          <g id="Group_2297" data-name="Group 2297">
            <rect id="Rectangle_348" data-name="Rectangle 348" width="37.457" height="27.373" transform="matrix(0.031, -1, 1, 0.031, 0.106, 37.57)" fill="#fff"/>
            <g id="Group_2296" data-name="Group 2296">
              <path id="Path_2905" data-name="Path 2905" d="M411.295,259.049s0-.065,0-.184.005-.3.009-.53c.012-.472.028-1.157.049-2.046.048-1.791.117-4.4.2-7.691.187-6.589.453-15.934.768-26.994l.11.117-27.357-.824h0l.129-.122c-.435,13.985-.839,26.932-1.166,37.44l-.1-.106,19.868.66,5.527.2,1.456.056c.33.014.506.027.506.027s-.161,0-.485,0l-1.437-.032-5.505-.142-19.936-.555-.1,0,0-.1c.314-10.508.7-23.456,1.12-37.441l0-.126.126,0h0l27.357.847.114,0,0,.114c-.362,11.089-.667,20.458-.883,27.065-.113,3.284-.2,5.879-.265,7.663-.033.878-.058,1.555-.075,2.022-.01.222-.017.393-.023.517S411.295,259.049,411.295,259.049Z" transform="translate(-383.829 -220.644)" fill="#e0e0e0"/>
            </g>
          </g>
          <g id="Group_2298" data-name="Group 2298" transform="translate(4.628 8.354)">
            <path id="Path_2906" data-name="Path 2906" d="M406.711,238.389c0,.07-2.981.035-6.652-.077s-6.646-.259-6.644-.329,2.98-.035,6.652.077S406.713,238.319,406.711,238.389Z" transform="translate(-393.415 -237.947)" fill="#e0e0e0"/>
          </g>
          <g id="Group_2299" data-name="Group 2299" transform="translate(4.528 11.618)">
            <path id="Path_2907" data-name="Path 2907" d="M413.7,245.359c0,.07-4.59-.014-10.247-.187s-10.242-.369-10.24-.438,4.589.014,10.247.187S413.7,245.29,413.7,245.359Z" transform="translate(-393.209 -244.709)" fill="#e0e0e0"/>
          </g>
          <g id="Group_2300" data-name="Group 2300" transform="translate(4.425 15.012)">
            <path id="Path_2908" data-name="Path 2908" d="M413.481,252.39c0,.069-4.59-.014-10.247-.187s-10.242-.369-10.24-.438,4.589.014,10.248.187S413.483,252.32,413.481,252.39Z" transform="translate(-392.994 -251.739)" fill="#e0e0e0"/>
          </g>
          <g id="Group_2301" data-name="Group 2301" transform="translate(4.321 18.406)">
            <path id="Path_2909" data-name="Path 2909" d="M413.267,259.419c0,.07-4.591-.014-10.247-.187s-10.242-.369-10.24-.438,4.589.014,10.247.187S413.269,259.35,413.267,259.419Z" transform="translate(-392.78 -258.769)" fill="#e0e0e0"/>
          </g>
          <g id="Group_2302" data-name="Group 2302" transform="translate(4.218 21.8)">
            <path id="Path_2910" data-name="Path 2910" d="M413.052,266.45c0,.07-4.59-.014-10.247-.187s-10.242-.369-10.24-.438,4.589.014,10.247.187S413.054,266.38,413.052,266.45Z" transform="translate(-392.565 -265.8)" fill="#e0e0e0"/>
          </g>
          <g id="Group_2303" data-name="Group 2303" transform="translate(4.114 25.194)">
            <path id="Path_2911" data-name="Path 2911" d="M412.837,273.48c0,.07-4.59-.014-10.246-.187s-10.242-.369-10.24-.438,4.589.014,10.248.187S412.839,273.41,412.837,273.48Z" transform="translate(-392.35 -272.83)" fill="#e0e0e0"/>
          </g>
          <g id="Group_2304" data-name="Group 2304" transform="translate(4.01 28.588)">
            <path id="Path_2912" data-name="Path 2912" d="M412.623,280.51c0,.07-4.59-.014-10.247-.187s-10.242-.369-10.24-.439,4.589.014,10.247.187S412.625,280.44,412.623,280.51Z" transform="translate(-392.136 -279.86)" fill="#e0e0e0"/>
          </g>
          <g id="Group_2305" data-name="Group 2305" transform="translate(3.907 31.965)">
            <path id="Path_2913" data-name="Path 2913" d="M402.933,287.232c0,.07-2.469.05-5.51-.042s-5.5-.224-5.5-.294,2.468-.051,5.51.042S402.935,287.163,402.933,287.232Z" transform="translate(-391.921 -286.854)" fill="#e0e0e0"/>
          </g>
        </g>
      </g>
      <g id="Group_2313" data-name="Group 2313" transform="translate(109.335 26.656)">
        <g id="Group_2310" data-name="Group 2310">
          <g id="Group_2309" data-name="Group 2309">
            <rect id="Rectangle_349" data-name="Rectangle 349" width="23.143" height="28.948" transform="translate(0.063 21.558) rotate(-68.29)" fill="#fff"/>
            <g id="Group_2308" data-name="Group 2308">
              <path id="Path_2914" data-name="Path 2914" d="M292.379,180.015l-.129-.049-.377-.147-1.46-.575-5.507-2.18-19.437-7.715.056-.025-8.555,21.5v0l-.027-.063,26.891,10.716-.053.023,6.232-15.6,1.744-4.351.461-1.146c.1-.259.162-.394.162-.394s-.049.131-.15.389l-.449,1.142-1.721,4.351-6.2,15.634-.015.038-.038-.015-26.9-10.7-.045-.018.018-.045v0l8.565-21.5.016-.041.041.016,19.447,7.766,5.489,2.2,1.448.582.37.15C292.339,180,292.379,180.015,292.379,180.015Z" transform="translate(-256.861 -169.25)" fill="#e0e0e0"/>
            </g>
          </g>
        </g>
        <rect id="Rectangle_350" data-name="Rectangle 350" width="20.229" height="26.914" transform="matrix(0.37, -0.929, 0.929, 0.37, 1.513, 20.592)" fill="#ebebeb"/>
        <path id="Path_2915" data-name="Path 2915" d="M260.2,203.233l13.385-8.205,2.5,9.463,5.225-2.446,3.9,11.144Z" transform="translate(-258.589 -182.583)" fill="#e0e0e0"/>
        <g id="Group_2312" data-name="Group 2312" transform="translate(19.185 11.179)">
          <g id="Group_2311" data-name="Group 2311">
            <path id="Path_2916" data-name="Path 2916" d="M300.689,195.309a2.119,2.119,0,1,1-1.185-2.753A2.119,2.119,0,0,1,300.689,195.309Z" transform="translate(-296.6 -192.405)" fill="#e0e0e0"/>
          </g>
        </g>
      </g>
      <g id="Group_2315" data-name="Group 2315" transform="translate(33.573 42.401)">
        <g id="Group_2314" data-name="Group 2314">
          <path id="Path_2917" data-name="Path 2917" d="M114.185,220.689a1.192,1.192,0,0,0,.573.095,1.032,1.032,0,0,0,.616-.308,5.983,5.983,0,0,0,.51-.832l3.131-5.465,1.042-1.808.555-.962a3.163,3.163,0,0,0,.255-.485.925.925,0,0,0,.014-.515.867.867,0,0,0-.278-.438,4.667,4.667,0,0,0-.5-.3l-1.074-.6-2.242-1.255-9.974-5.6a.9.9,0,0,0-1.173.293l-.749,1.28-1.469,2.522-2.779,4.766-.33.566a.952.952,0,0,0-.155.551.867.867,0,0,0,.2.518,1.531,1.531,0,0,0,.478.336l2.109,1.193,3.784,2.145,5.469,3.122,1.481.86.382.229a.076.076,0,1,1-.013.022l-.394-.207-1.5-.819-5.509-3.052-3.8-2.118-2.115-1.182a1.724,1.724,0,0,1-.542-.385,1.092,1.092,0,0,1-.25-.652,1.182,1.182,0,0,1,.183-.676l.328-.567,2.766-4.773,1.465-2.523.758-1.3a1.156,1.156,0,0,1,1.5-.37l9.964,5.615,2.236,1.264,1.071.605a4.6,4.6,0,0,1,.53.322,1.074,1.074,0,0,1,.343.547,1.13,1.13,0,0,1-.021.631,3.213,3.213,0,0,1-.276.523l-.561.958-1.056,1.8-3.2,5.424a5.618,5.618,0,0,1-.541.836,1.077,1.077,0,0,1-.664.306.979.979,0,0,1-.445-.07A.521.521,0,0,1,114.185,220.689Z" transform="translate(-99.933 -201.862)" fill="#e0e0e0"/>
        </g>
        <path id="Path_2918" data-name="Path 2918" d="M120.094,218.042l1.217,2.161-2.51.046-2.51.046,1.293-2.207,1.293-2.207Z" transform="translate(-108.393 -209.113)" fill="#e0e0e0"/>
      </g>
    </g>
    <g id="Table" transform="translate(33.133 257.28)">
      <g id="Group_2317" data-name="Group 2317" transform="translate(0)">
        <g id="Group_2316" data-name="Group 2316">
          <path id="Path_2919" data-name="Path 2919" d="M242.328,410.876c0,.073-46.176.133-103.124.133-56.969,0-103.135-.06-103.135-.133s46.166-.134,103.135-.134C196.152,410.742,242.328,410.8,242.328,410.876Z" transform="translate(-36.069 -410.742)" fill="#263238"/>
        </g>
      </g>
    </g>
    <g id="Character" transform="translate(54.545 137.424)">
      <g id="Group_2371" data-name="Group 2371" transform="translate(0 0)">
        <g id="Group_2335" data-name="Group 2335" transform="translate(0 52.223)">
          <path id="Path_2920" data-name="Path 2920" d="M126.2,307.746,111.617,293.1l7.33-13.462c7.33-9.382,22.844-8.777,22.844-8.777a88.925,88.925,0,0,1,22.881,1.381C176.995,274.645,176,282.8,176,282.8l1.651,30.208,1.769,24.6-45.452.916L126.2,307.746" transform="translate(-96.557 -270.652)" fill="#9e1f64"/>
          <path id="Path_2921" data-name="Path 2921" d="M134.545,354.009l-40.71.5A13.234,13.234,0,0,1,81.71,335.614l17.407-32.282,15.855,10.718L104.157,336.5l32.957.588Z" transform="translate(-80.422 -287.555)" fill="#9e1f64"/>
          <path id="Path_2922" data-name="Path 2922" d="M241.965,285.659l32.67,50.44-19.06,1.247s-11.382-17.937-11.125-17.566C244.916,320.451,241.965,285.659,241.965,285.659Z" transform="translate(-163.975 -278.414)" fill="#9e1f64"/>
          <path id="Path_2923" data-name="Path 2923" d="M139.137,351.976" transform="translate(-110.79 -312.714)" fill="#e8505b"/>
          <g id="Group_2318" data-name="Group 2318" transform="translate(28.356 6.212)">
            <path id="Path_2924" data-name="Path 2924" d="M144.535,306.7a1,1,0,0,1,.045-.259c.046-.195.1-.436.173-.731.151-.634.37-1.552.6-2.693s.472-2.508.639-4.036a21.311,21.311,0,0,0,.017-4.975,13.11,13.11,0,0,0-1.686-4.643A18.736,18.736,0,0,0,141.9,286.1a22.972,22.972,0,0,0-1.978-1.913,10.086,10.086,0,0,1-.763-.666,1.024,1.024,0,0,1,.222.141c.139.1.351.242.6.45a19.165,19.165,0,0,1,2.046,1.867,18.013,18.013,0,0,1,2.5,3.269,13.075,13.075,0,0,1,1.736,4.725,20.825,20.825,0,0,1-.036,5.035,40.814,40.814,0,0,1-.7,4.047c-.253,1.14-.5,2.054-.68,2.681-.09.314-.165.556-.219.719A1.051,1.051,0,0,1,144.535,306.7Z" transform="translate(-139.157 -283.52)" fill="#263238"/>
          </g>
          <g id="Group_2319" data-name="Group 2319" transform="translate(23.68 31.133)">
            <path id="Path_2925" data-name="Path 2925" d="M138.215,335.139a4.7,4.7,0,0,1-.28.73c-.2.463-.488,1.129-.856,1.948-.737,1.639-1.787,3.888-2.995,6.349s-2.345,4.669-3.19,6.254c-.422.793-.77,1.431-1.017,1.869a4.618,4.618,0,0,1-.406.668,4.629,4.629,0,0,1,.319-.713l.946-1.906,3.122-6.283,3.06-6.313.928-1.914A4.6,4.6,0,0,1,138.215,335.139Z" transform="translate(-129.47 -335.139)" fill="#263238"/>
          </g>
          <g id="Group_2320" data-name="Group 2320" transform="translate(14.441 48.729)">
            <path id="Path_2926" data-name="Path 2926" d="M150.016,389.312a.308.308,0,0,1,0-.085c.006-.067.012-.148.02-.248.024-.234.056-.554.1-.962.094-.857.229-2.082.4-3.622.36-3.12.868-7.517,1.466-12.7l.114.128-12.026.011-21.039-.037-6.376-.04-1.733-.024-.451-.012a.077.077,0,1,1,0-.026l.451-.013,1.733-.023,6.376-.04,21.039-.037,12.026.011h.13l-.016.128c-.635,5.175-1.174,9.568-1.557,12.686l-.463,3.614c-.056.406-.1.725-.132.958l-.039.246A.3.3,0,0,1,150.016,389.312Z" transform="translate(-110.334 -371.586)" fill="#263238"/>
          </g>
          <g id="Group_2321" data-name="Group 2321" transform="translate(17.332 43.633)">
            <path id="Path_2927" data-name="Path 2927" d="M123.012,366.684a11.588,11.588,0,0,1-.813-1.018,15.868,15.868,0,0,0-4.739-4,11.62,11.62,0,0,1-1.139-.631,4.756,4.756,0,0,1,1.221.473,13.047,13.047,0,0,1,4.8,4.052A4.78,4.78,0,0,1,123.012,366.684Z" transform="translate(-116.321 -361.03)" fill="#263238"/>
          </g>
          <g id="Group_2322" data-name="Group 2322" transform="translate(79.23 11.077)">
            <path id="Path_2928" data-name="Path 2928" d="M247.075,335a2.647,2.647,0,0,1-.064-.417q-.051-.445-.136-1.2c-.112-1.044-.261-2.556-.422-4.426-.33-3.74-.711-8.913-1.051-14.631s-.575-10.9-.711-14.653c-.07-1.876-.114-3.394-.138-4.444q-.012-.761-.02-1.209a2.628,2.628,0,0,1,.01-.422,2.671,2.671,0,0,1,.041.42q.025.448.067,1.207c.053,1.072.126,2.583.217,4.44.181,3.749.446,8.928.784,14.646s.692,10.89.977,14.632c.143,1.853.26,3.361.342,4.432q.056.759.089,1.206A2.6,2.6,0,0,1,247.075,335Z" transform="translate(-244.533 -293.596)" fill="#263238"/>
          </g>
          <g id="Group_2323" data-name="Group 2323" transform="translate(40.199 11.948)">
            <path id="Path_2929" data-name="Path 2929" d="M168.919,308.487a4.068,4.068,0,0,1,.052-.66c.056-.46.13-1.073.221-1.826l.838-6.3.187.115L167.093,302l-3.178,2.21-.229.159.042-.275c.383-2.506.714-4.669.956-6.248l.3-1.8a4.091,4.091,0,0,1,.134-.643,3.975,3.975,0,0,1-.055.655c-.057.457-.134,1.065-.229,1.812-.219,1.583-.519,3.75-.867,6.262l-.187-.115,3.171-2.22,3.13-2.177.227-.158-.04.273c-.372,2.523-.693,4.7-.927,6.292-.12.749-.217,1.359-.29,1.817A4.149,4.149,0,0,1,168.919,308.487Z" transform="translate(-163.687 -295.4)" fill="#e0e0e0"/>
          </g>
          <g id="Group_2324" data-name="Group 2324" transform="translate(51.103 20.154)">
            <path id="Path_2930" data-name="Path 2930" d="M198.77,319.237a4.006,4.006,0,0,1-.474-.462l-1.263-1.337-4.313-4.674.208-.07c-.1,1.183-.2,2.467-.315,3.8-.116,1.353-.228,2.657-.331,3.856l-.024.278-.184-.208-4.194-4.729-1.2-1.381a4.027,4.027,0,0,1-.409-.514,4.021,4.021,0,0,1,.468.461l1.248,1.334,4.261,4.669-.208.07c.1-1.2.207-2.5.319-3.857.114-1.332.225-2.616.326-3.8l.024-.276.184.206,4.247,4.735,1.212,1.384A4.146,4.146,0,0,1,198.77,319.237Z" transform="translate(-186.274 -312.397)" fill="#e0e0e0"/>
          </g>
          <g id="Group_2325" data-name="Group 2325" transform="translate(67.643 26.347)">
            <path id="Path_2931" data-name="Path 2931" d="M225.636,325.225a4.173,4.173,0,0,1-.328.574l-.977,1.558-3.444,5.347-.121-.183,3.757-.648,3.817-.646.275-.046-.155.231-3.526,5.246-1.037,1.5a4.058,4.058,0,0,1-.395.524,3.936,3.936,0,0,1,.328-.569l.979-1.542,3.451-5.3.12.184-3.814.658-3.759.637-.273.046.153-.23,3.519-5.3,1.036-1.52A4.047,4.047,0,0,1,225.636,325.225Z" transform="translate(-220.533 -325.225)" fill="#e0e0e0"/>
          </g>
          <g id="Group_2326" data-name="Group 2326" transform="translate(55.483 35.701)">
            <path id="Path_2932" data-name="Path 2932" d="M200.447,344.6a4.013,4.013,0,0,1-.328.575l-.977,1.558-3.444,5.347-.121-.184,3.757-.648,3.817-.646.275-.046-.155.23-3.526,5.246-1.037,1.5a3.96,3.96,0,0,1-.4.524,4.048,4.048,0,0,1,.329-.569l.979-1.542,3.451-5.3.12.184-3.814.658-3.759.637-.273.046.153-.23,3.519-5.3,1.036-1.52A4.176,4.176,0,0,1,200.447,344.6Z" transform="translate(-195.345 -344.601)" fill="#e0e0e0"/>
          </g>
          <g id="Group_2327" data-name="Group 2327" transform="translate(81.756 26.214)">
            <path id="Path_2933" data-name="Path 2933" d="M254.869,324.95a4.077,4.077,0,0,1-.328.575l-.978,1.558-3.444,5.347-.12-.184,3.757-.648,3.816-.646.275-.046-.155.23-3.527,5.246-1.037,1.5a4.025,4.025,0,0,1-.4.524,4.062,4.062,0,0,1,.328-.569l.979-1.542,3.451-5.3.12.184-3.814.658-3.76.637-.273.046.153-.23,3.519-5.3,1.036-1.52A4.059,4.059,0,0,1,254.869,324.95Z" transform="translate(-249.766 -324.95)" fill="#e0e0e0"/>
          </g>
          <g id="Group_2328" data-name="Group 2328" transform="translate(20.227 18.486)">
            <path id="Path_2934" data-name="Path 2934" d="M127.42,308.943a4.014,4.014,0,0,1-.328.575l-.977,1.558-3.444,5.347-.121-.184,3.757-.648,3.817-.646.275-.046-.155.23-3.526,5.246-1.037,1.5a3.963,3.963,0,0,1-.4.525,4.043,4.043,0,0,1,.329-.569l.979-1.542,3.451-5.3.12.184-3.814.658-3.759.637-.273.046.153-.23,3.519-5.3,1.036-1.52A4.119,4.119,0,0,1,127.42,308.943Z" transform="translate(-122.318 -308.943)" fill="#e0e0e0"/>
          </g>
          <g id="Group_2329" data-name="Group 2329" transform="translate(6.242 53.604)">
            <path id="Path_2935" data-name="Path 2935" d="M93.351,382.664a4.065,4.065,0,0,1,.445.491l1.177,1.413,4.012,4.935-.212.057c.172-1.175.358-2.45.551-3.773.2-1.344.394-2.637.572-3.828l.042-.276.171.219L104,386.884l1.107,1.453a3.991,3.991,0,0,1,.376.539,4.072,4.072,0,0,1-.438-.489l-1.162-1.41-3.961-4.926.212-.056-.56,3.83-.563,3.771-.041.274-.171-.217-3.942-4.991-1.123-1.457A4.117,4.117,0,0,1,93.351,382.664Z" transform="translate(-93.351 -381.683)" fill="#e0e0e0"/>
          </g>
          <g id="Group_2330" data-name="Group 2330" transform="translate(37.805 31.203)">
            <path id="Path_2936" data-name="Path 2936" d="M170.758,335.292a4.088,4.088,0,0,1-.656.084l-1.833.158-6.342.473L162,335.8l2.781,2.609,2.815,2.657.2.192-.277.015-6.312.346-1.825.078a3.989,3.989,0,0,1-.657,0,4.036,4.036,0,0,1,.652-.08l1.821-.148,6.306-.436-.075.207-2.823-2.648-2.773-2.617-.2-.19.276-.016,6.348-.383,1.837-.089A4.129,4.129,0,0,1,170.758,335.292Z" transform="translate(-158.729 -335.283)" fill="#e0e0e0"/>
          </g>
          <g id="Group_2331" data-name="Group 2331" transform="translate(39.136 54.435)">
            <path id="Path_2937" data-name="Path 2937" d="M161.486,384.514a4.133,4.133,0,0,1,.454.481l1.2,1.39,4.108,4.855-.21.062.477-3.783.5-3.839.036-.277.175.216,3.987,4.905,1.136,1.43a4.075,4.075,0,0,1,.386.532,4,4,0,0,1-.448-.48l-1.189-1.387-4.057-4.848.211-.061c-.151,1.195-.314,2.493-.485,3.84-.171,1.326-.337,2.6-.489,3.782l-.035.275-.176-.213-4.039-4.913-1.151-1.434A4.024,4.024,0,0,1,161.486,384.514Z" transform="translate(-161.486 -383.404)" fill="#e0e0e0"/>
          </g>
          <g id="Group_2332" data-name="Group 2332" transform="translate(7.988 37.69)">
            <path id="Path_2938" data-name="Path 2938" d="M109,348.73a4.092,4.092,0,0,1-.656.085l-1.833.158-6.342.473.074-.207,2.781,2.609,2.815,2.657.2.191-.278.015-6.311.346-1.825.078a4.056,4.056,0,0,1-.657,0,4.052,4.052,0,0,1,.652-.081l1.821-.147,6.307-.436-.075.207-2.823-2.648-2.773-2.617-.2-.19.276-.017,6.349-.383,1.837-.089A4.054,4.054,0,0,1,109,348.73Z" transform="translate(-96.968 -348.721)" fill="#e0e0e0"/>
          </g>
          <g id="Group_2333" data-name="Group 2333" transform="translate(24.414 54.988)">
            <path id="Path_2939" data-name="Path 2939" d="M143.02,384.559a4.089,4.089,0,0,1-.656.085l-1.833.158-6.342.473.074-.207,2.781,2.608,2.815,2.657.2.191-.277.015-6.312.346-1.825.079a4.065,4.065,0,0,1-.657,0,4.063,4.063,0,0,1,.652-.081l1.821-.148,6.306-.435-.075.207-2.823-2.648-2.773-2.617-.2-.19.276-.017,6.348-.383,1.837-.089A4.05,4.05,0,0,1,143.02,384.559Z" transform="translate(-130.991 -384.55)" fill="#e0e0e0"/>
          </g>
          <g id="Group_2334" data-name="Group 2334" transform="translate(61.497 10.979)">
            <path id="Path_2940" data-name="Path 2940" d="M219.831,293.4a4.03,4.03,0,0,1-.657.084l-1.832.159-6.343.473.074-.207,2.781,2.608,2.815,2.657.2.192-.277.015-6.312.346-1.825.078a4.091,4.091,0,0,1-.657,0,3.98,3.98,0,0,1,.652-.081l1.821-.148,6.306-.435-.074.206-2.823-2.648-2.774-2.617-.2-.19.276-.016,6.349-.383,1.837-.089A4.105,4.105,0,0,1,219.831,293.4Z" transform="translate(-207.802 -293.392)" fill="#e0e0e0"/>
          </g>
        </g>
        <g id="Group_2339" data-name="Group 2339" transform="translate(54.392 104.174)">
          <path id="Path_2941" data-name="Path 2941" d="M194.181,381.305s8.123-2.34,10.811-3.026c1.048-.267,5.535,2.1,8.634,4.067,0,0,4.268,2.53,3.923,3.31-.38.858-1.954.682-4.463-.5,0,0,.875,2.543-.843,2.488,0,0,.853,2.748-.758,3.032s-1.99-3.222-3.411-3.411-4.359-.379-4.359-.379-2.446,4.051-4.342,4.335a35.573,35.573,0,0,1-6.287-.228Z" transform="translate(-193.085 -378.259)" fill="#ffbe9d"/>
          <g id="Group_2336" data-name="Group 2336" transform="translate(14.959 3.602)">
            <path id="Path_2942" data-name="Path 2942" d="M224.072,385.725a27.059,27.059,0,0,1,4.4,2.777,27,27,0,0,1-4.4-2.777Z" transform="translate(-224.071 -385.721)" fill="#eb996e"/>
          </g>
          <g id="Group_2337" data-name="Group 2337" transform="translate(14.479 5.163)">
            <path id="Path_2943" data-name="Path 2943" d="M223.077,388.959a33.76,33.76,0,0,1,5.282,2.438,33.651,33.651,0,0,1-5.282-2.438Z" transform="translate(-223.077 -388.954)" fill="#eb996e"/>
          </g>
          <g id="Group_2338" data-name="Group 2338" transform="translate(15.349 8.926)">
            <path id="Path_2944" data-name="Path 2944" d="M224.879,396.778a13.4,13.4,0,0,1,3.632.5,13.451,13.451,0,0,1-3.632-.5Z" transform="translate(-224.879 -396.749)" fill="#eb996e"/>
          </g>
        </g>
        <g id="Group_2370" data-name="Group 2370" transform="translate(38.228)">
          <g id="Group_2364" data-name="Group 2364">
            <path id="Path_2945" data-name="Path 2945" d="M166.3,185.912a1.669,1.669,0,0,1-2.352,1.974c-1.1-.558-1.24-2.076-1.023-3.292s.63-2.511.12-3.635a8.26,8.26,0,0,0-1.893-2.081,5.327,5.327,0,0,1-1.479-4.518,4.478,4.478,0,0,1,3.079-3.521c1.617-.452,3.61.045,4.814-1.126.872-.848.926-2.239,1.6-3.251,1.048-1.572,3.264-1.822,5.136-1.566s3.778.856,5.611.4c1.531-.381,2.788-1.45,4.223-2.107A8.27,8.27,0,0,1,194.9,174.543a5.287,5.287,0,0,1-2.566,2.538" transform="translate(-159.604 -162.48)" fill="#263238"/>
            <g id="Group_2355" data-name="Group 2355" transform="translate(6.139 9.755)">
              <g id="Group_2354" data-name="Group 2354">
                <g id="Group_2353" data-name="Group 2353">
                  <g id="Group_2340" data-name="Group 2340">
                    <path id="Path_2946" data-name="Path 2946" d="M182.191,236.241h0a9.307,9.307,0,0,0,9.3-9.436l-.123-8.875s7.456-.747,7.95-8.133.137-24.431.137-24.431h0a25.728,25.728,0,0,0-25.99,1.838l-1.141.784.555,39.079A9.307,9.307,0,0,0,182.191,236.241Z" transform="translate(-172.32 -182.687)" fill="#ffbe9d"/>
                  </g>
                  <g id="Group_2344" data-name="Group 2344" transform="translate(22.885 12.543)">
                    <g id="Group_2341" data-name="Group 2341" transform="translate(1.309 1.309)">
                      <path id="Path_2947" data-name="Path 2947" d="M223.413,213.585a1.106,1.106,0,0,1,.012-2.2.5.5,0,0,1,.18,0,1.106,1.106,0,0,1-.013,2.2A.5.5,0,0,1,223.413,213.585Z" transform="translate(-222.434 -211.379)" fill="#263238"/>
                    </g>
                    <g id="Group_2343" data-name="Group 2343">
                      <g id="Group_2342" data-name="Group 2342">
                        <path id="Path_2948" data-name="Path 2948" d="M223.46,209.825c-.123.122-.818-.477-1.836-.537s-1.785.425-1.891.289c-.052-.061.076-.286.412-.514a2.514,2.514,0,0,1,2.974.2C223.423,209.532,223.519,209.771,223.46,209.825Z" transform="translate(-219.722 -208.668)" fill="#263238"/>
                      </g>
                    </g>
                  </g>
                  <g id="Group_2348" data-name="Group 2348" transform="translate(11.778 12.837)">
                    <g id="Group_2345" data-name="Group 2345" transform="translate(1.38 0.92)">
                      <path id="Path_2949" data-name="Path 2949" d="M201.261,211.374a1.075,1.075,0,1,1-1.5.271A1.074,1.074,0,0,1,201.261,211.374Z" transform="translate(-199.574 -211.182)" fill="#263238"/>
                    </g>
                    <g id="Group_2347" data-name="Group 2347">
                      <g id="Group_2346" data-name="Group 2346">
                        <path id="Path_2950" data-name="Path 2950" d="M200.454,210.434c-.123.122-.818-.476-1.836-.536-1.017-.076-1.785.425-1.891.288-.052-.061.076-.286.412-.513a2.513,2.513,0,0,1,2.974.2C200.416,210.141,200.513,210.38,200.454,210.434Z" transform="translate(-196.716 -209.277)" fill="#263238"/>
                      </g>
                    </g>
                  </g>
                  <g id="Group_2350" data-name="Group 2350" transform="translate(19.003 13.731)">
                    <g id="Group_2349" data-name="Group 2349">
                      <path id="Path_2951" data-name="Path 2951" d="M211.819,220.013a4.945,4.945,0,0,1,1.666-.259c.268-.014.48-.063.507-.205a1.455,1.455,0,0,0-.149-.773l-.692-2.113a28.381,28.381,0,0,1-1.447-5.533,28.329,28.329,0,0,1,2,5.358l.649,2.127a1.7,1.7,0,0,1,.085,1.115.7.7,0,0,1-.482.4,1.7,1.7,0,0,1-.457.034A4.945,4.945,0,0,1,211.819,220.013Z" transform="translate(-211.681 -211.13)" fill="#263238"/>
                    </g>
                  </g>
                  <g id="Group_2351" data-name="Group 2351" transform="translate(15.685 23.56)">
                    <path id="Path_2952" data-name="Path 2952" d="M204.9,231.487a19.1,19.1,0,0,0,4.914,1.723,2.817,2.817,0,0,1-3.381.939C204.26,233.219,204.9,231.487,204.9,231.487Z" transform="translate(-204.808 -231.487)" fill="#fff"/>
                  </g>
                  <g id="Group_2352" data-name="Group 2352" transform="translate(9.575 31.873)">
                    <path id="Path_2953" data-name="Path 2953" d="M201.641,251.97a17.212,17.212,0,0,1-9.487-3.264s1.988,5.444,9.4,5.18Z" transform="translate(-192.154 -248.706)" fill="#eb996e"/>
                  </g>
                </g>
              </g>
            </g>
            <path id="Path_2954" data-name="Path 2954" d="M197.495,185.149s-4.461,2.268-10.379-.544c-3.884-1.845-8.385-2.7-9.358-1.9s-1.105,4.76-4.893,5.991c0,0,.408,7.556-2.611,7.345s-1.363-11.958-1.363-11.958l7.3-3.745,8.018-1.677,7.6.922,5.9,1.493Z" transform="translate(-164.173 -170.847)" fill="#263238"/>
            <g id="Group_2359" data-name="Group 2359" transform="translate(1.519 22.433)">
              <g id="Group_2356" data-name="Group 2356">
                <path id="Path_2955" data-name="Path 2955" d="M167.864,209.275c-.123-.061-5-1.779-5.111,3.283s4.992,4.133,5,3.988S167.864,209.275,167.864,209.275Z" transform="translate(-162.751 -208.946)" fill="#ffbe9d"/>
              </g>
              <g id="Group_2358" data-name="Group 2358" transform="translate(1.285 1.621)">
                <g id="Group_2357" data-name="Group 2357">
                  <path id="Path_2956" data-name="Path 2956" d="M167.63,216.33c-.022-.017-.09.06-.24.125a.883.883,0,0,1-.659,0,2.182,2.182,0,0,1-.966-1.98,2.907,2.907,0,0,1,.275-1.257,1.021,1.021,0,0,1,.679-.662.45.45,0,0,1,.515.253c.065.143.03.244.057.253s.111-.083.074-.293a.563.563,0,0,0-.192-.322.667.667,0,0,0-.485-.14,1.24,1.24,0,0,0-.939.764,2.993,2.993,0,0,0-.337,1.4,2.291,2.291,0,0,0,1.237,2.215.945.945,0,0,0,.81-.116C167.619,216.452,167.648,216.34,167.63,216.33Z" transform="translate(-165.412 -212.303)" fill="#eb996e"/>
                </g>
              </g>
            </g>
            <g id="Group_2360" data-name="Group 2360" transform="translate(4.054 6.782)">
              <path id="Path_2957" data-name="Path 2957" d="M168,176.66a2.793,2.793,0,0,1,3.126,1.166A4.769,4.769,0,0,0,168,176.66Z" transform="translate(-168.003 -176.529)" fill="#263238"/>
            </g>
            <g id="Group_2361" data-name="Group 2361" transform="translate(6.913 3.881)">
              <path id="Path_2958" data-name="Path 2958" d="M174.111,170.52c.089.005-.05,1.067.127,2.334a9.991,9.991,0,0,0,.707,2.206c-.024.017-.209-.18-.425-.559a4.751,4.751,0,0,1-.531-1.609A5.266,5.266,0,0,1,174.111,170.52Z" transform="translate(-173.924 -170.52)" fill="#263238"/>
            </g>
            <g id="Group_2362" data-name="Group 2362" transform="translate(27.899 20.318)">
              <path id="Path_2959" data-name="Path 2959" d="M217.4,205.271c-.027-.059.19-.234.6-.4a4.624,4.624,0,0,1,3.388.034c.407.176.62.354.592.413-.062.134-1.037-.247-2.288-.249C218.437,205.045,217.455,205.406,217.4,205.271Z" transform="translate(-217.393 -204.565)" fill="#263238"/>
            </g>
            <g id="Group_2363" data-name="Group 2363" transform="translate(16.611 19.253)">
              <path id="Path_2960" data-name="Path 2960" d="M194.014,203.065c-.027-.059.19-.234.6-.4A4.622,4.622,0,0,1,198,202.7c.407.176.621.354.593.413-.062.134-1.037-.247-2.288-.249C195.055,202.839,194.073,203.2,194.014,203.065Z" transform="translate(-194.011 -202.359)" fill="#263238"/>
            </g>
          </g>
          <g id="Group_2369" data-name="Group 2369" transform="translate(5.963 21.452)">
            <g id="Group_2365" data-name="Group 2365" transform="translate(20.994 0.25)">
              <path id="Path_2961" data-name="Path 2961" d="M215.515,207.55a2.3,2.3,0,0,1,.019.3c.006.214.014.485.024.817.008.359.016.782.027,1.267a4.8,4.8,0,0,0,.241,1.642,4.392,4.392,0,0,0,1.067,1.687,4.3,4.3,0,0,0,2,1.1,4.079,4.079,0,0,0,1.234.108,3.962,3.962,0,0,0,1.263-.266,4.257,4.257,0,0,0,2.082-1.684,4.338,4.338,0,0,0,.679-2.471c0-.864,0-1.7.007-2.494l.116.116L218,207.61l-1.819-.031-.492-.014a.951.951,0,0,1-.179-.014,5.127,5.127,0,0,1,.62-.028l1.793-.032,6.342-.056h.117v.118c0,.8,0,1.63.007,2.494a4.562,4.562,0,0,1-.714,2.607,4.482,4.482,0,0,1-2.207,1.779,4.2,4.2,0,0,1-1.337.276,4.3,4.3,0,0,1-1.3-.123,4.484,4.484,0,0,1-2.088-1.173,4.541,4.541,0,0,1-1.09-1.78,4.846,4.846,0,0,1-.212-1.71q.014-.747.026-1.3c.01-.327.018-.594.025-.806A1.33,1.33,0,0,1,215.515,207.55Z" transform="translate(-215.441 -207.432)" fill="#263238"/>
            </g>
            <g id="Group_2366" data-name="Group 2366" transform="translate(9.158)">
              <path id="Path_2962" data-name="Path 2962" d="M191,207.033a2.192,2.192,0,0,1,.019.3l.025.817q.011.539.026,1.267a4.81,4.81,0,0,0,.241,1.642,4.4,4.4,0,0,0,1.067,1.687,4.3,4.3,0,0,0,2,1.1,4.1,4.1,0,0,0,1.235.108,3.975,3.975,0,0,0,1.263-.266A4.259,4.259,0,0,0,198.952,212a4.334,4.334,0,0,0,.678-2.471c0-.864,0-1.7.007-2.495l.117.117-6.265-.057-1.82-.031-.492-.014a1.02,1.02,0,0,1-.179-.014,5.153,5.153,0,0,1,.62-.028l1.793-.032,6.342-.057h.116v.118c0,.8,0,1.631.007,2.495a4.571,4.571,0,0,1-.714,2.607,4.486,4.486,0,0,1-2.207,1.779,4.192,4.192,0,0,1-1.337.275,4.272,4.272,0,0,1-1.3-.123,4.484,4.484,0,0,1-2.088-1.173,4.535,4.535,0,0,1-1.089-1.779,4.847,4.847,0,0,1-.212-1.71c.01-.5.019-.932.027-1.3.01-.328.018-.594.024-.806A1.428,1.428,0,0,1,191,207.033Z" transform="translate(-190.925 -206.915)" fill="#263238"/>
            </g>
            <g id="Group_2367" data-name="Group 2367" transform="translate(17.84 0.594)">
              <path id="Path_2963" data-name="Path 2963" d="M212.242,208.271a11.087,11.087,0,0,1-3.334,0,11.13,11.13,0,0,1,3.334,0Z" transform="translate(-208.908 -208.145)" fill="#263238"/>
            </g>
            <g id="Group_2368" data-name="Group 2368" transform="translate(0 0.645)">
              <path id="Path_2964" data-name="Path 2964" d="M171.955,208.392a42.481,42.481,0,0,1,4.615-.14,42.631,42.631,0,0,1,4.616.112,42.393,42.393,0,0,1-4.616.14A42.406,42.406,0,0,1,171.955,208.392Z" transform="translate(-171.955 -208.251)" fill="#263238"/>
            </g>
          </g>
        </g>
      </g>
    </g>
    <g id="Shield" transform="translate(159.481 160.498)">
      <g id="Group_2379" data-name="Group 2379">
        <g id="Group_2376" data-name="Group 2376">
          <g id="Group_2373" data-name="Group 2373">
            <g id="Group_2372" data-name="Group 2372">
              <path id="Path_2965" data-name="Path 2965" d="M329.793,215.436l-14.372-5.161-14.232,5.091c-1.817.858-3.411,1.372-3.411,3.065v8.427a31.853,31.853,0,0,0,4.688,16.772,29.184,29.184,0,0,0,13.094,11.565c5.818-1.89,10.16-6.927,12.815-11.236a31.853,31.853,0,0,0,4.688-16.772v-7.579A3.976,3.976,0,0,0,329.793,215.436Z" transform="translate(-297.778 -210.275)" fill="#ec1b24"/>
            </g>
          </g>
          <g id="Group_2374" data-name="Group 2374" opacity="0.3">
            <path id="Path_2966" data-name="Path 2966" d="M315.561,250.3a23.211,23.211,0,0,1-10.36-9.224,25.2,25.2,0,0,1-3.709-13.27V221.9a3.728,3.728,0,0,1,2.412-3.342l11.52-4.307,0-3.974-14.232,5.091c-1.494.653-3.411,1.372-3.411,3.065v8.427a31.853,31.853,0,0,0,4.688,16.772,29.184,29.184,0,0,0,13.094,11.565Z" transform="translate(-297.778 -210.275)"/>
          </g>
          <g id="Group_2375" data-name="Group 2375" transform="translate(17.643)" opacity="0.4">
            <path id="Path_2967" data-name="Path 2967" d="M334.463,255.195a17.3,17.3,0,0,0,2.823-1.211,25.329,25.329,0,0,0,5.975-4.7,32.2,32.2,0,0,0,4.156-5.584,30.661,30.661,0,0,0,4.549-16.934l.009-6.958c-.009-3.464-1.786-3.72-3.28-4.373l-14.372-5.161,0,3.974,11.654,4.377a3.728,3.728,0,0,1,2.412,3.342v5.911a25.2,25.2,0,0,1-3.709,13.27,22.687,22.687,0,0,1-10.22,9.155Z" transform="translate(-334.323 -210.275)"/>
          </g>
        </g>
        <path id="Path_2968" data-name="Path 2968" d="M332.317,240.595l.016-1.137a3.731,3.731,0,0,0-7.463-.006l-.016,1.159a2.087,2.087,0,0,0-1.78,2.063v6.709a2.088,2.088,0,0,0,2.088,2.088h6.965a2.088,2.088,0,0,0,2.088-2.088v-6.709A2.088,2.088,0,0,0,332.317,240.595Zm-2.72,7.117h-1.822l.284-1.316a1.109,1.109,0,1,1,1.2-.021C329.392,246.885,329.6,247.712,329.6,247.712Zm1.917-7.127h-5.855l.015-1.128a2.928,2.928,0,0,1,5.855-.006Z" transform="translate(-310.862 -223.439)" fill="#fff" opacity="0.5"/>
        <g id="Group_2377" data-name="Group 2377" transform="translate(5.701 9.487)">
          <path id="Path_2969" data-name="Path 2969" d="M309.929,237.513a4.548,4.548,0,0,1-.215-1.167,19.981,19.981,0,0,1-.117-2.861c.016-.56.053-1.092.1-1.574a3.374,3.374,0,0,1,.321-1.272,1.459,1.459,0,0,1,.63-.632c.195-.09.316-.086.318-.072a1.626,1.626,0,0,0-.789.785,3.494,3.494,0,0,0-.249,1.213c-.038.479-.068,1.006-.084,1.56-.033,1.108,0,2.112.043,2.839A7.1,7.1,0,0,1,309.929,237.513Z" transform="translate(-309.587 -229.925)" fill="#fff"/>
        </g>
        <g id="Group_2378" data-name="Group 2378" transform="translate(6.112 19.191)">
          <path id="Path_2970" data-name="Path 2970" d="M310.58,251.578c-.069,0-.133-.345-.141-.773s.041-.777.11-.778.133.345.141.773S310.649,251.576,310.58,251.578Z" transform="translate(-310.438 -250.026)" fill="#fff"/>
        </g>
      </g>
    </g>
    <g id="Device" transform="translate(105.649 215.994)">
      <g id="Group_2380" data-name="Group 2380" transform="translate(0)">
        <path id="Path_2971" data-name="Path 2971" d="M231.2,325.225l-16.026,39.631h-28.9v1.789h86.068l17.6-41.42Z" transform="translate(-186.275 -325.225)" fill="#263238"/>
        <path id="Path_2972" data-name="Path 2972" d="M324.013,368.877c-.581,1.994-2.271,3.256-3.776,2.818s-2.255-2.41-1.674-4.4,2.271-3.256,3.777-2.818S324.594,366.882,324.013,368.877Z" transform="translate(-254.595 -345.479)" fill="#fafafa"/>
      </g>
    </g>
  </g>
</svg>
