<svg xmlns="http://www.w3.org/2000/svg" width="382" height="244" viewBox="0 0 382 244">
  <g id="reset-pass" transform="translate(85.337 -15.782)">
    <rect id="Rectangle_207" data-name="Rectangle 207" width="382" height="244" transform="translate(-85.337 15.782)" fill="#f8f8f5"/>
    <g id="Background_Complete" data-name="Background Complete" transform="translate(0 54.953)">
      <g id="Group_2382" data-name="Group 2382" transform="translate(0 0)">
        <rect id="Rectangle_351" data-name="Rectangle 351" width="204.326" height="0.102" transform="translate(0 133.811)" fill="#c2c2c2"/>
        <rect id="Rectangle_352" data-name="Rectangle 352" width="13.535" height="0.102" transform="translate(170.317 140.389)" fill="#c2c2c2"/>
        <rect id="Rectangle_353" data-name="Rectangle 353" width="3.553" height="0.102" transform="translate(131.801 141.498)" fill="#c2c2c2"/>
        <rect id="Rectangle_354" data-name="Rectangle 354" width="7.843" height="0.102" transform="translate(162.065 136.594)" fill="#c2c2c2"/>
        <rect id="Rectangle_355" data-name="Rectangle 355" width="17.651" height="0.102" transform="translate(21.437 137.281)" fill="#c2c2c2"/>
        <rect id="Rectangle_356" data-name="Rectangle 356" width="2.588" height="0.102" transform="translate(42.727 137.281)" fill="#c2c2c2"/>
        <rect id="Rectangle_357" data-name="Rectangle 357" width="38.281" height="0.102" transform="translate(53.726 139.006)" fill="#c2c2c2"/>
        <path id="Path_2973" data-name="Path 2973" d="M119.45,170.539H40.54a2.335,2.335,0,0,1-2.333-2.333V57.285a2.335,2.335,0,0,1,2.333-2.332h78.91a2.335,2.335,0,0,1,2.332,2.332V168.206A2.335,2.335,0,0,1,119.45,170.539ZM40.54,55.055a2.233,2.233,0,0,0-2.23,2.23V168.206a2.233,2.233,0,0,0,2.23,2.23h78.91a2.233,2.233,0,0,0,2.23-2.23V57.285a2.233,2.233,0,0,0-2.23-2.23Z" transform="translate(-22.594 -54.953)" fill="#c2c2c2"/>
        <path id="Path_2974" data-name="Path 2974" d="M335.747,170.539h-78.91a2.335,2.335,0,0,1-2.332-2.333V57.285a2.335,2.335,0,0,1,2.332-2.332h78.91a2.335,2.335,0,0,1,2.333,2.332V168.206A2.336,2.336,0,0,1,335.747,170.539ZM256.837,55.055a2.233,2.233,0,0,0-2.23,2.23V168.206a2.233,2.233,0,0,0,2.23,2.23h78.91a2.233,2.233,0,0,0,2.231-2.23V57.285a2.233,2.233,0,0,0-2.231-2.23Z" transform="translate(-150.501 -54.953)" fill="#c2c2c2"/>
      </g>
      <g id="Group_2391" data-name="Group 2391" transform="translate(27.03 21.14)">
        <g id="Group_2387" data-name="Group 2387" transform="translate(0 31.486)">
          <rect id="Rectangle_358" data-name="Rectangle 358" width="63.968" height="81.003" fill="#f0f0f0"/>
          <g id="Group_2383" data-name="Group 2383" transform="translate(2.261 2.952)">
            <rect id="Rectangle_359" data-name="Rectangle 359" width="59.446" height="17.321" fill="#e0e0e0"/>
            <rect id="Rectangle_360" data-name="Rectangle 360" width="3.377" height="14.517" transform="translate(0 2.804)" fill="#ebebeb"/>
            <rect id="Rectangle_361" data-name="Rectangle 361" width="3.377" height="14.517" transform="translate(16.329 2.804)" fill="#ebebeb"/>
            <rect id="Rectangle_362" data-name="Rectangle 362" width="3.377" height="14.517" transform="translate(34.915 3.015) rotate(-9.778)" fill="#ebebeb"/>
            <rect id="Rectangle_363" data-name="Rectangle 363" width="3.377" height="12.604" transform="translate(4.184 4.717)" fill="#ebebeb"/>
            <rect id="Rectangle_364" data-name="Rectangle 364" width="3.377" height="12.604" transform="translate(11.946 4.717)" fill="#ebebeb"/>
            <rect id="Rectangle_365" data-name="Rectangle 365" width="3.377" height="12.604" transform="translate(31.538 4.717)" fill="#ebebeb"/>
            <rect id="Rectangle_366" data-name="Rectangle 366" width="3.377" height="12.604" transform="translate(20.845 5.017) rotate(-12.528)" fill="#ebebeb"/>
            <rect id="Rectangle_367" data-name="Rectangle 367" width="1.689" height="15.238" transform="translate(8.793 2.083)" fill="#ebebeb"/>
            <rect id="Rectangle_368" data-name="Rectangle 368" width="1.688" height="15.238" transform="translate(28.879 2.083)" fill="#ebebeb"/>
          </g>
          <g id="Group_2384" data-name="Group 2384" transform="translate(2.261 23.016)">
            <rect id="Rectangle_369" data-name="Rectangle 369" width="59.446" height="17.321" transform="translate(59.446 17.321) rotate(180)" fill="#e0e0e0"/>
            <rect id="Rectangle_370" data-name="Rectangle 370" width="3.377" height="14.517" transform="translate(59.446 17.321) rotate(180)" fill="#ebebeb"/>
            <rect id="Rectangle_371" data-name="Rectangle 371" width="3.377" height="14.517" transform="translate(43.118 17.321) rotate(180)" fill="#ebebeb"/>
            <rect id="Rectangle_372" data-name="Rectangle 372" width="3.377" height="14.517" transform="translate(22.066 17.321) rotate(-170.221)" fill="#ebebeb"/>
            <rect id="Rectangle_373" data-name="Rectangle 373" width="3.377" height="12.604" transform="translate(55.262 17.321) rotate(180)" fill="#ebebeb"/>
            <rect id="Rectangle_374" data-name="Rectangle 374" width="3.377" height="12.604" transform="translate(47.5 17.321) rotate(180)" fill="#ebebeb"/>
            <rect id="Rectangle_375" data-name="Rectangle 375" width="3.377" height="12.604" transform="translate(27.908 17.321) rotate(180)" fill="#ebebeb"/>
            <rect id="Rectangle_376" data-name="Rectangle 376" width="3.377" height="12.604" transform="translate(35.868 17.321) rotate(-167.472)" fill="#ebebeb"/>
            <rect id="Rectangle_377" data-name="Rectangle 377" width="1.688" height="15.238" transform="translate(50.653 17.321) rotate(180)" fill="#ebebeb"/>
            <rect id="Rectangle_378" data-name="Rectangle 378" width="1.688" height="15.238" transform="translate(30.567 17.321) rotate(180)" fill="#ebebeb"/>
            <rect id="Rectangle_379" data-name="Rectangle 379" width="3.377" height="14.517" transform="translate(0 2.804)" fill="#ebebeb"/>
            <rect id="Rectangle_380" data-name="Rectangle 380" width="3.377" height="12.604" transform="translate(4.184 4.717)" fill="#ebebeb"/>
            <rect id="Rectangle_381" data-name="Rectangle 381" width="3.377" height="12.604" transform="translate(11.946 4.717)" fill="#ebebeb"/>
            <rect id="Rectangle_382" data-name="Rectangle 382" width="1.689" height="15.238" transform="translate(8.793 2.083)" fill="#ebebeb"/>
          </g>
          <g id="Group_2386" data-name="Group 2386" transform="translate(2.046 43.08)">
            <rect id="Rectangle_383" data-name="Rectangle 383" width="59.446" height="17.321" transform="translate(0.215)" fill="#e0e0e0"/>
            <g id="Group_2385" data-name="Group 2385" transform="translate(0 2.083)">
              <rect id="Rectangle_384" data-name="Rectangle 384" width="3.377" height="14.517" transform="translate(34.335 0.721)" fill="#ebebeb"/>
              <rect id="Rectangle_385" data-name="Rectangle 385" width="3.377" height="14.517" transform="translate(52.921 0.932) rotate(-9.778)" fill="#ebebeb"/>
              <rect id="Rectangle_386" data-name="Rectangle 386" width="3.377" height="12.604" transform="translate(22.19 2.634)" fill="#ebebeb"/>
              <rect id="Rectangle_387" data-name="Rectangle 387" width="3.377" height="12.604" transform="translate(29.952 2.634)" fill="#ebebeb"/>
              <rect id="Rectangle_388" data-name="Rectangle 388" width="3.377" height="12.604" transform="translate(49.544 2.634)" fill="#ebebeb"/>
              <rect id="Rectangle_389" data-name="Rectangle 389" width="3.377" height="12.604" transform="translate(38.851 2.934) rotate(-12.528)" fill="#ebebeb"/>
              <rect id="Rectangle_390" data-name="Rectangle 390" width="1.688" height="15.238" transform="translate(26.799)" fill="#ebebeb"/>
              <rect id="Rectangle_391" data-name="Rectangle 391" width="1.689" height="15.238" transform="translate(46.885)" fill="#ebebeb"/>
              <rect id="Rectangle_392" data-name="Rectangle 392" width="3.377" height="14.517" transform="translate(14.07 0.932) rotate(-9.779)" fill="#ebebeb"/>
              <rect id="Rectangle_393" data-name="Rectangle 393" width="3.377" height="12.604" transform="translate(10.693 2.634)" fill="#ebebeb"/>
              <rect id="Rectangle_394" data-name="Rectangle 394" width="3.377" height="12.604" transform="translate(0 2.934) rotate(-12.528)" fill="#ebebeb"/>
              <rect id="Rectangle_395" data-name="Rectangle 395" width="1.688" height="15.238" transform="translate(8.034)" fill="#ebebeb"/>
            </g>
          </g>
        </g>
        <g id="Group_2388" data-name="Group 2388" transform="translate(75.779 64.138)">
          <path id="Path_2975" data-name="Path 2975" d="M295.039,263.633h36.049a7.08,7.08,0,0,1,7.08,7.08v28.15H287.959v-28.15A7.08,7.08,0,0,1,295.039,263.633Z" transform="translate(-273.094 -263.633)" fill="#e6e6e6"/>
          <path id="Path_2976" data-name="Path 2976" d="M255.789,314.689h6.451a4.207,4.207,0,0,1,4.207,4.207v23.28H251.582V318.9A4.207,4.207,0,0,1,255.789,314.689Z" transform="translate(-251.582 -293.825)" fill="#e0e0e0"/>
          <path id="Path_2977" data-name="Path 2977" d="M255.789,314.689h.136a4.207,4.207,0,0,1,4.207,4.207v23.28h-8.551V318.9A4.207,4.207,0,0,1,255.789,314.689Z" transform="translate(-251.582 -293.825)" fill="#ebebeb"/>
          <rect id="Rectangle_396" data-name="Rectangle 396" width="49.472" height="10.694" transform="translate(10.351 37.657)" fill="#e6e6e6"/>
          <rect id="Rectangle_397" data-name="Rectangle 397" width="56.266" height="11.219" rx="5.61" transform="translate(6.003 27.877)" fill="#f5f5f5"/>
          <rect id="Rectangle_398" data-name="Rectangle 398" width="14.472" height="11.219" rx="5.61" transform="translate(47.719 27.877)" fill="#e0e0e0" style="isolation: isolate"/>
          <path id="Path_2978" data-name="Path 2978" d="M388.775,314.689h6.451a4.207,4.207,0,0,1,4.207,4.207v23.28H384.568V318.9A4.207,4.207,0,0,1,388.775,314.689Z" transform="translate(-330.223 -293.825)" fill="#e0e0e0"/>
          <path id="Path_2979" data-name="Path 2979" d="M388.775,314.689h.136a4.207,4.207,0,0,1,4.207,4.207v23.28h-8.551V318.9A4.207,4.207,0,0,1,388.775,314.689Z" transform="translate(-330.223 -293.825)" fill="#f0f0f0"/>
        </g>
        <g id="Group_2389" data-name="Group 2389" transform="translate(21.786 1.1)">
          <circle id="Ellipse_48" data-name="Ellipse 48" cx="9.625" cy="9.625" r="9.625" transform="translate(0 3.084) rotate(-9.217)" fill="#e0e0e0"/>
          <circle id="Ellipse_49" data-name="Ellipse 49" cx="8.184" cy="8.184" r="8.184" transform="translate(1.654 4.275) rotate(-9.217)" fill="#f0f0f0"/>
          <path id="Path_2980" data-name="Path 2980" d="M140.048,141.858v-5.721l-3.791,2.145" transform="translate(-129.391 -125.201)" fill="#f0f0f0"/>
          <path id="Path_2980_-_Outline" data-name="Path 2980 - Outline" d="M140.048,142.858a1,1,0,0,1-1-1v-4.006l-2.3,1.3a1,1,0,0,1-.985-1.741l3.791-2.145a1,1,0,0,1,1.492.87v5.721A1,1,0,0,1,140.048,142.858Z" transform="translate(-129.391 -125.201)" fill="#e0e0e0"/>
        </g>
        <g id="Group_2390" data-name="Group 2390" transform="translate(86.516)">
          <rect id="Rectangle_399" data-name="Rectangle 399" width="61.605" height="54.665" fill="#e6e6e6"/>
          <rect id="Rectangle_400" data-name="Rectangle 400" width="58.441" height="51.698" transform="translate(1.543 1.498)" fill="#f0f0f0"/>
          <path id="Path_2981" data-name="Path 2981" d="M295.348,110.35l-13.715,51.585V137.7l7.241-27.346Z" transform="translate(-280.089 -108.852)" fill="#fff"/>
          <path id="Path_2982" data-name="Path 2982" d="M303.865,110.35l-13.836,51.7h-2.208l13.836-51.7Z" transform="translate(-283.749 -108.852)" fill="#fff"/>
          <path id="Path_2983" data-name="Path 2983" d="M417.394,190.178v8.261l-2.8,10.815h-2.208Z" transform="translate(-357.411 -156.058)" fill="#fff"/>
          <rect id="Rectangle_401" data-name="Rectangle 401" width="0.985" height="53.782" transform="translate(20.941 0.569)" fill="#e6e6e6"/>
          <rect id="Rectangle_402" data-name="Rectangle 402" width="0.985" height="53.782" transform="translate(40.02 0.569)" fill="#e6e6e6"/>
        </g>
      </g>
    </g>
    <g id="Shadow" transform="translate(22.93 197.965)">
      <ellipse id="_Path_" data-name="&lt;Path&gt;" cx="79.233" cy="4.627" rx="79.233" ry="4.627" fill="#dfdee1"/>
    </g>
    <g id="Plant" transform="translate(157.05 162.69)">
      <g id="Group_2393" data-name="Group 2393" transform="translate(0 0)">
        <path id="Path_2984" data-name="Path 2984" d="M398.318,348.276a10.241,10.241,0,0,0-.277-8.41c-2.218-4.175-2.861-5.159-1.447-6.014s2.062,3.34,2.062,3.34a9.426,9.426,0,0,0,.208-5.907c-.984-3.021-1.6-7.94-.257-8.468s.257,6.138,1.423,8.409a19.557,19.557,0,0,0,1.141-4.955c.161-2.426-.091-6.3.971-7.294s1.741-.306.7,5.048a55.988,55.988,0,0,0-1.036,9.706s2.3-7.023,3.849-7.228,1.544,2.069.221,4.042-3.875,5.507-4.294,7.325c0,0,2.528-5.285,4.8-3.666s-1.98,4.813-3.876,5.966-3.213,8.385-3.213,8.385Z" transform="translate(-391.132 -318.593)" fill="#407bff"/>
        <path id="Path_2985" data-name="Path 2985" d="M398.318,348.276a10.241,10.241,0,0,0-.277-8.41c-2.218-4.175-2.861-5.159-1.447-6.014s2.062,3.34,2.062,3.34a9.426,9.426,0,0,0,.208-5.907c-.984-3.021-1.6-7.94-.257-8.468s.257,6.138,1.423,8.409a19.557,19.557,0,0,0,1.141-4.955c.161-2.426-.091-6.3.971-7.294s1.741-.306.7,5.048a55.988,55.988,0,0,0-1.036,9.706s2.3-7.023,3.849-7.228,1.544,2.069.221,4.042-3.875,5.507-4.294,7.325c0,0,2.528-5.285,4.8-3.666s-1.98,4.813-3.876,5.966-3.213,8.385-3.213,8.385Z" transform="translate(-391.132 -318.593)" opacity="0.2" style="isolation: isolate"/>
        <path id="Path_2986" data-name="Path 2986" d="M393.257,352.433a10.242,10.242,0,0,1,.378-8.406c2.268-4.142,2.923-5.115,1.519-5.992s-2.1,3.309-2.1,3.309a9.429,9.429,0,0,1-.137-5.909c1.02-3.006,1.7-7.916.359-8.464s-.33,6.133-1.523,8.388a19.607,19.607,0,0,1-1.081-4.972c-.132-2.428.166-6.3-.883-7.308s-1.737-.332-.759,5.037a56.042,56.042,0,0,1,.919,9.721s-2.219-7.057-3.762-7.285-1.569,2.047-.269,4.039,3.809,5.564,4.206,7.389c0,0-2.465-5.322-4.759-3.737s1.922,4.842,3.8,6.023,3.112,8.432,3.112,8.432Z" transform="translate(-384.539 -321.013)" fill="#407bff"/>
        <g id="Group_2392" data-name="Group 2392" transform="translate(0 28.381)">
          <path id="Path_2987" data-name="Path 2987" d="M384.313,388.043h15.615l-1.264,11.174H385.577Z" transform="translate(-384.313 -388.043)" fill="#263238"/>
        </g>
      </g>
    </g>
    <g id="Device" transform="translate(30.212 106.258)">
      <g id="Group_2412" data-name="Group 2412">
        <g id="Group_2394" data-name="Group 2394" transform="translate(24.986 60.492)">
          <path id="Path_2988" data-name="Path 2988" d="M179.014,362.228V363.7a.329.329,0,0,1-.332.328H137.237a2.16,2.16,0,0,1-2.006-2.966l13.134-32.528,21.225.145-.725,4.22-4.682,27.317a1.444,1.444,0,0,0,1.422,1.689h13.077A.329.329,0,0,1,179.014,362.228Z" transform="translate(-135.073 -328.529)" fill="#263238"/>
          <path id="Path_2989" data-name="Path 2989" d="M179.014,362.228V363.7a.329.329,0,0,1-.332.328H137.237a2.16,2.16,0,0,1-2.006-2.966l8.144-20.164,4.99-12.364,21.225.145-.725,4.22-2.036,11.88-2.646,15.437a1.444,1.444,0,0,0,1.422,1.689h13.077A.329.329,0,0,1,179.014,362.228Z" transform="translate(-135.073 -328.529)" fill="#fff" opacity="0.5"/>
          <path id="Path_2990" data-name="Path 2990" d="M169.4,368.217H142.43a.946.946,0,0,1-.874-1.309l11.515-27.7h19.585l-4.682,27.317A1.444,1.444,0,0,0,169.4,368.217Z" transform="translate(-138.864 -334.846)" opacity="0.2" style="isolation: isolate"/>
          <path id="Path_2991" data-name="Path 2991" d="M181.6,328.674l-.724,4.22-2.036,11.88-23.455-3.881,4.991-12.364Z" transform="translate(-147.087 -328.529)" opacity="0.1" style="isolation: isolate"/>
        </g>
        <g id="Group_2396" data-name="Group 2396">
          <g id="Group_2395" data-name="Group 2395">
            <path id="Path_2992" data-name="Path 2992" d="M174.705,180.5H76.444a2.514,2.514,0,0,0-2.514,2.515v66.521a2.514,2.514,0,0,0,2.514,2.514h98.261a2.515,2.515,0,0,0,2.514-2.514V183.015A2.515,2.515,0,0,0,174.705,180.5Z" transform="translate(-73.93 -180.5)" fill="#263238"/>
            <path id="Path_2993" data-name="Path 2993" d="M174.705,180.5H76.444a2.514,2.514,0,0,0-2.514,2.515v66.521a2.514,2.514,0,0,0,2.514,2.514h98.261a2.515,2.515,0,0,0,2.514-2.514V183.015A2.515,2.515,0,0,0,174.705,180.5Z" transform="translate(-73.93 -180.5)" fill="#fff" opacity="0.6"/>
            <path id="Path_2994" data-name="Path 2994" d="M78.528,252.048H76.446a2.512,2.512,0,0,1-2.512-2.512V183.016a2.513,2.513,0,0,1,2.512-2.516h2.083a2.513,2.513,0,0,0-2.512,2.516v66.521A2.512,2.512,0,0,0,78.528,252.048Z" transform="translate(-73.932 -180.5)" opacity="0.2" style="isolation: isolate"/>
          </g>
        </g>
        <g id="Group_2397" data-name="Group 2397" transform="translate(4.351 2.16)">
          <rect id="Rectangle_403" data-name="Rectangle 403" width="96.673" height="64.145" fill="#407bff"/>
        </g>
        <g id="Group_2410" data-name="Group 2410" transform="translate(22.097 9.793)">
          <g id="Group_2400" data-name="Group 2400" transform="translate(20.865)">
            <circle id="Ellipse_50" data-name="Ellipse 50" cx="8.393" cy="8.393" r="8.393" fill="#fff" opacity="0.4"/>
            <g id="Group_2399" data-name="Group 2399" transform="translate(4.369 4.055)">
              <g id="Group_2398" data-name="Group 2398" transform="translate(1.127)">
                <path id="Path_2995" data-name="Path 2995" d="M193.4,217.449v-.785a1.384,1.384,0,0,1,1.382-1.382h1.24a1.384,1.384,0,0,1,1.382,1.382v.785h.9v-.785a2.28,2.28,0,0,0-2.277-2.278h-1.24a2.28,2.28,0,0,0-2.277,2.278v.785Z" transform="translate(-192.509 -214.386)" fill="#fff"/>
              </g>
              <path id="Path_2996" data-name="Path 2996" d="M189.752,223.748v4.125a.456.456,0,0,0,.456.456h7.135a.456.456,0,0,0,.456-.456v-4.125a.456.456,0,0,0-.456-.456h-7.135A.456.456,0,0,0,189.752,223.748Zm4.282,2.336v.811h-.517v-.811a.5.5,0,0,1-.251-.429.509.509,0,1,1,1.018,0A.5.5,0,0,1,194.034,226.084Z" transform="translate(-189.752 -219.653)" fill="#fff"/>
            </g>
          </g>
          <g id="Group_2406" data-name="Group 2406" transform="translate(0 23.684)">
            <rect id="Rectangle_404" data-name="Rectangle 404" width="9.636" height="9.636" rx="2.09" transform="translate(0 0.054)" fill="#fff"/>
            <rect id="Rectangle_405" data-name="Rectangle 405" width="9.636" height="9.636" rx="2.09" transform="translate(12.22 0.041)" fill="#fff"/>
            <rect id="Rectangle_406" data-name="Rectangle 406" width="9.636" height="9.636" rx="2.09" transform="translate(24.44 0.027)" fill="#fff"/>
            <rect id="Rectangle_407" data-name="Rectangle 407" width="9.636" height="9.636" rx="2.09" transform="translate(36.66 0.014)" fill="#fff"/>
            <rect id="Rectangle_408" data-name="Rectangle 408" width="9.636" height="9.636" rx="2.09" transform="translate(48.88)" fill="#fff"/>
            <g id="Group_2401" data-name="Group 2401" transform="translate(51.575 2.344)">
              <path id="Path_2997" data-name="Path 2997" d="M254.21,270.818c0-1.695.907-2.661,2.126-2.661s2.118.966,2.118,2.661-.907,2.661-2.118,2.661S254.21,272.513,254.21,270.818Zm3.5,0c0-1.331-.565-2-1.375-2s-1.382.669-1.382,2,.565,2,1.382,2S257.711,272.149,257.711,270.818Z" transform="translate(-254.21 -268.157)" fill="#263238"/>
            </g>
            <g id="Group_2402" data-name="Group 2402" transform="translate(2.733 2.344)">
              <path id="Path_2998" data-name="Path 2998" d="M138.711,270.752c0,1.776-1,2.728-2.46,2.728a2.508,2.508,0,0,1-1.293-.3l.282-.579a1.834,1.834,0,0,0,1,.245c1.056,0,1.724-.661,1.724-1.962v-.186a1.735,1.735,0,0,1-1.5.684,1.6,1.6,0,0,1-1.776-1.575,1.677,1.677,0,0,1,1.836-1.643C137.923,268.157,138.711,269.094,138.711,270.752Zm-.914-.989c0-.536-.431-1-1.241-1a1.023,1.023,0,0,0-1.145,1.011c0,.61.454,1,1.182,1A1.082,1.082,0,0,0,137.8,269.763Z" transform="translate(-134.69 -268.157)" fill="#263238"/>
            </g>
            <g id="Group_2403" data-name="Group 2403" transform="translate(14.915 2.345)">
              <path id="Path_2999" data-name="Path 2999" d="M164.5,270.819c0-1.695.907-2.661,2.126-2.661s2.118.966,2.118,2.661-.907,2.661-2.118,2.661S164.5,272.514,164.5,270.819Zm3.5,0c0-1.331-.565-2-1.375-2s-1.382.669-1.382,2,.565,2,1.382,2S168,272.15,168,270.819Z" transform="translate(-164.501 -268.158)" fill="#263238"/>
            </g>
            <g id="Group_2404" data-name="Group 2404" transform="translate(27.228 2.344)">
              <path id="Path_3000" data-name="Path 3000" d="M198.542,272.773v.646H194.8v-.505l2.118-2.044c.55-.535.654-.863.654-1.189,0-.535-.379-.863-1.107-.863a1.634,1.634,0,0,0-1.33.565l-.506-.438a2.4,2.4,0,0,1,1.9-.788c1.085,0,1.784.558,1.784,1.449a2.108,2.108,0,0,1-.855,1.635l-1.591,1.531Z" transform="translate(-194.632 -268.157)" fill="#263238"/>
            </g>
            <g id="Group_2405" data-name="Group 2405" transform="translate(40.162 2.404)">
              <path id="Path_3001" data-name="Path 3001" d="M228.192,268.3v5.2h-.736V268.95h-1.174V268.3Z" transform="translate(-226.282 -268.304)" fill="#263238"/>
            </g>
          </g>
          <g id="Group_2407" data-name="Group 2407" transform="translate(18.698 19.546)" opacity="0.6">
            <path id="Path_3002" data-name="Path 3002" d="M175.176,254.155v.183h-1.417v-2h1.374v.183h-1.162v.712h1.036v.181h-1.036v.744Z" transform="translate(-173.759 -252.318)" fill="#fff"/>
            <path id="Path_3003" data-name="Path 3003" d="M179.722,254.169v.872h-.2v-.853a.42.42,0,0,0-.452-.481.494.494,0,0,0-.527.544v.79h-.2v-1.505h.195v.277a.632.632,0,0,1,.572-.289A.577.577,0,0,1,179.722,254.169Z" transform="translate(-176.466 -253.022)" fill="#fff"/>
            <path id="Path_3004" data-name="Path 3004" d="M183.529,254.491a.483.483,0,0,1-.318.105.4.4,0,0,1-.441-.438v-.91H182.5v-.172h.269v-.329h.2v.329h.458v.172h-.458v.9a.241.241,0,0,0,.26.275.336.336,0,0,0,.223-.077Z" transform="translate(-178.929 -252.562)" fill="#fff"/>
            <path id="Path_3005" data-name="Path 3005" d="M186.877,254.353h-1.259a.558.558,0,0,0,.593.523.594.594,0,0,0,.461-.2l.114.132a.8.8,0,0,1-1.371-.521.725.725,0,0,1,.736-.765.718.718,0,0,1,.73.765C186.879,254.307,186.877,254.329,186.877,254.353Zm-1.259-.152h1.067a.535.535,0,0,0-1.067,0Z" transform="translate(-180.651 -253.022)" fill="#fff"/>
            <path id="Path_3006" data-name="Path 3006" d="M190.771,253.525v.2c-.017,0-.034,0-.049,0a.487.487,0,0,0-.507.555v.767h-.2v-1.505h.195v.294A.568.568,0,0,1,190.771,253.525Z" transform="translate(-183.371 -253.022)" fill="#fff"/>
            <path id="Path_3007" data-name="Path 3007" d="M195.4,253.554l-.752,1.686c-.126.295-.286.389-.5.389a.516.516,0,0,1-.367-.137l.095-.152a.377.377,0,0,0,.275.114c.134,0,.226-.063.312-.252l.066-.146-.673-1.5h.212l.567,1.279.566-1.279Z" transform="translate(-185.601 -253.039)" fill="#fff"/>
            <path id="Path_3008" data-name="Path 3008" d="M197.972,254.29a.766.766,0,1,1,.767.767A.741.741,0,0,1,197.972,254.29Zm1.325,0a.56.56,0,1,0-.558.586A.549.549,0,0,0,199.3,254.29Z" transform="translate(-188.077 -253.022)" fill="#fff"/>
            <path id="Path_3009" data-name="Path 3009" d="M204.068,253.554v1.505h-.195v-.275a.6.6,0,0,1-.541.289.583.583,0,0,1-.635-.646v-.873h.2v.853a.421.421,0,0,0,.452.483.49.49,0,0,0,.512-.547v-.789Z" transform="translate(-190.871 -253.039)" fill="#fff"/>
            <path id="Path_3010" data-name="Path 3010" d="M208.2,253.525v.2c-.017,0-.034,0-.049,0a.487.487,0,0,0-.507.555v.767h-.2v-1.505h.195v.294A.568.568,0,0,1,208.2,253.525Z" transform="translate(-193.678 -253.022)" fill="#fff"/>
            <path id="Path_3011" data-name="Path 3011" d="M211.754,253.312a1.052,1.052,0,1,1,1.053,1.019A1.008,1.008,0,0,1,211.754,253.312Zm1.892,0a.841.841,0,1,0-.839.83A.812.812,0,0,0,213.646,253.312Z" transform="translate(-196.227 -252.293)" fill="#fff"/>
            <path id="Path_3012" data-name="Path 3012" d="M217.925,252.518h-.7v-.183h1.62v.183h-.7v1.82h-.212Z" transform="translate(-199.46 -252.318)" fill="#fff"/>
            <path id="Path_3013" data-name="Path 3013" d="M223.578,253.022c0,.427-.309.684-.819.684h-.538v.632h-.212v-2h.75C223.268,252.335,223.578,252.592,223.578,253.022Zm-.212,0c0-.321-.212-.5-.612-.5h-.532v1h.532C223.154,253.52,223.366,253.337,223.366,253.022Z" transform="translate(-202.292 -252.318)" fill="#fff"/>
          </g>
          <g id="Group_2408" data-name="Group 2408" transform="translate(21.309 36.709)" opacity="0.6">
            <path id="Path_3014" data-name="Path 3014" d="M180.146,296.323l.083-.163a.984.984,0,0,0,.661.243c.375,0,.538-.157.538-.355,0-.55-1.234-.212-1.234-.953,0-.3.229-.55.738-.55a1.134,1.134,0,0,1,.621.177l-.072.169a1.033,1.033,0,0,0-.55-.166c-.366,0-.53.163-.53.364,0,.55,1.234.217,1.234.947,0,.3-.235.547-.747.547A1.086,1.086,0,0,1,180.146,296.323Z" transform="translate(-180.146 -294.443)" fill="#fff"/>
            <path id="Path_3015" data-name="Path 3015" d="M185.907,296.606h-1.259a.558.558,0,0,0,.593.523.594.594,0,0,0,.461-.2l.114.132a.8.8,0,0,1-1.371-.521.725.725,0,0,1,.736-.764.717.717,0,0,1,.73.764C185.909,296.559,185.907,296.582,185.907,296.606Zm-1.259-.152h1.068a.535.535,0,0,0-1.068,0Z" transform="translate(-182.688 -295.171)" fill="#fff"/>
            <path id="Path_3016" data-name="Path 3016" d="M190.428,296.422v.873h-.2v-.853a.42.42,0,0,0-.452-.481.494.494,0,0,0-.527.544v.789h-.2V295.79h.195v.277a.633.633,0,0,1,.573-.289A.577.577,0,0,1,190.428,296.422Z" transform="translate(-185.407 -295.171)" fill="#fff"/>
            <path id="Path_3017" data-name="Path 3017" d="M194.951,294.293v2.124h-.195v-.3a.653.653,0,0,1-.581.312.766.766,0,0,1,0-1.531.658.658,0,0,1,.573.3v-.9Zm-.2,1.371a.56.56,0,1,0-.558.587A.55.55,0,0,0,194.75,295.664Z" transform="translate(-187.999 -294.293)" fill="#fff"/>
            <path id="Path_3018" data-name="Path 3018" d="M201.33,296.362v.933h-.195v-.235a.565.565,0,0,1-.518.249c-.341,0-.55-.177-.55-.438,0-.232.149-.427.581-.427h.478v-.092c0-.257-.146-.4-.426-.4a.768.768,0,0,0-.5.177l-.092-.152a.957.957,0,0,1,.613-.2A.535.535,0,0,1,201.33,296.362Zm-.2.481V296.6h-.472c-.292,0-.386.114-.386.269,0,.174.14.283.381.283A.481.481,0,0,0,201.127,296.843Z" transform="translate(-191.927 -295.171)" fill="#fff"/>
            <path id="Path_3019" data-name="Path 3019" d="M205.695,295.79v1.322a.66.66,0,0,1-.753.753,1.048,1.048,0,0,1-.7-.232l.1-.154a.9.9,0,0,0,.593.206c.38,0,.555-.174.555-.546v-.192a.678.678,0,0,1-.587.292.73.73,0,1,1,0-1.46.68.68,0,0,1,.6.3v-.289Zm-.2.716a.571.571,0,1,0-.573.552A.538.538,0,0,0,205.5,296.505Z" transform="translate(-194.34 -295.171)" fill="#fff"/>
            <path id="Path_3020" data-name="Path 3020" d="M210.276,296.362v.933h-.195v-.235a.565.565,0,0,1-.518.249c-.34,0-.549-.177-.549-.438,0-.232.149-.427.581-.427h.478v-.092c0-.257-.146-.4-.427-.4a.767.767,0,0,0-.5.177l-.092-.152a.955.955,0,0,1,.612-.2A.535.535,0,0,1,210.276,296.362Zm-.2.481V296.6H209.6c-.292,0-.386.114-.386.269,0,.174.14.283.38.283A.482.482,0,0,0,210.073,296.843Z" transform="translate(-197.217 -295.171)" fill="#fff"/>
            <path id="Path_3021" data-name="Path 3021" d="M213.34,294.436a.147.147,0,0,1,.149-.143.144.144,0,0,1,.149.141.149.149,0,0,1-.3,0Zm.046.475h.2v1.505h-.2Z" transform="translate(-199.775 -294.293)" fill="#fff"/>
            <path id="Path_3022" data-name="Path 3022" d="M216.72,296.422v.873h-.2v-.853a.42.42,0,0,0-.452-.481.494.494,0,0,0-.527.544v.789h-.2V295.79h.195v.277a.633.633,0,0,1,.573-.289A.577.577,0,0,1,216.72,296.422Z" transform="translate(-200.955 -295.171)" fill="#fff"/>
          </g>
          <path id="Path_3023" data-name="Path 3023" d="M189.6,314.665H166.821a3.4,3.4,0,0,1-3.4-3.4h0a3.4,3.4,0,0,1,3.4-3.395H189.6a3.4,3.4,0,0,1,3.4,3.395h0A3.4,3.4,0,0,1,189.6,314.665Z" transform="translate(-148.95 -265.616)" fill="#fff" opacity="0.4"/>
          <g id="Group_2409" data-name="Group 2409" transform="translate(20.376 44.311)">
            <path id="Path_3024" data-name="Path 3024" d="M177.863,314.065a1.157,1.157,0,0,1,1.212-1.17,1.129,1.129,0,0,1,.869.356l-.212.206a.849.849,0,0,0-.644-.271.879.879,0,1,0,0,1.758.85.85,0,0,0,.644-.275l.212.206a1.136,1.136,0,0,1-.872.359A1.156,1.156,0,0,1,177.863,314.065Z" transform="translate(-177.863 -312.895)" fill="#fff"/>
            <path id="Path_3025" data-name="Path 3025" d="M183.527,314.065a1.216,1.216,0,1,1,1.219,1.17A1.162,1.162,0,0,1,183.527,314.065Zm2.1,0a.889.889,0,1,0-.886.879A.859.859,0,0,0,185.631,314.065Z" transform="translate(-181.212 -312.895)" fill="#fff"/>
            <path id="Path_3026" data-name="Path 3026" d="M192.669,312.959v2.287H192.4l-1.372-1.706v1.706H190.7v-2.287h.268l1.372,1.706v-1.706Z" transform="translate(-185.455 -312.933)" fill="#fff"/>
            <path id="Path_3027" data-name="Path 3027" d="M197.175,313.243h-.784v-.284h1.892v.284H197.5v2h-.324Z" transform="translate(-188.82 -312.933)" fill="#fff"/>
            <path id="Path_3028" data-name="Path 3028" d="M201.894,312.959h.327v2.287h-.327Z" transform="translate(-192.074 -312.933)" fill="#fff"/>
            <path id="Path_3029" data-name="Path 3029" d="M206.341,312.959v2.287h-.268l-1.372-1.706v1.706h-.327v-2.287h.268l1.372,1.706v-1.706Z" transform="translate(-193.54 -312.933)" fill="#fff"/>
            <path id="Path_3030" data-name="Path 3030" d="M210.822,314.259v-1.3h.327v1.287c0,.507.232.735.644.735s.647-.228.647-.735v-1.287h.317v1.3a.968.968,0,1,1-1.935,0Z" transform="translate(-197.353 -312.933)" fill="#fff"/>
            <path id="Path_3031" data-name="Path 3031" d="M218.858,314.962v.284H217.2v-2.287h1.614v.284h-1.287v.7h1.147v.278h-1.147v.738Z" transform="translate(-201.124 -312.933)" fill="#fff"/>
          </g>
        </g>
        <g id="Group_2411" data-name="Group 2411" transform="translate(4.35 2.462)">
          <path id="Path_3032" data-name="Path 3032" d="M171.173,186.524c-13.367,13.392-47.7,43.195-86.6,40.991V186.524Z" transform="translate(-84.575 -186.524)" fill="#fff" opacity="0.1"/>
          <path id="Path_3033" data-name="Path 3033" d="M236.921,246.037v39.534h-58.2c2.232-7.985,6.693-18.919,15.349-26.734C209.637,244.779,227.707,244.821,236.921,246.037Z" transform="translate(-140.246 -221.424)" fill="#fff" opacity="0.1"/>
        </g>
      </g>
    </g>
    <g id="Speech_bubble" data-name="Speech bubble" transform="translate(126.194 85.45)">
      <g id="Group_2415" data-name="Group 2415" transform="translate(0 0)">
        <path id="Path_3034" data-name="Path 3034" d="M351.232,171.09l1.356,5.992,1.356-5.992Z" transform="translate(-333.895 -154.127)" fill="#407bff"/>
        <path id="Path_3035" data-name="Path 3035" d="M351.232,171.09l1.356,5.992,1.356-5.992Z" transform="translate(-333.895 -154.127)" fill="#fff" opacity="0.7"/>
        <rect id="Rectangle_409" data-name="Rectangle 409" width="37.386" height="18.29" rx="8.592" fill="#407bff"/>
        <rect id="Rectangle_410" data-name="Rectangle 410" width="37.386" height="18.29" rx="8.592" fill="#fff" opacity="0.7"/>
        <g id="Group_2413" data-name="Group 2413" transform="translate(6.237 5.079)" opacity="0.5">
          <path id="Path_3036" data-name="Path 3036" d="M325.3,143.841v.791h-.324v-.8l-.908-1.49h.349l.732,1.206.735-1.206h.324Z" transform="translate(-324.07 -142.208)" fill="#263238"/>
          <path id="Path_3037" data-name="Path 3037" d="M329.133,144.547a.9.9,0,1,1,.9.885A.862.862,0,0,1,329.133,144.547Zm1.483,0a.584.584,0,1,0-.582.611A.568.568,0,0,0,330.616,144.547Z" transform="translate(-327.064 -142.989)" fill="#263238"/>
          <path id="Path_3038" data-name="Path 3038" d="M336.2,143.705v1.731h-.3v-.261a.7.7,0,0,1-.588.281.68.68,0,0,1-.745-.754v-1h.314v.96c0,.34.17.51.467.51a.51.51,0,0,0,.536-.575v-.895Z" transform="translate(-330.276 -143.012)" fill="#263238"/>
          <path id="Path_3039" data-name="Path 3039" d="M340.952,143.665v.3a.555.555,0,0,0-.072,0,.517.517,0,0,0-.546.585v.862h-.314v-1.731h.3v.291A.66.66,0,0,1,340.952,143.665Z" transform="translate(-333.503 -142.989)" fill="#263238"/>
          <path id="Path_3040" data-name="Path 3040" d="M345.109,143.452a1.216,1.216,0,1,1,1.219,1.17A1.162,1.162,0,0,1,345.109,143.452Zm2.1,0a.889.889,0,1,0-.886.879A.859.859,0,0,0,347.213,143.452Z" transform="translate(-336.511 -142.171)" fill="#263238"/>
          <path id="Path_3041" data-name="Path 3041" d="M352.181,142.629H351.4v-.284h1.892v.284H352.5v2h-.324Z" transform="translate(-340.23 -142.208)" fill="#263238"/>
          <path id="Path_3042" data-name="Path 3042" d="M358.746,143.142c0,.5-.359.8-.954.8h-.566v.692H356.9v-2.287h.892C358.387,142.345,358.746,142.646,358.746,143.142Zm-.327,0c0-.327-.219-.513-.637-.513h-.556v1.026h.556C358.2,143.656,358.42,143.469,358.42,143.142Z" transform="translate(-343.484 -142.208)" fill="#263238"/>
          <path id="Path_3043" data-name="Path 3043" d="M364.373,143.452a1.157,1.157,0,0,1,1.212-1.17,1.13,1.13,0,0,1,.869.356l-.212.206a.847.847,0,0,0-.644-.271.879.879,0,1,0,0,1.758.85.85,0,0,0,.644-.275l.212.206a1.134,1.134,0,0,1-.872.359A1.156,1.156,0,0,1,364.373,143.452Z" transform="translate(-347.903 -142.171)" fill="#263238"/>
          <path id="Path_3044" data-name="Path 3044" d="M369.933,144.547a.9.9,0,1,1,.9.885A.862.862,0,0,1,369.933,144.547Zm1.483,0a.584.584,0,1,0-.582.611A.568.568,0,0,0,371.416,144.547Z" transform="translate(-351.191 -142.989)" fill="#263238"/>
          <path id="Path_3045" data-name="Path 3045" d="M376.807,142.01v2.424h-.3v-.274a.731.731,0,0,1-.617.294.884.884,0,0,1,0-1.767.738.738,0,0,1,.6.277v-.954Zm-.311,1.559a.584.584,0,1,0-.581.611A.57.57,0,0,0,376.5,143.569Z" transform="translate(-354.195 -142.01)" fill="#263238"/>
          <path id="Path_3046" data-name="Path 3046" d="M382.187,144.652h-1.4a.587.587,0,0,0,.627.506.647.647,0,0,0,.5-.209l.173.2a.944.944,0,0,1-1.614-.6.848.848,0,0,1,.869-.882.835.835,0,0,1,.856.892C382.194,144.583,382.191,144.622,382.187,144.652Zm-1.4-.226h1.111a.559.559,0,0,0-1.111,0Z" transform="translate(-357.421 -142.989)" fill="#263238"/>
        </g>
        <g id="Group_2414" data-name="Group 2414" transform="translate(11.059 9.205)" opacity="0.5">
          <path id="Path_3047" data-name="Path 3047" d="M338.78,153.983A1.737,1.737,0,0,1,337,155.958a1.818,1.818,0,0,1-.937-.221l.2-.42a1.322,1.322,0,0,0,.727.178c.764,0,1.248-.479,1.248-1.42v-.135a1.255,1.255,0,0,1-1.087.5,1.159,1.159,0,0,1-1.286-1.141A1.214,1.214,0,0,1,337.2,152.1C338.21,152.1,338.78,152.783,338.78,153.983Zm-.662-.716c0-.387-.312-.726-.9-.726a.741.741,0,0,0-.829.731c0,.441.329.727.856.727A.783.783,0,0,0,338.118,153.267Z" transform="translate(-335.869 -152.105)" fill="#263238"/>
          <path id="Path_3048" data-name="Path 3048" d="M344.26,154.031c0-1.227.657-1.926,1.539-1.926s1.534.7,1.534,1.926-.657,1.927-1.534,1.927S344.26,155.259,344.26,154.031Zm2.535,0c0-.963-.409-1.447-1-1.447s-1,.484-1,1.447.409,1.448,1,1.448S346.795,154.995,346.795,154.031Z" transform="translate(-340.831 -152.105)" fill="#263238"/>
          <path id="Path_3049" data-name="Path 3049" d="M355.391,155.447v.468h-2.707v-.366l1.534-1.48c.4-.388.474-.624.474-.861,0-.388-.274-.624-.8-.624a1.183,1.183,0,0,0-.963.409l-.366-.318a1.738,1.738,0,0,1,1.378-.57c.785,0,1.291.4,1.291,1.049a1.526,1.526,0,0,1-.619,1.184l-1.152,1.109Z" transform="translate(-345.739 -152.105)" fill="#263238"/>
          <path id="Path_3050" data-name="Path 3050" d="M361.426,152.21v3.767h-.533v-3.3h-.85v-.468Z" transform="translate(-350.164 -152.167)" fill="#263238"/>
          <path id="Path_3051" data-name="Path 3051" d="M365.444,154.031c0-1.227.656-1.926,1.539-1.926s1.534.7,1.534,1.926-.657,1.927-1.534,1.927S365.444,155.259,365.444,154.031Zm2.534,0c0-.963-.409-1.447-1-1.447s-1,.484-1,1.447.409,1.448,1,1.448S367.978,154.995,367.978,154.031Z" transform="translate(-353.358 -152.105)" fill="#263238"/>
        </g>
      </g>
    </g>
    <g id="Character" transform="translate(108.261 108.582)">
      <g id="Group_2427" data-name="Group 2427">
        <path id="Path_3052" data-name="Path 3052" d="M351.884,219.1a27.058,27.058,0,0,1-10.849-4.61l5.278-7.094c.01.008.359.261.953.62l7.044-3.783c4.629,8.619,3.715,11.166,2.5,12.877Z" transform="translate(-311.496 -198.094)" fill="#dc897c"/>
        <g id="Group_2416" data-name="Group 2416" transform="translate(30.783 10.897)">
          <path id="Path_3053" data-name="Path 3053" d="M342.279,212.894a8.086,8.086,0,0,1,3.934,1.6l-1.645,5.059S336.637,212.248,342.279,212.894Z" transform="translate(-340.252 -212.854)" fill="#407bff"/>
          <path id="Path_3054" data-name="Path 3054" d="M342.262,217.168a33.114,33.114,0,0,0,2.3,2.383l.676-2.079.97-2.977a8.048,8.048,0,0,0-3.932-1.6C338.809,212.5,340.468,215.1,342.262,217.168Z" transform="translate(-340.251 -212.855)" fill="#fff" opacity="0.6"/>
          <path id="Path_3055" data-name="Path 3055" d="M345.157,222.364a33.11,33.11,0,0,0,2.3,2.383l.676-2.079a4.838,4.838,0,0,0-2.966-1.023A3.9,3.9,0,0,0,345.157,222.364Z" transform="translate(-343.146 -218.052)" opacity="0.2" style="isolation: isolate"/>
        </g>
        <path id="Path_3056" data-name="Path 3056" d="M300.707,194.69s-3.8,12.637,4.205,14.333,8.845-4.119,8.845-4.119S307.2,194.947,300.707,194.69Z" transform="translate(-285.551 -191.215)" fill="#263238"/>
        <g id="Group_2418" data-name="Group 2418" transform="translate(12.037 0.002)">
          <path id="Path_3057" data-name="Path 3057" d="M297.41,203.817a.241.241,0,0,1-.212-.355,1.752,1.752,0,0,1,1.293-.9.241.241,0,1,1,.029.481,1.272,1.272,0,0,0-.9.645A.241.241,0,0,1,297.41,203.817Z" transform="translate(-296.171 -196.016)" fill="#263238"/>
          <path id="Path_3058" data-name="Path 3058" d="M299.734,208.772a6.169,6.169,0,0,1-.33,1.44.8.8,0,0,0,.837.016Z" transform="translate(-297.35 -199.544)" fill="#de5753"/>
          <g id="Group_2417" data-name="Group 2417" transform="translate(1.235 8.149)">
            <path id="Path_3059" data-name="Path 3059" d="M298.266,206.668c.085.224.275.359.425.3s.2-.285.116-.509-.275-.36-.425-.3S298.18,206.444,298.266,206.668Z" transform="translate(-297.888 -206.141)" fill="#263238"/>
            <path id="Path_3060" data-name="Path 3060" d="M297.961,206.139l-.56-.006S297.8,206.451,297.961,206.139Z" transform="translate(-297.401 -206.133)" fill="#263238"/>
          </g>
          <path id="Path_3061" data-name="Path 3061" d="M305.91,200a.413.413,0,0,1-.057.1c-.037.069-.078.135-.118.2a3.9,3.9,0,0,1-.94,1.124c-1.238.977-2.293,1.271-3.22.989-.045-.012-.09-.029-.135-.045l0,0c-1.377-.56-2.436-2.207-3.306-4.385a8.656,8.656,0,0,1-.707-2.689c0-.008-.012-.033-.012-.041,0-.033-.008-.074-.008-.106a3.2,3.2,0,0,1,1.291-2.767,6.2,6.2,0,0,1,1.185-.731C303.986,189.663,307.958,196.144,305.91,200Z" transform="translate(-296.166 -189.203)" fill="#e4897b"/>
          <path id="Path_3062" data-name="Path 3062" d="M311.775,213.356a3.9,3.9,0,0,1-.94,1.124c-1.238.977-2.293,1.271-3.22.989a4.478,4.478,0,0,0,2.325-1.41A2.321,2.321,0,0,1,311.775,213.356Z" transform="translate(-302.206 -202.255)" opacity="0.2" style="isolation: isolate"/>
          <path id="Path_3063" data-name="Path 3063" d="M297.325,192.825a4.8,4.8,0,0,0,4.471,2.948s2.6,2.449,4.353,1.672c2.391-1.06,2.883-5.407.445-8.445C303.432,185.061,296.532,187.881,297.325,192.825Z" transform="translate(-296.084 -186.753)" fill="#263238"/>
          <path id="Path_3064" data-name="Path 3064" d="M303.822,205.472c-.213-.452-.208-1.382.542-1.61.776-.237,2.025,1.363.43,2.607C304.565,206.647,304.265,206.415,303.822,205.472Z" transform="translate(-299.892 -196.627)" fill="#e4897b"/>
          <path id="Path_3065" data-name="Path 3065" d="M299.205,186.805s-3.091.607-4.092,2.438c-1.169,2.139-1.211,3.8,1.883,4.883,0,0,3.925-3.694,5.616-4.1a18.441,18.441,0,0,1,3.006-.482C304.5,186.326,300.451,185.451,299.205,186.805Z" transform="translate(-294.379 -186.191)" fill="#263238"/>
          <path id="Path_3066" data-name="Path 3066" d="M313.5,211.733a7.262,7.262,0,0,1,2.679,3.9l6.625-3.864s-5.187-1.184-6.079-3.19C316.724,208.577,313.26,209.008,313.5,211.733Z" transform="translate(-305.678 -199.429)" fill="#e4897b"/>
        </g>
        <path id="Path_3067" data-name="Path 3067" d="M315.866,230.742s-8.565-8.434-9.505-11.081a14.031,14.031,0,0,1,10.82-5.855c7.214-.235,12.119,13.486,12.119,13.486Z" transform="translate(-289.427 -202.518)" fill="#407bff"/>
        <path id="Path_3068" data-name="Path 3068" d="M329.3,227.291,315.87,230.74s-1.872-1.843-3.964-4.074c-.646-.7-1.32-1.434-1.97-2.162a21.652,21.652,0,0,1-3.572-4.847,14.029,14.029,0,0,1,10.817-5.856C324.4,213.569,329.3,227.291,329.3,227.291Z" transform="translate(-289.43 -202.515)" fill="#fff" opacity="0.6"/>
        <path id="Path_3069" data-name="Path 3069" d="M309.07,193.767a9,9,0,0,0,5.659,5.552c4.405,1.384,3.3,5.878,7.57,5.348,2.273-.282,4.217-4.909-2.751-8.985-4.062-2.376-2.486-10.178-11.107-9.447C308.441,186.235,310.229,191.583,309.07,193.767Z" transform="translate(-290.657 -186.187)" fill="#263238"/>
        <path id="Path_3070" data-name="Path 3070" d="M317.519,344.072l-2.041-.465a315.212,315.212,0,0,1,3.087-31.851c.206-1.455.4-2.83.6-4.111.093-.609.18-1.195.267-1.758.422-2.782.783-4.982,1.008-6.342.165-.992.26-1.536.26-1.536l7.345,1.8-.526,1.854-1.737,6.12-.2.7-1.151,4.04-1.953,6.88C322.606,329.791,317.519,344.072,317.519,344.072Z" transform="translate(-294.819 -252.313)" fill="#e4897b"/>
        <path id="Path_3071" data-name="Path 3071" d="M356.246,340.1l-2.093-.105a329.289,329.289,0,0,1-2.553-34.274c-.043-1.48-.079-2.864-.107-4.117,0-.065,0-.125,0-.185-.053-2.488-.079-4.467-.091-5.719,0-.981-.008-1.519-.008-1.519l7.547.5-.324,3.145-.474,4.621-.094.906-.325,3.149-.871,8.444C358.78,325.148,356.246,340.1,356.246,340.1Z" transform="translate(-316.056 -250.047)" fill="#e4897b"/>
        <g id="Group_2420" data-name="Group 2420" transform="translate(32.839 88.893)">
          <path id="Path_3072" data-name="Path 3072" d="M353.417,405.359c-.006-.262-3.227-.057-3.227-.057a10.161,10.161,0,0,1-3.905,2.468c-1.925.453-.849,1.608,1.3,1.608h5.321C354.436,409.378,353.481,408.076,353.417,405.359Z" transform="translate(-345.283 -404.608)" fill="#263238"/>
          <g id="Group_2419" data-name="Group 2419" transform="translate(2.834)">
            <path id="Path_3073" data-name="Path 3073" d="M352.313,405.155a.309.309,0,0,1-.078-.343.345.345,0,0,1,.172-.218,1.316,1.316,0,0,1,.723-.079c-.262-.14-.492-.31-.5-.479-.007-.11.065-.2.211-.271a.5.5,0,0,1,.417-.012c.437.182.707.933.719.966a.087.087,0,0,1,0,.065.119.119,0,0,1-.012.018h0a.08.08,0,0,1-.029.022,4.042,4.042,0,0,1-1.335.408A.443.443,0,0,1,352.313,405.155Zm.179-.414a.18.18,0,0,0-.092.113c-.032.126.008.159.021.17.152.125.742-.053,1.216-.254A2.109,2.109,0,0,0,352.492,404.741Zm.421-.822c-.044.02-.117.063-.114.107.008.145.469.4.946.577a1.418,1.418,0,0,0-.553-.692.338.338,0,0,0-.131-.028A.344.344,0,0,0,352.913,403.919Z" transform="translate(-352.218 -403.714)" fill="#263238"/>
          </g>
        </g>
        <g id="Group_2422" data-name="Group 2422" transform="translate(15.604 88.893)">
          <path id="Path_3074" data-name="Path 3074" d="M311.241,405.359c-.006-.262-3.226-.057-3.226-.057a10.161,10.161,0,0,1-3.905,2.468c-1.925.453-.849,1.608,1.3,1.608h5.321C312.26,409.378,311.3,408.076,311.241,405.359Z" transform="translate(-303.107 -404.608)" fill="#263238"/>
          <g id="Group_2421" data-name="Group 2421" transform="translate(2.834)">
            <path id="Path_3075" data-name="Path 3075" d="M310.137,405.155a.309.309,0,0,1-.078-.343.344.344,0,0,1,.172-.218,1.314,1.314,0,0,1,.722-.079c-.262-.14-.491-.31-.5-.479-.007-.11.065-.2.212-.271a.5.5,0,0,1,.417-.012c.436.182.707.933.718.966a.085.085,0,0,1,0,.065.121.121,0,0,1-.011.018h0a.08.08,0,0,1-.029.022,4.046,4.046,0,0,1-1.335.408A.443.443,0,0,1,310.137,405.155Zm.179-.414a.181.181,0,0,0-.092.113c-.032.126.008.159.021.17.152.125.742-.053,1.217-.254A2.109,2.109,0,0,0,310.316,404.741Zm.421-.822c-.044.02-.117.063-.115.107.008.145.469.4.946.577a1.416,1.416,0,0,0-.552-.692.336.336,0,0,0-.13-.028A.342.342,0,0,0,310.737,403.919Z" transform="translate(-310.042 -403.714)" fill="#263238"/>
          </g>
        </g>
        <path id="Path_3076" data-name="Path 3076" d="M325.356,270.805l1.743-12.248v-8.3c4.589-3.45,13.434-3.45,13.434-3.45s6.8,9.426,3.5,24.942L335.5,273l-.546-2.894L333.882,273Z" transform="translate(-300.66 -222.038)" fill="#263238"/>
        <path id="Path_3077" data-name="Path 3077" d="M325.356,270.805l1.743-12.248v-8.3c4.589-3.45,13.434-3.45,13.434-3.45s6.8,9.426,3.5,24.942L335.5,273l-.546-2.894L333.882,273Z" transform="translate(-300.66 -222.038)" fill="#fff" opacity="0.2"/>
        <path id="Path_3078" data-name="Path 3078" d="M348.837,290.718l1.643-5.1s1.725-.523,3.939-3.948A12.422,12.422,0,0,1,348.837,290.718Z" transform="translate(-314.545 -242.648)" opacity="0.2" style="isolation: isolate"/>
        <path id="Path_3079" data-name="Path 3079" d="M339.939,260.481l3.83-.366a8.643,8.643,0,0,1,.613,4.548l-2.457,1.474-1.778-1.262S340.1,261.631,339.939,260.481Z" transform="translate(-309.284 -229.904)" opacity="0.2" style="isolation: isolate"/>
        <path id="Path_3080" data-name="Path 3080" d="M362.5,258.141a19.263,19.263,0,0,1,1.132,3.921l1.359.575.732-.91a14.5,14.5,0,0,0-1.334-3.977Z" transform="translate(-322.623 -228.506)" opacity="0.2" style="isolation: isolate"/>
        <path id="Path_3081" data-name="Path 3081" d="M324.8,303.817l9.056,2.659-.568,1.215-8.606-2.646Z" transform="translate(-300.263 -255.747)" fill="#263238"/>
        <path id="Path_3082" data-name="Path 3082" d="M349.311,307.848l.149,1.117,8.88-1.117.137-1.411Z" transform="translate(-314.825 -257.297)" fill="#263238"/>
        <g id="Group_2423" data-name="Group 2423" transform="translate(26.356 25.13)">
          <path id="Path_3083" data-name="Path 3083" d="M353.24,249.025a32.088,32.088,0,0,1,4.392-.427l-.546-.9a24.933,24.933,0,0,0-4.283.256Z" transform="translate(-343.247 -247.683)" fill="#263238"/>
          <path id="Path_3084" data-name="Path 3084" d="M331.265,253.718c-1.17.506-1.847.889-1.847.889l.008,1.116c.659-.334,1.322-.637,1.984-.912Z" transform="translate(-329.418 -251.252)" fill="#263238"/>
          <path id="Path_3085" data-name="Path 3085" d="M335.074,251.573a35.793,35.793,0,0,1,7.032-1.957l-.408-1.088a30.974,30.974,0,0,0-6.792,1.953Z" transform="translate(-332.663 -248.183)" fill="#263238"/>
        </g>
        <g id="Group_2424" data-name="Group 2424" transform="translate(0 30.788)">
          <path id="Path_3086" data-name="Path 3086" d="M271.315,262.46l-2.321-.932-.392,2.19s2.093,1.27,2.964-.241Z" transform="translate(-267.099 -261.528)" fill="#e4897b"/>
          <path id="Path_3087" data-name="Path 3087" d="M265.667,261.662l-.744,1.695,1.5.36.392-2.19Z" transform="translate(-264.923 -261.528)" fill="#e4897b"/>
        </g>
        <g id="Group_2425" data-name="Group 2425" transform="translate(37.054 4.741)">
          <path id="Path_3088" data-name="Path 3088" d="M358.947,202.6l-.276-2.485-2.115.69s-.13,2.445,1.613,2.5Z" transform="translate(-356.164 -199.165)" fill="#e4897b"/>
          <path id="Path_3089" data-name="Path 3089" d="M357.443,197.788l-1.845.146.393,1.5,2.115-.69Z" transform="translate(-355.598 -197.788)" fill="#e4897b"/>
        </g>
        <path id="Path_3090" data-name="Path 3090" d="M316.483,238.024c-.646-.7-1.32-1.434-1.97-2.162-.249-1.52-.409-2.856-.409-2.856A5.9,5.9,0,0,1,316.483,238.024Z" transform="translate(-294.007 -213.873)" opacity="0.2" style="isolation: isolate"/>
        <path id="Path_3091" data-name="Path 3091" d="M274.4,248.991l-.82-8.8c3.2-.3,6.914-1.2,7.789-1.888a56.718,56.718,0,0,0,3.211-9.16l8.58,2.137a60.361,60.361,0,0,1-4.352,11.645C286.672,247.031,279.793,248.491,274.4,248.991Z" transform="translate(-270.284 -212.219)" fill="#dc897c"/>
        <path id="Path_3092" data-name="Path 3092" d="M304.861,223.669c-2,1.306-3.071,4.708-3.409,6.372L305.6,233.1l2.1-2.042C308.55,226.363,305.618,223.176,304.861,223.669Z" transform="translate(-286.524 -208.322)" fill="#407bff"/>
        <path id="Path_3093" data-name="Path 3093" d="M304.861,223.669c-2,1.306-3.071,4.708-3.409,6.372L305.6,233.1l2.1-2.042C308.55,226.363,305.618,223.176,304.861,223.669Z" transform="translate(-286.524 -208.322)" fill="#fff" opacity="0.6"/>
        <g id="Group_2426" data-name="Group 2426" transform="translate(34.888 1.994)">
          <path id="Path_3094" data-name="Path 3094" d="M354.387,198.05l-2.963.315a.3.3,0,0,1-.312-.317l-.179-6.283a.361.361,0,0,1,.292-.381l2.963-.315a.3.3,0,0,1,.312.317l.179,6.283A.362.362,0,0,1,354.387,198.05Z" transform="translate(-350.672 -191.067)" fill="#263238"/>
          <path id="Path_3095" data-name="Path 3095" d="M354.387,198.05l-2.963.315a.3.3,0,0,1-.312-.317l-.179-6.283a.361.361,0,0,1,.292-.381l2.963-.315a.3.3,0,0,1,.312.317l.179,6.283A.362.362,0,0,1,354.387,198.05Z" transform="translate(-350.672 -191.067)" fill="#fff" opacity="0.6"/>
          <path id="Path_3096" data-name="Path 3096" d="M353.749,198.117l-2.963.315a.3.3,0,0,1-.312-.317l-.179-6.283a.361.361,0,0,1,.292-.381l2.963-.315a.3.3,0,0,1,.312.317l.179,6.283A.36.36,0,0,1,353.749,198.117Z" transform="translate(-350.296 -191.108)" fill="#263238"/>
          <path id="Path_3097" data-name="Path 3097" d="M353.749,198.117l-2.963.315a.3.3,0,0,1-.312-.317l-.179-6.283a.361.361,0,0,1,.292-.381l2.963-.315a.3.3,0,0,1,.312.317l.179,6.283A.36.36,0,0,1,353.749,198.117Z" transform="translate(-350.296 -191.108)" fill="#fff" opacity="0.7"/>
          <path id="Path_3098" data-name="Path 3098" d="M353.708,191.438l-.775.083-.1.239-1.2.128-.113-.217-.774.083a.235.235,0,0,0-.19.247l.179,6.283a.194.194,0,0,0,.2.206l2.963-.315a.235.235,0,0,0,.19-.247l-.179-6.283A.2.2,0,0,0,353.708,191.438Z" transform="translate(-350.449 -191.286)" fill="#407bff"/>
          <path id="Path_3099" data-name="Path 3099" d="M353.833,195.472l-2.18.232a.191.191,0,0,1-.2-.2l-.017-.606a.23.23,0,0,1,.186-.243l2.18-.232a.191.191,0,0,1,.2.2l.017.606A.229.229,0,0,1,353.833,195.472Z" transform="translate(-350.97 -193.05)" fill="#fff" opacity="0.8"/>
        </g>
      </g>
    </g>
  </g>
</svg>
