<svg xmlns="http://www.w3.org/2000/svg" width="391.791" height="244" viewBox="0 0 391.791 244">
  <g id="Sign-up" transform="translate(9.458 100)">
    <rect id="Rectangle_207" data-name="Rectangle 207" width="382" height="244" transform="translate(0.333 -100)" fill="#f5f8f7"/>
    <g id="Group_829" data-name="Group 829" transform="translate(-62.084 -150.808)">
      <rect id="Rectangle_258" data-name="Rectangle 258" width="112.355" height="62.156" transform="translate(325.062 143.944)" fill="#baf2e3"/>
      <g id="Group_750" data-name="Group 750" transform="translate(358.119 119.742)">
        <rect id="Rectangle_259" data-name="Rectangle 259" width="1.22" height="61.065" transform="translate(32.829 33.837)" fill="#8494b4"/>
        <rect id="Rectangle_260" data-name="Rectangle 260" width="64.371" height="40.022" rx="5.469" transform="translate(0 0)" fill="#e7e7e7"/>
        <rect id="Rectangle_261" data-name="Rectangle 261" width="56.901" height="31.455" transform="translate(3.672 2.727)" fill="#f9f9f9"/>
        <g id="Group_748" data-name="Group 748" transform="translate(40.22 10.629)">
          <rect id="Rectangle_262" data-name="Rectangle 262" width="14.851" height="18.81" fill="#fed44e"/>
          <rect id="Rectangle_263" data-name="Rectangle 263" width="12.053" height="1.875" transform="translate(1.399 1.772)" fill="#7ae5c9"/>
          <rect id="Rectangle_264" data-name="Rectangle 264" width="12.053" height="1.875" transform="translate(1.399 5.245)" fill="#7270f5"/>
          <rect id="Rectangle_265" data-name="Rectangle 265" width="12.053" height="1.875" transform="translate(1.399 8.719)" fill="#fff"/>
          <rect id="Rectangle_266" data-name="Rectangle 266" width="12.053" height="1.875" transform="translate(1.399 12.193)" fill="#fff"/>
          <rect id="Rectangle_267" data-name="Rectangle 267" width="12.053" height="1.875" transform="translate(1.399 15.666)" fill="#fff"/>
        </g>
        <path id="Path_2291" data-name="Path 2291" d="M753.921,152.653s3.031.018,3.454,1.994.047,4.2.564,5.588,2.127,5.27-1.328,5.49-4.018-.769-4.864-.805-2.115,2-4.617.837a2.243,2.243,0,0,1-.329-4.106c1.081-.317.659-2.184.4-2.806-.541-1.293-.94-5.27,2.749-6.441C752.932,151.456,753.921,152.653,753.921,152.653Z" transform="translate(-736.419 -142.187)" fill="#002164"/>
        <path id="Path_2292" data-name="Path 2292" d="M755.707,169.2c-.224,2.661-.4,5.813-1.5,8.058a3.164,3.164,0,0,0,3.5,3.057,3.02,3.02,0,0,0,3.24-2.627,15.879,15.879,0,0,1-1.92-6.854C757.948,170.833,756.455,169.74,755.707,169.2Z" transform="translate(-741.114 -151.557)" fill="#f38b00"/>
        <path id="Path_2293" data-name="Path 2293" d="M756.49,155.576s3.806.183,4.593.97.75,2.385.97,4.727-1.22,4.929-2.489,5.27-4.758-1.842-5.246-5.484S755.025,155.453,756.49,155.576Z" transform="translate(-741.114 -144.116)" fill="#ffae02"/>
        <g id="Group_749" data-name="Group 749" transform="translate(43.963 14.665)">
          <path id="Path_2294" data-name="Path 2294" d="M822.2,170.145a35.015,35.015,0,0,0,2.586-3.205c.712-1.121,3.372-4.819,3.926-4.239s-1.741,3.638-1.741,3.638,2.219-3.968,3-3.532-2.059,3.919-2.059,3.919,2.407-3.356,2.82-2.887-.078,1.207-2.061,3.657c0,0,1.7-2.111,2.111-1.446s-1.528,2.526-2.207,2.937a40.789,40.789,0,0,0-4.917,3.057S822.052,171.22,822.2,170.145Z" transform="translate(-822.187 -162.64)" fill="#ffae02"/>
          <path id="Path_2295" data-name="Path 2295" d="M831.337,171.224c-.194-.5-.983-.463-1.456-.42a2.076,2.076,0,0,0-1.489.712c-.2.243-.357.489-.576.718-.423.441-.139.816-.007,1.295a2.3,2.3,0,0,0,1.855-.078,3.456,3.456,0,0,0,1.437-1.233A1.815,1.815,0,0,0,831.337,171.224Z" transform="translate(-825.138 -167.084)" fill="#ffa77c"/>
          <path id="Path_2296" data-name="Path 2296" d="M827.949,171.754s2.118-1.436,2.775-1,.073,1-2.167,1.923c0,0-.73,1.1-1.242,1.217A1.55,1.55,0,0,1,827.949,171.754Z" transform="translate(-824.876 -167.025)" fill="#ffae02"/>
        </g>
        <path id="Path_2297" data-name="Path 2297" d="M756.108,153.316s1.045,4.552-2.2,5.124a3.036,3.036,0,0,0-.391,2.572c.464,1.415,1.5,4.434-.372,5.133s-3.288-.44-2.532-3.384.757-4.555,1.22-6.7S753.183,152.329,756.108,153.316Z" transform="translate(-739.038 -142.721)" fill="#002164"/>
        <path id="Path_2298" data-name="Path 2298" d="M758.867,152.607s.238,4.112,3.795,4.282,3.59-2.348,3.148-2.961S763.751,150.911,758.867,152.607Z" transform="translate(-743.657 -142.173)" fill="#002164"/>
        <path id="Path_2299" data-name="Path 2299" d="M748.843,179.3a8.655,8.655,0,0,1-1.91,1.855c-.633.243-3.154-1.789-3.154-1.789a21.149,21.149,0,0,1-6.341,2.276s-2.563.925-3.522,7.985h23s-.163-1.477,0-1.477,1.266,1.477,3.051,1.477h7.823s6.423-6.225,9.393-10.583l-2.763-2.747s-9.389,10.068-10.169,10.068-6.752-5.016-7-5.161S750.839,180.955,748.843,179.3Z" transform="translate(-730.036 -155.43)" fill="#9070cf"/>
        <path id="Path_2300" data-name="Path 2300" d="M829.721,190.205h-6.67s15.758-12.321,16.067-12.669v3.534C837.375,182.879,829.721,190.205,829.721,190.205Z" transform="translate(-778.695 -156.106)" fill="#f9f9f9" opacity="0.32" style="mix-blend-mode: screen;isolation: isolate"/>
        <path id="Path_2301" data-name="Path 2301" d="M808.454,143.459v4.987c-1.186,1.451-27.893,21.607-29.524,23.171H766.88C770.1,169.063,807.223,144.382,808.454,143.459Z" transform="translate(-748.031 -137.504)" fill="#f9f9f9" opacity="0.32" style="mix-blend-mode: screen;isolation: isolate"/>
        <path id="Path_2302" data-name="Path 2302" d="M766.822,136.349h6.332c-.046.039-.093.076-.139.115-2.632,2.26-28.692,28.107-31.614,31.257l-6.05.015C739.253,163.689,759.53,143.4,766.822,136.349Z" transform="translate(-730.82 -133.622)" fill="#f9f9f9" opacity="0.32" style="mix-blend-mode: screen;isolation: isolate"/>
        <path id="Path_2303" data-name="Path 2303" d="M733.459,151.88v-6.116c3.166-3.145,6.512-6.454,9.522-9.415h6.192C744.628,140.795,738.539,146.816,733.459,151.88Z" transform="translate(-729.787 -133.622)" fill="#f9f9f9" opacity="0.32" style="mix-blend-mode: screen;isolation: isolate"/>
        <rect id="Rectangle_268" data-name="Rectangle 268" width="6.576" height="1.329" transform="translate(30.151 93.572)" fill="#1e3b76"/>
      </g>
      <path id="Path_2304" data-name="Path 2304" d="M777.11,353.393c0,1.286-22.883,2.329-51.111,2.329s-51.112-1.043-51.112-2.329,22.883-2.33,51.112-2.33S777.11,352.106,777.11,353.393Z" transform="translate(-339.693 -131.093)" fill="#dfe5ea"/>
      <g id="Group_754" data-name="Group 754" transform="translate(394.356 150.472)">
        <path id="Path_2305" data-name="Path 2305" d="M842.688,211.606h-3.673s-.53,5-1.488,5.6c0,0-1.182,5.912,3.324,5.912,5.454,0,3.325-5.912,3.325-5.912C843.218,216.611,842.688,211.606,842.688,211.606Z" transform="translate(-822.759 -205.435)" fill="#f38b00"/>
        <g id="Group_751" data-name="Group 751" transform="translate(12.528 0)">
          <path id="Path_2306" data-name="Path 2306" d="M844.137,207.34c-.51-.585-1.12.306-1.12.306s.84-3.309,0-4.76-3.564-.687-3.564-.687-2.724-.764-3.564.687,0,4.76,0,4.76-.611-.891-1.12-.306.84,2.062,1.146,2.24c0,0,1.96,3.666,3.539,3.666s3.538-3.666,3.538-3.666C843.3,209.4,844.646,207.925,844.137,207.34Z" transform="translate(-833.795 -200.189)" fill="#ffae02"/>
          <path id="Path_2307" data-name="Path 2307" d="M838.754,203.29s-2.062.363-2.291,1.47a4.383,4.383,0,0,0,.11,1.651,10.851,10.851,0,0,1,.176,1.824.317.317,0,0,1-.267-.046,3.759,3.759,0,0,1-.7-.842c-.392-.574-.955-.478-1.117-.114,0,0-.458-5.432,1.814-5.623S838.754,203.29,838.754,203.29Z" transform="translate(-833.782 -199.971)" fill="#002164"/>
          <path id="Path_2308" data-name="Path 2308" d="M846.667,203.29s2.062.363,2.291,1.47a4.379,4.379,0,0,1-.11,1.651,10.818,10.818,0,0,0-.176,1.824.318.318,0,0,0,.268-.046,3.75,3.75,0,0,0,.7-.842c.392-.574.955-.478,1.117-.114,0,0,.458-5.432-1.814-5.623S846.667,203.29,846.667,203.29Z" transform="translate(-840.353 -199.971)" fill="#002164"/>
          <path id="Path_2309" data-name="Path 2309" d="M842.107,199.977a1.661,1.661,0,0,0-.969-1.448,5.519,5.519,0,0,0-4.645,0c-1.6.8-2.091.984-2.558.716s-.172-.534-.172-.534-1.05-.01-1,1.62,2.054,3.653,4.671,3.653C841.432,203.983,842.725,201.19,842.107,199.977Z" transform="translate(-832.762 -198.017)" fill="#002164"/>
        </g>
        <path id="Path_2310" data-name="Path 2310" d="M835.4,223.938c-.193,5.026-3.325,4.507-3.325,4.507s-3.131.519-3.324-4.507c0,0-5,1.382-7.44,3.017a48.306,48.306,0,0,1,1.1,9.262l2.859,11.074,6.8.336,6.8-.336,2.859-11.074a48.264,48.264,0,0,1,1.1-9.262C840.4,225.32,835.4,223.938,835.4,223.938Z" transform="translate(-813.983 -212.167)" fill="#9070cf"/>
        <path id="Path_2311" data-name="Path 2311" d="M841.769,236.2c-3.108,1.657-4.62,5.468-7.638,7.336-3.124,1.932-5.334-1.972-6.853-4a11.8,11.8,0,0,0-5-3.979,47.3,47.3,0,0,1,.666,7l2.859,11.073,6.8.337,6.8-.337,2.859-11.073a47.117,47.117,0,0,1,.648-6.9C842.515,235.834,842.129,236.009,841.769,236.2Z" transform="translate(-814.51 -218.509)" fill="#6d43af"/>
        <path id="Path_2312" data-name="Path 2312" d="M841.725,277.5c0-3.886-4.82-6.442-4.82-6.442H820.711s-4.82,2.557-4.82,6.442a19.346,19.346,0,0,0,.39,3h5.379c-.218.4-.416.763-.574,1.074-.048.095-.1.178-.152.269h3.913c.295,0,.854.123.771-.312-.118-.618-.5-.969-.126-1.618a2.239,2.239,0,0,1,1.668-.938c.128,0,.255,0,.379,0q1.269.029,2.537,0a4.572,4.572,0,0,1,.944.156c.274.046.633.048.788.324a4.223,4.223,0,0,1,.282,1.218,7.023,7.023,0,0,1-.089,1.169h5.487a14.311,14.311,0,0,1-.94-1.343h4.787A19.325,19.325,0,0,0,841.725,277.5Z" transform="translate(-811.024 -237.888)" fill="#7270f5"/>
        <path id="Path_2313" data-name="Path 2313" d="M841.725,277.5c0-3.886-4.82-6.442-4.82-6.442H820.711s-4.82,2.557-4.82,6.442a19.346,19.346,0,0,0,.39,3h5.379c-.218.4-.416.763-.574,1.074-.048.095-.1.178-.152.269h4.68c.122,0-.19-.675-.218-.736a1.213,1.213,0,0,1-.08-.807,1.636,1.636,0,0,1,.535-.72,4.028,4.028,0,0,1,2.783-.644,5.025,5.025,0,0,1,2.766.444,1.68,1.68,0,0,1,.417.356c.562.7.268,1.334.186,2.108h5.487a14.311,14.311,0,0,1-.94-1.343h4.787A19.325,19.325,0,0,0,841.725,277.5Z" transform="translate(-811.024 -237.888)" fill="#6c70b5" opacity="0.55" style="mix-blend-mode: multiply;isolation: isolate"/>
        <path id="Path_2314" data-name="Path 2314" d="M814.39,230.582s-6.185,13.365-5.735,15.144c.113.445,7.635,4.987,11.176,4.335l1.441-.265S816.016,230.485,814.39,230.582Z" transform="translate(-807.061 -215.794)" fill="#9070cf"/>
        <path id="Path_2315" data-name="Path 2315" d="M860.416,230.582s6.185,13.365,5.735,15.144c-.113.445-7.635,4.987-11.176,4.335l-1.441-.265S858.791,230.485,860.416,230.582Z" transform="translate(-831.573 -215.794)" fill="#9070cf"/>
        <path id="Path_2316" data-name="Path 2316" d="M825.257,240.877a9.451,9.451,0,0,1-.237,1.951c-.548,2.415-1.409,4.936-.505,7.389a39.316,39.316,0,0,0,2.791,5.521,4.483,4.483,0,0,0,.98-.057l1.441-.265S827.318,246.564,825.257,240.877Z" transform="translate(-815.517 -221.414)" fill="#6d43af"/>
        <path id="Path_2317" data-name="Path 2317" d="M857.035,256.4a8.69,8.69,0,0,0,.685-3.561c-.083-2.468-.1-4.936-.057-7.4.017-1.067.045-2.1.108-3.112-2,5.686-4.236,13.881-4.236,13.881l1.441.265A5.877,5.877,0,0,0,857.035,256.4Z" transform="translate(-831.573 -222.205)" fill="#6d43af"/>
        <path id="Path_2318" data-name="Path 2318" d="M826.03,335.9a68.8,68.8,0,0,0-4.382,5.662c-.458.994.663,2.241,2.191,1.732s2.42-1.554,2.446-2.216.841-1.016,1.2-1.068,2.395-2.371,2.191-3.007-1.227-1.335-1.227-1.335Z" transform="translate(-814.11 -273.159)"/>
        <path id="Path_2319" data-name="Path 2319" d="M852.854,335.9a68.8,68.8,0,0,1,4.382,5.662c.459.994-.663,2.241-2.191,1.732s-2.42-1.554-2.445-2.216-.84-1.016-1.2-1.068-2.394-2.371-2.191-3.007,1.227-1.335,1.227-1.335Z" transform="translate(-829.205 -273.159)"/>
        <g id="Group_752" data-name="Group 752" transform="translate(0 41.091)">
          <rect id="Rectangle_269" data-name="Rectangle 269" width="1.279" height="26.985" transform="translate(2.509 2.175)" fill="#8494b4"/>
          <rect id="Rectangle_270" data-name="Rectangle 270" width="1.279" height="26.985" transform="translate(32.061 2.175)" fill="#8494b4"/>
          <rect id="Rectangle_271" data-name="Rectangle 271" width="35.001" height="3.457" fill="#1e3b76"/>
        </g>
        <path id="Path_2320" data-name="Path 2320" d="M824.271,280.628c-.467-1.112-.562-3.463-3.709-3.463-6.06,0-4.64,4.856-4.547,5.582.917,7.231,5.314,21.656,5.314,21.656H827.4L824.85,284A18.982,18.982,0,0,0,824.271,280.628Z" transform="translate(-810.977 -241.224)" fill="#7270f5"/>
        <path id="Path_2321" data-name="Path 2321" d="M850.5,280.628c.467-1.112.562-3.463,3.709-3.463,6.064,0,4.64,4.856,4.547,5.582-.917,7.231-5.314,21.656-5.314,21.656h-6.069s2.207-17.675,2.548-20.4A18.97,18.97,0,0,1,850.5,280.628Z" transform="translate(-828.207 -241.224)" fill="#7270f5"/>
        <g id="Group_753" data-name="Group 753" transform="translate(5.505 21.799)">
          <rect id="Rectangle_272" data-name="Rectangle 272" width="17.822" height="1.057" transform="translate(3.677 12.356)" fill="#8494b4"/>
          <path id="Path_2322" data-name="Path 2322" d="M841.415,246.021H818.351a1.069,1.069,0,0,0-1.031,1.389c.213,1.389,3.121,11.1,3.707,11.1H838.74c.515,0,3.494-9.714,3.707-11.1A1.069,1.069,0,0,0,841.415,246.021Z" transform="translate(-817.295 -246.021)" fill="#aab5cb"/>
          <path id="Path_2323" data-name="Path 2323" d="M844.824,259.684a.954.954,0,1,1-.955-.955A.955.955,0,0,1,844.824,259.684Z" transform="translate(-831.281 -252.958)" fill="#e0e0e0"/>
        </g>
      </g>
      <g id="Group_760" data-name="Group 760" transform="translate(348.831 146.967)">
        <path id="Path_2324" data-name="Path 2324" d="M744.526,190.3h-.037c-6.381.024-4.8,5.881-4.8,5.881h.548c-.6-5.174,3.82-5.112,4.253-5.094v0h.037v0c.433-.018,4.858-.081,4.253,5.094h.548S750.906,190.324,744.526,190.3Z" transform="translate(-723.804 -190.299)" fill="#002164"/>
        <path id="Path_2325" data-name="Path 2325" d="M764.771,228.146l-2.255,4.274s2.394,11.786,6.95,10.1S764.771,228.146,764.771,228.146Z" transform="translate(-736.361 -210.96)" fill="#ffc104"/>
        <path id="Path_2326" data-name="Path 2326" d="M748.33,213.422H745.04s.317,4.523-1.486,5.5c0,0,.253,3.195,3.131,3.195s3.131-3.195,3.131-3.195C748.013,217.945,748.33,213.422,748.33,213.422Z" transform="translate(-726.01 -202.922)" fill="#f38b00"/>
        <path id="Path_2327" data-name="Path 2327" d="M749.264,196.453c-.747-1.139-3.974-.491-3.974-.491s-3.226-.648-3.974.491.068,2.878,0,4.206.747,6.589,3.974,6.589,4.042-5.261,3.974-6.589S750.011,197.592,749.264,196.453Z" transform="translate(-724.615 -193.29)" fill="#ffae02"/>
        <path id="Path_2328" data-name="Path 2328" d="M750.915,192.737s-.938,5.26,3.806,6.778c0,0,1.392-2.73-.169-5.028A3.5,3.5,0,0,0,750.915,192.737Z" transform="translate(-729.987 -191.599)" fill="#002164"/>
        <path id="Path_2329" data-name="Path 2329" d="M747.7,193.06s-1,7.3-6.587,6.039c0,0-1.739-3.869.791-5.83S747.7,193.06,747.7,193.06Z" transform="translate(-724.358 -191.413)" fill="#002164"/>
        <path id="Path_2330" data-name="Path 2330" d="M737.252,205.475s-1.08-.208-1.125.637.054,2.4.627,2.6a1.594,1.594,0,0,0,1.075-.024Z" transform="translate(-721.95 -198.571)" fill="#002164"/>
        <path id="Path_2331" data-name="Path 2331" d="M739.262,201.276s-1.147.117-1.192.961.43,4.623,1,4.822a2.3,2.3,0,0,0,1.265-.028Z" transform="translate(-723.014 -196.291)" fill="#002164"/>
        <path id="Path_2332" data-name="Path 2332" d="M761.75,205.488s1.083-.2,1.118.648-.079,2.4-.655,2.595a1.6,1.6,0,0,1-1.075-.036Z" transform="translate(-735.609 -198.58)" fill="#002164"/>
        <path id="Path_2333" data-name="Path 2333" d="M759.079,201.264s1.146.129,1.181.974-.48,4.618-1.056,4.81a2.293,2.293,0,0,1-1.265-.042Z" transform="translate(-733.862 -196.285)" fill="#002164"/>
        <path id="Path_2334" data-name="Path 2334" d="M762.705,207.4a3.393,3.393,0,0,1,.429.888,6.393,6.393,0,0,1,.208,1.363c.03.43.055,1.247.119,2.045a4.162,4.162,0,0,1,1.938-.7,9.817,9.817,0,0,1-.21-2.2,7.749,7.749,0,0,0,.515-2.8,4.919,4.919,0,0,0-.732-1.2c-.436-.514-1.1-1.391-1.444-1.8s-1.122-1.485-1.468-1.117c-.286.3.294,1.215.995,2.041a7.192,7.192,0,0,1,1.025,1.558s-1-1.332-1.134-1.55-.792-1.306-1.022-1.165c-.388.238-.115.822.609,1.773a14.99,14.99,0,0,1,1.013,1.457s-.859-1.064-1.1-1.4-.44-.717-.659-.724c-.439-.014-.213.91.534,1.845.337.421.515.632.615.743a7.634,7.634,0,0,1-.817-.9c-.218-.335-.421-.683-.6-.623s-.249.467.358,1.316S762.5,207.062,762.705,207.4Z" transform="translate(-735.747 -196.579)" fill="#ffae02"/>
        <path id="Path_2335" data-name="Path 2335" d="M747.676,282.182c.006-.122.01-.238.01-.339a9.414,9.414,0,0,0-2.293-6.043H730.356a9.966,9.966,0,0,0-2.058,6.043c0,.1,0,.217.01.339Z" transform="translate(-717.681 -236.975)" fill="#60759e"/>
        <path id="Path_2336" data-name="Path 2336" d="M737.772,287.728c-.05-.477-.093-.855-.123-1.1-.192-1.534.969-1.61,1.929-1.589q1.191.027,2.38,0c.96-.021,2.121.054,1.929,1.589-.031.246-.073.623-.123,1.1h5.147c-1.854-2.349-.537-5.272-2.982-7.4a12.72,12.72,0,0,0-5.161-1.2,11.529,11.529,0,0,0-5.269,1.067c-.212.169-1.035,5.43-1.974,7.288-.045.089-.1.167-.142.252Z" transform="translate(-720.457 -238.786)" fill="#60759e"/>
        <path id="Path_2337" data-name="Path 2337" d="M732.475,336.624a64.515,64.515,0,0,0-4.11,5.311c-.43.932.621,2.1,2.055,1.625s2.27-1.458,2.294-2.079.789-.953,1.123-1,2.246-2.224,2.055-2.821-1.151-1.252-1.151-1.252Z" transform="translate(-717.665 -270.059)"/>
        <path id="Path_2338" data-name="Path 2338" d="M757.636,336.624a64.527,64.527,0,0,1,4.11,5.311c.43.932-.621,2.1-2.055,1.625s-2.27-1.458-2.294-2.079-.789-.953-1.123-1-2.246-2.224-2.055-2.821,1.151-1.252,1.151-1.252Z" transform="translate(-731.824 -270.059)"/>
        <g id="Group_757" data-name="Group 757" transform="translate(4.025 46.26)">
          <g id="Group_756" data-name="Group 756" transform="translate(1.878 2.04)">
            <g id="Group_755" data-name="Group 755">
              <rect id="Rectangle_273" data-name="Rectangle 273" width="1.152" height="25.312" fill="#8494b4"/>
              <rect id="Rectangle_274" data-name="Rectangle 274" width="1.152" height="25.312" transform="translate(26.608)" fill="#8494b4"/>
            </g>
          </g>
          <rect id="Rectangle_275" data-name="Rectangle 275" width="31.515" height="3.243" fill="#1e3b76"/>
        </g>
        <path id="Path_2339" data-name="Path 2339" d="M736.176,282.9c-.181-1.7.217-4.813-3.4-4.813-5.472,0-4.352,6.121-4.265,6.8.86,6.782,2.543,20.313,2.543,20.313h5.693S736.258,283.671,736.176,282.9Z" transform="translate(-717.715 -238.222)" fill="#8494b4"/>
        <path id="Path_2340" data-name="Path 2340" d="M753.126,282.9c.181-1.7-.217-4.813,3.4-4.813,5.472,0,4.352,6.121,4.266,6.8-.861,6.782-2.543,20.313-2.543,20.313h-5.693S753.044,283.671,753.126,282.9Z" transform="translate(-730.923 -238.222)" fill="#8494b4"/>
        <g id="Group_758" data-name="Group 758" transform="translate(12.111 15.169)">
          <path id="Path_2341" data-name="Path 2341" d="M742.471,223.7s-.776,1.724-2.166,1.724-2.482-1.64-2.482-1.64A20.925,20.925,0,0,1,732.978,225c-.644.046-1.045.19-1.389.185,0,0,1.057,18.713.564,22.235H747.3s1.261-20.755,1.792-21.789C749.093,225.627,742.985,224.528,742.471,223.7Z" transform="translate(-731.589 -223.703)" fill="#fed44e"/>
          <path id="Path_2342" data-name="Path 2342" d="M745.991,235.465c-1.548,2.454-3.437,5.491-6.634,5.554-3.085.06-3.829-4.672-4.4-6.751a20.349,20.349,0,0,0-2.357-5.782,4.894,4.894,0,0,0-.977-1.048c.122,1.923,1.009,18.732.549,22.017h15.148s.687-12.406,1.26-18.049C747.8,232.823,746.861,234.085,745.991,235.465Z" transform="translate(-731.606 -225.741)" fill="#ffc104"/>
        </g>
        <path id="Path_2343" data-name="Path 2343" d="M763.916,218.729l3.261-.926s7.187,15.922,3.9,18.6-5.094-5.448-5.542-7.561S763.916,218.729,763.916,218.729Z" transform="translate(-737.125 -205.313)" fill="#fed44e"/>
        <path id="Path_2344" data-name="Path 2344" d="M752.964,249.493l7.309-.239v10.463a31.181,31.181,0,0,1-6.845.179Z" transform="translate(-731.146 -222.483)" fill="#7270f5"/>
        <path id="Path_2345" data-name="Path 2345" d="M746.666,263.66s-.167,2.781-.177,2.686a7.669,7.669,0,0,1,1.886.059,13.137,13.137,0,0,0,1.9.762,3.377,3.377,0,0,0,1.329-.032c.237-.022.717-.226.482-.442-.206-.19-.641.01-.831,0a3.6,3.6,0,0,1-.742-.277s.253.005.734.04a8.152,8.152,0,0,0,1.661.032c.206-.071.318-.386-.095-.5a5.811,5.811,0,0,0-1.107-.143c-.087-.016-.934-.1-.934-.1s.736.064,1,.071c.3.009,1.113.071,1.638.087.506.016.641-.5.245-.657a10.713,10.713,0,0,0-1.669-.087c-.174-.024-.981-.04-.981-.04s.965.024,1.139,0,1.211.069,1.44-.142a.278.278,0,0,0-.15-.483,5.129,5.129,0,0,0-1.282-.158,11.375,11.375,0,0,1-2.057-.127c-.253-.111-.515-.269-.367-.586l-.045-1s-.355,0-.854.643A2.665,2.665,0,0,1,746.666,263.66Z" transform="translate(-727.612 -229.782)" fill="#ffae02"/>
        <path id="Path_2346" data-name="Path 2346" d="M725.562,226.546a3.683,3.683,0,0,0-3.245,1.994c-.24.564-5.063,16.511-3.748,17.873s13.124.609,13.124.609l.215-3.3s-8.474-.463-8.427-.792,1.413-5.981,1.413-5.981S726.953,230.517,725.562,226.546Z" transform="translate(-712.247 -210.086)" fill="#fed44e"/>
        <g id="Group_759" data-name="Group 759" transform="translate(0 37.288)">
          <rect id="Rectangle_276" data-name="Rectangle 276" width="0.856" height="36.467" transform="translate(1.282 0)" fill="#7695a8"/>
          <rect id="Rectangle_277" data-name="Rectangle 277" width="0.856" height="36.467" transform="translate(37.427 0)" fill="#7695a8"/>
          <rect id="Rectangle_278" data-name="Rectangle 278" width="39.565" height="0.967" fill="#7695a8"/>
        </g>
      </g>
      <g id="Group_762" data-name="Group 762" transform="translate(382.279 126.259)">
        <g id="Group_761" data-name="Group 761">
          <rect id="Rectangle_279" data-name="Rectangle 279" width="14.599" height="9.876" rx="1.461" fill="#7270f5"/>
          <rect id="Rectangle_280" data-name="Rectangle 280" width="13.271" height="8.302" transform="translate(0.664 0.787)" fill="#fed44e"/>
        </g>
        <path id="Path_2347" data-name="Path 2347" d="M790.291,151.777v4.067l3.959-2.033Z" transform="translate(-784.972 -148.562)" fill="#9070cf"/>
      </g>
      <rect id="Rectangle_281" data-name="Rectangle 281" width="110.808" height="62.156" transform="translate(61.197 143.944)" fill="#fee288"/>
      <path id="Path_2348" data-name="Path 2348" d="M455.683,228.569V131.892c-11.62-8.994-21.206-12.545-29.83-11.456-4.163.526-8.142,2-12.3,2.62-3.379.506-20.241,2.114-31.683-3.789a70.936,70.936,0,0,0-56.644-4.352c-6.886,2.389-11.223,5.969-17.638,9.5-6.587,3.623-18.8,3.316-27.691,2.061-3.634-.513-12.8-.377-15.311,9.22v92.876Z" transform="translate(-115.71 0)" fill="#dbf1f4"/>
      <path id="Path_2349" data-name="Path 2349" d="M146.073,351.743c0,1.286-20.919,2.329-46.724,2.329s-46.724-1.043-46.724-2.329,20.919-2.33,46.724-2.33S146.073,350.456,146.073,351.743Z" transform="translate(0 -130.192)" fill="#dfe5ea"/>
      <g id="Group_764" data-name="Group 764" transform="translate(119.081 129.775)">
        <g id="Group_763" data-name="Group 763">
          <rect id="Rectangle_282" data-name="Rectangle 282" width="15.987" height="10.814" rx="1.6" fill="#7270f5"/>
          <rect id="Rectangle_283" data-name="Rectangle 283" width="14.533" height="9.092" transform="translate(0.727 0.861)" fill="#fed44e"/>
        </g>
        <path id="Path_2350" data-name="Path 2350" d="M213.294,160.191v4.453l4.335-2.227Z" transform="translate(-206.79 -156.67)" fill="#7270f5"/>
      </g>
      <g id="Group_785" data-name="Group 785" transform="translate(157.853 142.994)">
        <path id="Path_2351" data-name="Path 2351" d="M396.634,255.854l2.188,31.581,24.11,1.5-.667-32.222Z" transform="translate(-345.648 -222.112)" fill="#a1adc6"/>
        <path id="Path_2352" data-name="Path 2352" d="M442.695,254.054c-1.949-.587-6.4,17-5.7,19.82.475,1.937,16.881,1.234,16.881,1.234l.173-3.374s-10.409-1.18-10.356-2.032,3.076-6.476,3.076-6.476S444.664,254.647,442.695,254.054Z" transform="translate(-367.639 -221.122)" fill="#fed44e"/>
        <path id="Path_2353" data-name="Path 2353" d="M426.542,231.232l-4.42.688a10.118,10.118,0,0,1-.663,7.282s3.177,3.442,5.393,2.532a2.607,2.607,0,0,0,1.485-3.364S425.926,236.459,426.542,231.232Z" transform="translate(-359.2 -208.671)" fill="#f38b00"/>
        <path id="Path_2354" data-name="Path 2354" d="M419.141,215.986s6.887-.789,7.365.369.58,4.419,1.027,5.108,1.253,1.513.952,1.957-.634.336-.824.835-.118,3.318-1.028,3.738-5.55.173-7.23-2.471S415.813,216.23,419.141,215.986Z" transform="translate(-356.936 -200.205)" fill="#ffae02"/>
        <path id="Path_2355" data-name="Path 2355" d="M415.587,217.475l4.567,2.114a10.266,10.266,0,0,0,1.171,4.991s-.411.629-.841.272a1.674,1.674,0,0,1-.809-1.212c-.1-.663-.5-2.443-1.7-1.565s.067,1.921.677,2.18c0,0,.968,3.468-.873,3.221,0,0-1.7-1.077-3.162-5.242S414.448,216.694,415.587,217.475Z" transform="translate(-355.11 -201.047)" fill="#002164"/>
        <path id="Path_2356" data-name="Path 2356" d="M428.224,212s1.633,2.349-2.163,3.92-9.255-2.567-9.255-2.567.139-2.061,3.168-2.943c2.263-.659,4.383-.566,5.538.744C427.474,213.38,428.224,212,428.224,212Z" transform="translate(-356.66 -197.085)" fill="#002164"/>
        <g id="Group_766" data-name="Group 766" transform="translate(55.257 68.518)">
          <g id="Group_765" data-name="Group 765">
            <rect id="Rectangle_284" data-name="Rectangle 284" width="1.317" height="34.698" fill="#8494b4"/>
            <rect id="Rectangle_285" data-name="Rectangle 285" width="1.317" height="34.698" transform="translate(24.385)" fill="#8494b4"/>
          </g>
        </g>
        <rect id="Rectangle_286" data-name="Rectangle 286" width="32.77" height="4.54" transform="translate(51.723 65.322)" fill="#1e3b76"/>
        <path id="Path_2357" data-name="Path 2357" d="M414.2,246.234s-6.165,1.716-6.419,1.87c0,0,.682,8.919.58,11.321s-1.069,12.683-1.069,12.683h19.159s-.23-10.461-.129-12.761c0,0-.614-7.765.2-9.554a51.063,51.063,0,0,0-5.918-3.234s.029,2.528-1.317,3.218S414.2,246.234,414.2,246.234Z" transform="translate(-351.467 -216.861)" fill="#fed44e"/>
        <path id="Path_2358" data-name="Path 2358" d="M426.324,263.625s-.047-1.068-.068-2.511a23.322,23.322,0,0,1-1.379,3.742c-1.25,2.582-4.343,6.154-7.633,5.774s-5.935-3.315-6.759-6.515c-.62-2.409-.315-5.038-1.126-7.389a9.775,9.775,0,0,0-1.453-2.655c.191,2.706.53,7.887.456,9.632-.1,2.4-1.069,12.683-1.069,12.683h19.159S426.223,265.925,426.324,263.625Z" transform="translate(-351.467 -221.139)" fill="#ffc104"/>
        <g id="Group_767" data-name="Group 767" transform="translate(64.352 45.888)">
          <path id="Path_2359" data-name="Path 2359" d="M442.193,290.126l-4.351-7.378s-1.038-.61-1.044.655l5.023,7.013S442.978,291.846,442.193,290.126Z" transform="translate(-431.925 -282.601)"/>
          <path id="Path_2360" data-name="Path 2360" d="M434.625,292.994a4.545,4.545,0,0,0-1.449-1.622c-.711-.365-3.907.938-4.131.994a10.153,10.153,0,0,1-2.553.5,18.352,18.352,0,0,1-.425,2.194c.743.28,3.145-.187,3.445-.232a2.291,2.291,0,0,1,1.655.466c.5.355.979.653,1.336.581.332-.066-.022-.507-.224-.743l.017.019c.89,1.079,1.351.917,1.526.69.223-.287-.964-1.293-1.079-1.431s-1.115-.914-1.115-.914a4.505,4.505,0,0,1,1.281.9c.112.115,1.309,1.933,1.718,1.379s-.591-1.485-.99-2.063a4.562,4.562,0,0,0-1.331-1.079c.489-.065,1.322.854,1.6,1.177s1.005,1.847,1.583,1.463S434.962,293.466,434.625,292.994Zm-2.434,2.041a9.61,9.61,0,0,0-.955-.711A5.131,5.131,0,0,1,432.191,295.035Z" transform="translate(-426.068 -287.354)" fill="#ffae02"/>
          <path id="Path_2361" data-name="Path 2361" d="M444.559,292.177s1.183.455,1.39.983-.119.845-.4.721Z" transform="translate(-436.162 -287.829)" fill="#ffae02"/>
        </g>
        <path id="Path_2362" data-name="Path 2362" d="M398.137,250.351a11.021,11.021,0,0,0-2.979,3.216c-.955,1.8-6.164,15.472-5.471,18.293.475,1.937,16.881,1.234,16.881,1.234l.173-3.374s-10.409-1.18-10.356-2.032,3.076-6.476,3.076-6.476S401.109,254.293,398.137,250.351Z" transform="translate(-341.821 -219.108)" fill="#fed44e"/>
        <path id="Path_2363" data-name="Path 2363" d="M462.267,396.616s5.493,1.479,7.765,2.207c1.889.6,1.647,2.3-.377,3.087s-3.769.524-4.3-.1-1.668-.279-2.09-.031-4.358-.288-4.619-1.074a17.675,17.675,0,0,1,.119-3.925Z" transform="translate(-379.452 -298.954)"/>
        <path id="Path_2364" data-name="Path 2364" d="M442.4,396.457s5.352,1.928,7.556,2.841c1.832.759,1.451,2.429-.631,3.046s-3.8.21-4.273-.451-1.64-.415-2.081-.2-4.318-.647-4.514-1.452.826-4.593.826-4.593Z" transform="translate(-368.467 -298.425)"/>
        <path id="Path_2365" data-name="Path 2365" d="M444.486,313.541c-.605-2.248-11.8-9.044-12.708-11.09h-9.037a14.719,14.719,0,0,0-2.392,6.914c-.574,5.741,4.732,3.773,9.992,3.965s7.381,3.427,7.519,4.862-.8,27.488-.8,27.488l7.142-.04S444.846,314.88,444.486,313.541Z" transform="translate(-358.57 -247.55)" fill="#7270f5"/>
        <path id="Path_2366" data-name="Path 2366" d="M439.4,345.662s2.371-31.118,1.84-31.924c-1.632-2.477-9.558-8.3-12.281-11l-6.218-.284a14.719,14.719,0,0,0-2.392,6.914c-.574,5.741,4.732,3.773,9.992,3.965s7.381,3.427,7.519,4.862-.8,27.488-.8,27.488Z" transform="translate(-358.57 -247.55)" fill="#353b9a"/>
        <path id="Path_2367" data-name="Path 2367" d="M431.726,313.833c-.423-1.974-12.1-8.881-14.542-11.522l-9.576-.658a8.639,8.639,0,0,0-2.32,5.542c.049,5.513,4.2,6.842,9.465,7,6.066.182,9.181.963,9.172,2.4s-3.739,28.526-3.739,28.526l7.075.364S432.016,315.188,431.726,313.833Z" transform="translate(-350.372 -247.113)" fill="#7270f5"/>
        <g id="Group_771" data-name="Group 771" transform="translate(75.777)">
          <g id="Group_768" data-name="Group 768" transform="translate(56.207 12.982)">
            <path id="Path_2368" data-name="Path 2368" d="M575.005,220.624a42.081,42.081,0,0,0,2.212-4.2c.587-1.471,2.943-6.569,3.7-6.035s-1.358,4.811-1.358,4.811,1.861-5.353,2.868-5.056-1.721,5.283-1.721,5.283,2.243-4.7,2.83-4.246.125,1.5-1.8,4.978c0,0,1.646-2.985,2.268-2.285s-1.384,3.44-2.113,4.086-4.17,3.381-4.994,4.535C576.888,222.5,575.043,221.856,575.005,220.624Z" transform="translate(-575.005 -210.137)" fill="#ffae02"/>
            <path id="Path_2369" data-name="Path 2369" d="M581.045,224.313s2.469-1.4,3.157-.86-.007,1.111-2.566,1.937c0,0-.9,1.148-1.48,1.237A1.72,1.72,0,0,1,581.045,224.313Z" transform="translate(-577.731 -217.338)" fill="#ffae02"/>
          </g>
          <path id="Path_2370" data-name="Path 2370" d="M459.523,217.173a11.283,11.283,0,0,1-.957-2.455c0-.555.279-1.153.3-1.91s1.036-2.511.817-3.01-.837-.379-1.435.817-.4,1.934-.877,1.595a13.144,13.144,0,0,1-2.033-2.432c-.379-.618-1.574-1.834-1.894-1.634s-.409.518,1.711,3.507c0,0-2.4-3.6-3.106-2.948-.494.454,1.85,3.087,2.188,3.505,0,0-2.17-2.723-2.816-2.08-.608.6,2.377,2.87,2.377,2.87s-2.228-1.764-2.527-1.246,1,1.664,2.272,2.382,1.6.907,1.928,1.385a25.09,25.09,0,0,1,1.122,2.392S458.626,218.409,459.523,217.173Z" transform="translate(-451.227 -196.055)" fill="#ffae02"/>
          <path id="Path_2371" data-name="Path 2371" d="M518.338,200.939l-4.536.692s-.259,8.472-3.847,9.149c0,0-1.276,13.874,3.468,12.717s7.3-13.2,7.3-13.2S516.536,209.145,518.338,200.939Z" transform="translate(-483.201 -192.134)" fill="#f38b00"/>
          <path id="Path_2372" data-name="Path 2372" d="M518.559,185.612s-4.895-2.016-6.838-.792-1.784,5.444-2.074,7.378c-.453,3.023.851,5.974,1.642,6.262s6.91-1.368,7.882-5.794S519.711,186.368,518.559,185.612Z" transform="translate(-483.068 -183.119)" fill="#ffae02"/>
          <path id="Path_2373" data-name="Path 2373" d="M499.234,390.437s.661,4.072.169,5.017c-.518,1-10.827.516-11.443-.155s.411-1.84.95-2.11,6.141-2.725,6.141-2.725Z" transform="translate(-471.176 -295.581)"/>
          <path id="Path_2374" data-name="Path 2374" d="M537.93,390.437h-3.6a18.807,18.807,0,0,0,0,3.7c.239.678,3.638,4.875,5.392,4.875.957,0,2.137,0,2.322-.847a5.342,5.342,0,0,0-1.126-3.008C539.644,393.392,537.93,390.437,537.93,390.437Z" transform="translate(-496.536 -295.581)"/>
          <path id="Path_2375" data-name="Path 2375" d="M515.072,191.734a9.446,9.446,0,0,1-2.888,1.053c-1.133.081-1.832-1.264-3.428-.918s-1.8.4-1.8.4-.846,5.724,1.314,5.563,5.83-2.429,7.126-3.968a2.835,2.835,0,0,0,2.213-1.323c.864-1.323,2.024-5.426,1.269-7.909s-4.1-3.455-5.506-2.295a4.666,4.666,0,0,0-3.1-.783c-2.033.108-2.455,1.187-3.319,1.835s-1.71.648-2,.09c0,0-.612,1.026.486,2.79s2.365,1.493,4.075,1.1a12.475,12.475,0,0,0,3.833-2.087s-.09,3.527.792,4.823c0,0,.324.144.45,0s.036-1.979,1.026-1.565S515.954,191.041,515.072,191.734Z" transform="translate(-480.462 -181.549)" fill="#002164"/>
          <path id="Path_2376" data-name="Path 2376" d="M512.7,207.723a5.428,5.428,0,0,0,2.7.126s-.8,1.048-1.674.9A1.147,1.147,0,0,1,512.7,207.723Z" transform="translate(-484.786 -195.837)" fill="#fff"/>
          <path id="Path_2377" data-name="Path 2377" d="M520.35,218.749l-4.2,2.271-3.263-1.959a29.774,29.774,0,0,0-1.184,10.651c.479,5.661,1.4,9.727,5.223,4.465S522.177,220.583,520.35,218.749Z" transform="translate(-484.196 -201.857)" fill="#fff"/>
          <path id="Path_2378" data-name="Path 2378" d="M520.35,218.749l-4.2,2.271-3.263-1.959a29.774,29.774,0,0,0-1.184,10.651c.479,5.661,1.4,9.727,5.223,4.465S522.177,220.583,520.35,218.749Z" transform="translate(-484.196 -201.857)" fill="#8494b4"/>
          <path id="Path_2379" data-name="Path 2379" d="M516.608,223.612s-2.254,12.2-2.063,12.438c.123-.156,1.5,3.309,2.289,0,.617-2.576.692-12.157.791-12.274,0,0,1.177-1.266,1.865-1.891.451-.41.887-.829,1.309-1.263.11-.2.216-.4.309-.615l-.184.436a10.327,10.327,0,0,1,.887-1.423,1.727,1.727,0,0,0-.216-.272l-4.2,2.271-3.263-1.959s-.1.293-.235.807c.343.478.653.961.92,1.424C515.163,221.885,516.608,223.612,516.608,223.612Z" transform="translate(-485.44 -201.856)" fill="#1d3b66"/>
          <path id="Path_2380" data-name="Path 2380" d="M500.25,268.478l12.879-.243s1.959,3.211,2.4,12.478c.3,6.345.559,8.1,1.19,16.488.428,5.694,2.448,27.514,2.448,27.514H512.32s-2.9-24.9-3.045-26.257c-.053-.48-1.747-13.645-1.747-13.645s.277,11.926.277,13.312.3,25.886.3,25.886h-7.21s-.81-20.831-.878-25.6C499.9,290.694,499.245,270.97,500.25,268.478Z" transform="translate(-477.689 -228.871)" fill="#002152"/>
          <path id="Path_2381" data-name="Path 2381" d="M504.464,219.435s-4.532.877-6.287,1.459c0,0,.558,10.468-1.2,13.1l-.8,22.8s9.926-.12,10.245-12.478.3-12.916.3-12.916Z" transform="translate(-475.769 -202.231)" fill="#1d3b66"/>
          <g id="Group_770" data-name="Group 770" transform="translate(28.605 30.209)">
            <g id="Group_769" data-name="Group 769">
              <path id="Path_2382" data-name="Path 2382" d="M516.59,248.462a.381.381,0,1,1-.374-.388A.381.381,0,0,1,516.59,248.462Z" transform="translate(-515.098 -248.074)" fill="#002152"/>
              <path id="Path_2383" data-name="Path 2383" d="M516.055,256.706a.381.381,0,1,1-.374-.388A.381.381,0,0,1,516.055,256.706Z" transform="translate(-514.806 -252.574)" fill="#002152"/>
              <path id="Path_2384" data-name="Path 2384" d="M515.519,264.949a.381.381,0,1,1-.374-.388A.381.381,0,0,1,515.519,264.949Z" transform="translate(-514.513 -257.074)" fill="#002152"/>
              <path id="Path_2385" data-name="Path 2385" d="M514.983,273.193a.381.381,0,1,1-.374-.388A.381.381,0,0,1,514.983,273.193Z" transform="translate(-514.221 -261.575)" fill="#002152"/>
            </g>
          </g>
          <path id="Path_2386" data-name="Path 2386" d="M530.055,221.643l-6.186-2.894-5.2,12.278-.606,14.38s-.37,12.571,10.393,11.014l-.875-23.134S527.5,224.815,530.055,221.643Z" transform="translate(-487.714 -201.857)" fill="#1d3b66"/>
          <path id="Path_2387" data-name="Path 2387" d="M558.748,230.241,555,227.53s-6.936,10.95-7.335,10.618-3.708-11.852-6.219-13.026a6.554,6.554,0,0,0-1.993,3.565,30.13,30.13,0,0,0-.477,7.9s6.536,9.683,8.849,9.364S558.748,230.241,558.748,230.241Z" transform="translate(-499.105 -205.335)" fill="#1d3b66"/>
          <path id="Path_2388" data-name="Path 2388" d="M464.814,223.771l-4.243,1.691s5.807,20.984,9.155,19.143,7.8-8.38,7.8-8.38A15.558,15.558,0,0,0,479.245,231a20.067,20.067,0,0,0-.51-8.355s-2.95,1.8-5.421,6.73-3.228,6.347-3.448,6.039S464.814,223.771,464.814,223.771Z" transform="translate(-456.328 -203.985)" fill="#1d3b66"/>
          <path id="Path_2389" data-name="Path 2389" d="M517.489,219.333l-2.919-2.225-.5,1.113L515,221.76l2.493-1.868,2.246,2.1,2.143-4.612-.715-1.139Z" transform="translate(-485.531 -200.488)" fill="#fff"/>
        </g>
        <g id="Group_772" data-name="Group 772" transform="translate(74.606 35.543)">
          <rect id="Rectangle_287" data-name="Rectangle 287" width="21.843" height="1.33" transform="translate(2.034 17.387)" fill="#919191"/>
          <rect id="Rectangle_288" data-name="Rectangle 288" width="25.012" height="18.052" rx="2.87" transform="translate(0.449 0)" fill="#8494b4"/>
          <path id="Path_2390" data-name="Path 2390" d="M449.8,276.569V261.124a1.3,1.3,0,0,1,1.3-1.3h-1.154a1.3,1.3,0,0,0-1.3,1.3v15.445a1.3,1.3,0,0,0,1.3,1.3h1.154A1.3,1.3,0,0,1,449.8,276.569Z" transform="translate(-448.65 -259.82)" fill="#919191"/>
          <path id="Path_2391" data-name="Path 2391" d="M476.925,278.189a1.255,1.255,0,1,1-1.255-1.255A1.255,1.255,0,0,1,476.925,278.189Z" transform="translate(-462.716 -269.163)" fill="#e0e0e0"/>
        </g>
        <g id="Group_774" data-name="Group 774" transform="translate(107.831 36.33)">
          <g id="Group_773" data-name="Group 773">
            <rect id="Rectangle_289" data-name="Rectangle 289" width="16.454" height="2.352" transform="translate(4.449 15.578)" fill="#002164"/>
            <path id="Path_2392" data-name="Path 2392" d="M521.817,261.86l5.331,16.533.833-.306-5.331-16.533Z" transform="translate(-521.817 -261.554)" fill="#002164"/>
          </g>
        </g>
        <path id="Path_2393" data-name="Path 2393" d="M577.159,389.12s-4.381,2.158-6.728,3.13c-1.951.807-1.547,2.586.671,3.244s4.046.225,4.55-.478,1.746-.442,2.216-.216,4.171-.627,4.379-1.484-.709-4.635-.709-4.635Z" transform="translate(-439.84 -294.623)"/>
        <path id="Path_2394" data-name="Path 2394" d="M602.691,300.07l-7.444.1s-18.214,6.795-20.593,8.579,3.91,32.883,3.91,32.883l6.18-.647s-1.457-27.826-.268-29.015,20.47-2.95,21.685-3.314C607.35,308.3,605.654,304.024,602.691,300.07Z" transform="translate(-442.536 -246.25)" fill="#9070cf"/>
        <path id="Path_2395" data-name="Path 2395" d="M602.691,300.07l-7.444.1s-18.214,6.795-20.593,8.579,3.91,32.883,3.91,32.883l6.18-.647s-1.457-27.826-.268-29.015,20.47-2.95,21.685-3.314C607.35,308.3,605.654,304.024,602.691,300.07Z" transform="translate(-442.536 -246.25)" fill="#6d43af"/>
        <g id="Group_777" data-name="Group 777" transform="translate(137.399 36.178)">
          <path id="Path_2396" data-name="Path 2396" d="M657.462,262.266,649.9,292.494l-3.13-.783,6.5-30.493Z" transform="translate(-619.597 -261.218)" fill="#a1adc6"/>
          <g id="Group_776" data-name="Group 776" transform="translate(3.36 32.156)">
            <g id="Group_775" data-name="Group 775">
              <rect id="Rectangle_290" data-name="Rectangle 290" width="1.253" height="32.993" fill="#8494b4"/>
              <rect id="Rectangle_291" data-name="Rectangle 291" width="1.253" height="32.993" transform="translate(23.187)" fill="#8494b4"/>
            </g>
          </g>
          <rect id="Rectangle_292" data-name="Rectangle 292" width="31.16" height="4.317" transform="translate(0 29.118)" fill="#1e3b76"/>
        </g>
        <path id="Path_2397" data-name="Path 2397" d="M627.541,230.255l-4.272.912s1.229,5.254,0,8.148c0,0,2.329.915,6.255-2.058C629.523,237.257,627.1,235.211,627.541,230.255Z" transform="translate(-469.368 -208.138)" fill="#f38b00"/>
        <path id="Path_2398" data-name="Path 2398" d="M623.12,215.281s-4.753-1.791-6.027-1.137-2.825,1.619-2.583,2.583a13.564,13.564,0,0,1,.112,4.709c-.31.9-.844,1.516-.715,1.826s.878.066,1.085.446,1.318,2.886,1.964,3.248,4.332-.938,6.036-4.942S624.179,215.961,623.12,215.281Z" transform="translate(-464.246 -199.264)" fill="#ffae02"/>
        <path id="Path_2399" data-name="Path 2399" d="M563.779,390.7s-5.72,2-8.077,2.944c-1.958.789-1.572,2.571.64,3.25s4.043.265,4.555-.434,1.75-.425,2.218-.194,4.177-.587,4.394-1.442a12.522,12.522,0,0,0-.31-3.361Z" transform="translate(-431.791 -295.727)"/>
        <path id="Path_2400" data-name="Path 2400" d="M618.759,212.372s1.628-1.808,3.462-.749,1.116,2.745,1.5,3.487a4.542,4.542,0,0,1-.144,4.744c-1,1.755-.4,2.894-2.045,3.074s-2.15-.3-2.15-.3a6.357,6.357,0,0,0,.646-2.583s1.412-.783,1.223-2.006a1.05,1.05,0,0,0-2.084-.12c-.4,1.257.31,2.118-.62,2.721,0,0-.551.155-.551-1.24a13.373,13.373,0,0,1,.258-2.569s-3.338,1.771-5.91,0-.8-4.558,1.074-5.194A6.14,6.14,0,0,1,618.759,212.372Z" transform="translate(-462.701 -197.785)" fill="#002164"/>
        <path id="Path_2401" data-name="Path 2401" d="M602.641,297.644l-8.314,1.656s-18.89,6.823-21.27,8.607-2.8,32.4-2.8,32.4l6.2.6s2.655-29.1,4.107-29.95c1.252-.733,21.575-.733,22.843-.733C605.234,310.221,606.811,301.853,602.641,297.644Z" transform="translate(-440.426 -244.925)" fill="#9070cf"/>
        <path id="Path_2402" data-name="Path 2402" d="M554.255,290.879s-1.253.153-1.52.149-3.706-2.087-4.081-1.811-3.919,2.806-3.818,3.311,1.087.213,2.972-1.419c0,0-2.506,1.816-2.031,2.269s2.663-1.589,2.663-1.589-2.256,1.724-1.727,2.122,2.522-1.667,2.522-1.667-1.562,1.548-1.351,1.811,1.192-.173,2.268-1.2c0,0,.2-.109.761.214s4.051-.25,4.051-.25Z" transform="translate(-426.55 -240.311)" fill="#ffae02"/>
        <path id="Path_2403" data-name="Path 2403" d="M563.621,267.758l1.061,3.985s17.2-3.885,18.944-5.174,12.159-12.57,10.63-15.712-3.511-2.369-4.757-.584-7.191,9.4-8.041,10.289S563.621,267.758,563.621,267.758Z" transform="translate(-436.806 -218.215)" fill="#7ae5c9"/>
        <path id="Path_2404" data-name="Path 2404" d="M557.96,294.97s-1.317.153-1.6.149-3.893-2.087-4.288-1.811-4.116,2.806-4.01,3.311,1.143.213,3.121-1.419c0,0-2.632,1.816-2.134,2.27s2.8-1.589,2.8-1.589-2.37,1.724-1.815,2.122,2.649-1.667,2.649-1.667-1.641,1.548-1.419,1.811,1.251-.172,2.382-1.2c0,0,.206-.109.8.214s4.255-.25,4.255-.25Z" transform="translate(-428.314 -242.545)" fill="#ffae02"/>
        <path id="Path_2405" data-name="Path 2405" d="M624.507,245.012s-3.853,1.951-6.03,1.828c0,0-3.526,7.411-3.764,9.394s.4,14.917.4,14.917,8.532,1.853,13.561-.684c0,0-1.355-8.444-.8-12.647S627.992,248.128,624.507,245.012Z" transform="translate(-464.668 -216.194)" fill="#7ae5c9"/>
        <path id="Path_2406" data-name="Path 2406" d="M622.859,264.836c.852-1.965,4.188-5.132,2.509-7.338-1.35-1.775-2.318-1.9-3.8-.205a50.577,50.577,0,0,1-4.24,4.691,27.014,27.014,0,0,1-2.666,1.95c0,4.074.456,13.265.456,13.265a34.463,34.463,0,0,0,6.08.649C619.423,273.979,621.07,268.961,622.859,264.836Z" transform="translate(-464.669 -222.243)" fill="#006b98" opacity="0.32" style="mix-blend-mode: multiply;isolation: isolate"/>
        <path id="Path_2407" data-name="Path 2407" d="M567.8,271.849l1.114,3.985s18.071-3.885,19.9-5.174,12.771-12.57,11.165-15.713-3.687-2.369-5-.584-7.553,9.4-8.446,10.289S567.8,271.849,567.8,271.849Z" transform="translate(-439.087 -220.448)" fill="#7ae5c9"/>
        <g id="Group_778" data-name="Group 778" transform="translate(42.845 21.368)">
          <path id="Path_2408" data-name="Path 2408" d="M378.707,237.965a35.694,35.694,0,0,0,1.588-3.7c.4-1.283,2.046-5.751,2.718-5.349s-.825,4.158-.825,4.158,1.214-4.65,2.085-4.467-1.1,4.582-1.1,4.582,1.581-4.124,2.107-3.78.206,1.26-1.191,4.329c0,0,1.191-2.634,1.764-2.085s-.939,3-1.512,3.6a41.212,41.212,0,0,0-3.917,4.169S378.822,239,378.707,237.965Z" transform="translate(-378.707 -228.605)" fill="#ffae02"/>
          <path id="Path_2409" data-name="Path 2409" d="M383.411,240.964s1.993-1.351,2.611-.939.069.939-2.039,1.81c0,0-.687,1.031-1.168,1.145A1.458,1.458,0,0,1,383.411,240.964Z" transform="translate(-380.845 -234.797)" fill="#ffae02"/>
        </g>
        <path id="Path_2410" data-name="Path 2410" d="M351.413,246.507s-7.072,11.893-7.439,11.81-10.629-3.185-14.151-5.812c-1-.745-1,7.39,0,7.888s15.943,3.156,16.607,2.74,8.252-14.687,8.252-14.687Z" transform="translate(-308.768 -217.01)" fill="#7270f5"/>
        <path id="Path_2411" data-name="Path 2411" d="M347.351,270.657c-5.1,3.278-17.049-6.178-18.425-6.5-.2,2.227.127,5.54.783,5.868,1,.5,15.943,3.155,16.607,2.74a16.716,16.716,0,0,0,1.608-2.537A5.617,5.617,0,0,1,347.351,270.657Z" transform="translate(-308.653 -226.648)" fill="#353b9a"/>
        <path id="Path_2412" data-name="Path 2412" d="M323.932,241.67c-.45-.094-2.611-4.652-3.536-5.539-.443,3.113-2.325,10.5-2.325,10.5,2.284,2.449,6.838.948,6.838.948A15.461,15.461,0,0,1,323.932,241.67Z" transform="translate(-302.76 -211.345)" fill="#f38b00"/>
        <path id="Path_2413" data-name="Path 2413" d="M325.519,221.4s4.431,1,5.281,2.29.846,4.655,1.315,5.544c.284.539.539.972.681,1.288.124.277-.19.44-.575.576a.672.672,0,0,0-.414.429c-.262.814-.994,2.889-1.727,3.178-.914.36-5.428.222-6.786-3.711S322.68,220.552,325.519,221.4Z" transform="translate(-305.253 -203.26)" fill="#ffae02"/>
        <path id="Path_2414" data-name="Path 2414" d="M363.973,389.929,361,389.438a23.215,23.215,0,0,1-.4,3.476,9.552,9.552,0,0,0,6.76.333,11.376,11.376,0,0,1-2.753-1.607A3.288,3.288,0,0,1,363.973,389.929Z" transform="translate(-325.976 -295.036)" fill="#ffae02"/>
        <path id="Path_2415" data-name="Path 2415" d="M360.6,394.164a9.561,9.561,0,0,0,5.773,1.32s4.272,2.286,4.547,2.859c.385.8-1.486.851-4.406.756-2.49-.082-2.308-.269-2.807-.757s-1.123-1.032-1.123-1.032a5.081,5.081,0,0,0-.486,1.731l-1.113-.16a3.68,3.68,0,0,0-.407-2.1A2.1,2.1,0,0,1,360.6,394.164Z" transform="translate(-325.716 -297.616)"/>
        <path id="Path_2416" data-name="Path 2416" d="M336.851,388.172l-2.248-.614s-1.319,2.2-1.7,2.777a9.55,9.55,0,0,0,6.519,1.822,11.361,11.361,0,0,1-2.329-2.177A3.283,3.283,0,0,1,336.851,388.172Z" transform="translate(-310.855 -294.01)" fill="#ffae02"/>
        <path id="Path_2417" data-name="Path 2417" d="M332.73,392.531a9.563,9.563,0,0,0,5.627,1.847s4.043,2.67,4.264,3.266c.31.833-1.558.71-4.457.346-2.473-.311-2.273-.48-2.725-1.013s-1.024-1.132-1.024-1.132a5.089,5.089,0,0,0-.644,1.679l-1.093-.262a3.681,3.681,0,0,0-.212-2.125A2.1,2.1,0,0,1,332.73,392.531Z" transform="translate(-310.436 -296.724)"/>
        <path id="Path_2418" data-name="Path 2418" d="M314.067,298.459l5.869,4.154s19.038,3.669,21.453,5.481-15.369,33.932-15.369,33.932l-5.537-1.839s13.287-28.44,12.079-29.648-20.784-2.995-22.018-3.365C309.336,306.812,311.059,302.473,314.067,298.459Z" transform="translate(-298.439 -245.37)" fill="#7ae5c9"/>
        <path id="Path_2419" data-name="Path 2419" d="M314.067,298.459l5.869,4.154s19.038,3.669,21.453,5.481-15.369,33.932-15.369,33.932l-5.537-1.839s13.287-28.44,12.079-29.648-20.784-2.995-22.018-3.365C309.336,306.812,311.059,302.473,314.067,298.459Z" transform="translate(-298.439 -245.37)" fill="#42c395"/>
        <path id="Path_2420" data-name="Path 2420" d="M311.413,302.612l7.672.646s19.663,4.958,22.079,6.77-3.524,33.939-3.524,33.939l-6.008-1.52s3.388-28.462,1.913-29.326c-1.271-.744-21.907-.744-23.194-.744C308.491,312.377,307.178,306.885,311.413,302.612Z" transform="translate(-297.587 -247.637)" fill="#7ae5c9"/>
        <path id="Path_2421" data-name="Path 2421" d="M314.225,255.854a55.714,55.714,0,0,0,6.084,2.309s3.578,7.064,3.82,9.036,1.8,12.737,1.8,12.737-11.04,3.178-16.147.655c0,0,1.546-7.637.982-11.815S310.686,258.951,314.225,255.854Z" transform="translate(-298.234 -222.112)" fill="#7270f5"/>
        <path id="Path_2422" data-name="Path 2422" d="M322.585,274.441c.012,3.536,2.286,5.267,4.625,7.553a15.268,15.268,0,0,1,3.5,5.058c1.253-.368,2.2-.548,2.2-.548s-.834-5.769-1.376-9.634c-2.346-1.049-3.592-3.293-4.429-5.679a8.991,8.991,0,0,0-1.625-3.3c-2.6.07-2.755,3.109-2.9,5.949C322.584,274.04,322.584,274.244,322.585,274.441Z" transform="translate(-305.224 -228.681)" fill="#353b9a"/>
        <g id="Group_781" data-name="Group 781" transform="translate(0 35.175)">
          <path id="Path_2423" data-name="Path 2423" d="M284.354,260.073l7.677,30.693,3.178-.795-6.6-30.962Z" transform="translate(-284.354 -259.009)" fill="#a1adc6"/>
          <g id="Group_780" data-name="Group 780" transform="translate(10.219 32.65)">
            <g id="Group_779" data-name="Group 779">
              <rect id="Rectangle_293" data-name="Rectangle 293" width="1.272" height="33.5" transform="translate(23.543)" fill="#8494b4"/>
              <rect id="Rectangle_294" data-name="Rectangle 294" width="1.272" height="33.5" fill="#8494b4"/>
            </g>
          </g>
          <rect id="Rectangle_295" data-name="Rectangle 295" width="31.638" height="4.383" transform="translate(6.807 29.565)" fill="#1e3b76"/>
        </g>
        <path id="Path_2424" data-name="Path 2424" d="M317.979,223.072c1.432-.561.79-2.781-.191-3.465a10.777,10.777,0,0,0-6.092-2.053c-2.594.053-4.967,2.061-6.473,4.006-1.093,1.41-1.018,2.905-1.806,4.423-.717,1.382-2.268,2.073-3.2,3.318a4.785,4.785,0,0,0-.538,4.069,7.672,7.672,0,0,1,.39,3.156c-.22,1.373-1.32,2.383-1.694,3.708a10.335,10.335,0,0,0-.064,3.767,5.124,5.124,0,0,0,2.261,3.836c2.723,1.807,6.407-.383,6.827-3.423a15.665,15.665,0,0,0-.346-3.9,3.351,3.351,0,0,1,1.821-3.55c1.191-.77,1.754-1.271,1.662-2.76a12.3,12.3,0,0,1,.013-3.052c.218-1.15.7-1.371-.2-2.215-.632-.59-1.164-1.227-.662-2.119.409-.725,1.065-.938,1.632-.257.148.178.895,1.678,1.086.834.054-.236-.262-.693-.292-.956a1.051,1.051,0,0,1,.3-.954c.447-.473,1.106-.727,1.567-1.2.577-.6.652-1.385,1.487-1.715a2.163,2.163,0,0,1,1.334-.057C317,222.561,317.844,223.126,317.979,223.072Z" transform="translate(-291.897 -201.204)" fill="#002164"/>
        <g id="Group_783" data-name="Group 783" transform="translate(47.519 36.33)">
          <g id="Group_782" data-name="Group 782">
            <rect id="Rectangle_296" data-name="Rectangle 296" width="16.454" height="2.352" transform="translate(0 15.578)" fill="#002164"/>
            <path id="Path_2425" data-name="Path 2425" d="M427.623,261.86l-5.331,16.533-.833-.306,5.331-16.533Z" transform="translate(-406.719 -261.554)" fill="#002164"/>
          </g>
        </g>
        <g id="Group_784" data-name="Group 784" transform="translate(39.996 54.26)">
          <rect id="Rectangle_297" data-name="Rectangle 297" width="1.095" height="48.371" transform="translate(0 0)" fill="#7695a8"/>
          <rect id="Rectangle_298" data-name="Rectangle 298" width="1.095" height="48.371" transform="translate(108.732 0)" fill="#7695a8"/>
          <rect id="Rectangle_299" data-name="Rectangle 299" width="109.827" height="1.282" fill="#7695a8"/>
        </g>
        <path id="Path_2426" data-name="Path 2426" d="M384.17,290.533s1.426-.1,1.721-.154,3.719-2.973,4.191-2.759,4.913,2.17,4.9,2.726-1.17.45-3.587-.894c0,0,3.145,1.411,2.706,1.989s-3.276-1.138-3.276-1.138,2.849,1.365,2.339,1.9-3.134-1.249-3.134-1.249,2.042,1.32,1.859,1.643-1.361.062-2.761-.811c0,0-.24-.075-.806.384s-4.56.567-4.56.567Z" transform="translate(-338.621 -239.447)" fill="#ffae02"/>
        <path id="Path_2427" data-name="Path 2427" d="M351.246,275.577l-.039,3.8s-13.312.811-17.049-.435-11.614-11.294-12.287-12.978c-.81-2.024,2.273-6.944,5.324-2.46a93.769,93.769,0,0,0,8.893,10.7C336.4,274.394,351.246,275.577,351.246,275.577Z" transform="translate(-304.763 -225.289)" fill="#7270f5"/>
      </g>
      <g id="Group_790" data-name="Group 790" transform="translate(221.491 121.14)">
        <g id="Group_788" data-name="Group 788">
          <g id="Group_787" data-name="Group 787">
            <g id="Group_786" data-name="Group 786">
              <path id="Path_2428" data-name="Path 2428" d="M425.748,152.062H442l8.716,7.117-3.918-7.117H450.8a1.252,1.252,0,0,0,1.252-1.252V134.675a1.253,1.253,0,0,0-1.252-1.252H425.748a1.253,1.253,0,0,0-1.253,1.252v16.134A1.252,1.252,0,0,0,425.748,152.062Z" transform="translate(-424.495 -133.423)" fill="#7270f5"/>
            </g>
          </g>
        </g>
        <g id="Group_789" data-name="Group 789" transform="translate(9.603 3.694)">
          <path id="Path_2429" data-name="Path 2429" d="M453.763,144.689c0,2.087-2.625,2.7-2.625,3.515v.322h-2.626v-.767c0-1.121,2-1.766,2-3.009a1.008,1.008,0,0,0-1.013-1.074c-.83,0-1,.644-1,1.289a3.85,3.85,0,0,0,.015.415h-2.824c-.015-.2-.046-.384-.046-.584,0-2,1.781-3.239,4.192-3.239C452.181,141.557,453.763,142.785,453.763,144.689Zm-2.4,7.613h-3.039v-2.839h3.039Z" transform="translate(-445.642 -141.557)" fill="#fff"/>
        </g>
      </g>
      <g id="Group_795" data-name="Group 795" transform="translate(74.568 123.566)">
        <g id="Group_792" data-name="Group 792">
          <g id="Group_791" data-name="Group 791">
            <path id="Path_2430" data-name="Path 2430" d="M117.82,150.724H107.39l3.279,4.566-6.357-4.566h-2.562a.8.8,0,0,1-.8-.8V139.569a.8.8,0,0,1,.8-.8H117.82a.8.8,0,0,1,.8.8v10.352A.8.8,0,0,1,117.82,150.724Z" transform="translate(-100.946 -138.766)" fill="#fed44e"/>
          </g>
        </g>
        <g id="Group_794" data-name="Group 794" transform="translate(4.704 6.915)">
          <g id="Group_793" data-name="Group 793">
            <path id="Path_2431" data-name="Path 2431" d="M113.257,155.826H111.3v-1.833h1.952Z" transform="translate(-111.305 -153.993)" fill="#002164"/>
            <path id="Path_2432" data-name="Path 2432" d="M120.01,155.826h-1.952v-1.833h1.952Z" transform="translate(-114.991 -153.993)" fill="#002164"/>
            <path id="Path_2433" data-name="Path 2433" d="M126.765,155.826h-1.952v-1.833h1.952Z" transform="translate(-118.679 -153.993)" fill="#002164"/>
          </g>
        </g>
      </g>
      <g id="Group_801" data-name="Group 801" transform="translate(286.726 131.027)">
        <g id="Group_798" data-name="Group 798">
          <g id="Group_797" data-name="Group 797">
            <g id="Group_796" data-name="Group 796">
              <path id="Path_2434" data-name="Path 2434" d="M587.682,169.036H581.71l3.794,5.284-7.357-5.284h-9.064a.93.93,0,0,1-.93-.93v-11.98a.93.93,0,0,1,.93-.93h18.6a.93.93,0,0,1,.929.93v11.98A.929.929,0,0,1,587.682,169.036Z" transform="translate(-568.154 -155.197)" fill="#a6eedb"/>
            </g>
          </g>
        </g>
        <g id="Group_800" data-name="Group 800" transform="translate(5.444 8.003)">
          <g id="Group_799" data-name="Group 799">
            <path id="Path_2435" data-name="Path 2435" d="M582.4,174.941h-2.259V172.82H582.4Z" transform="translate(-580.143 -172.82)" fill="#002164"/>
            <path id="Path_2436" data-name="Path 2436" d="M590.217,174.941h-2.259V172.82h2.259Z" transform="translate(-584.409 -172.82)" fill="#002164"/>
            <path id="Path_2437" data-name="Path 2437" d="M598.034,174.941h-2.259V172.82h2.259Z" transform="translate(-588.677 -172.82)" fill="#002164"/>
          </g>
        </g>
      </g>
      <g id="Group_807" data-name="Group 807" transform="translate(184.235 138.941)">
        <g id="Group_804" data-name="Group 804" transform="translate(0 0)">
          <g id="Group_803" data-name="Group 803">
            <g id="Group_802" data-name="Group 802">
              <path id="Path_2438" data-name="Path 2438" d="M361.978,186.465h-5.971l-7.942,6.983,4.38-6.983H343.38a.93.93,0,0,1-.93-.93v-11.98a.93.93,0,0,1,.93-.93h18.6a.93.93,0,0,1,.93.93v11.98A.93.93,0,0,1,361.978,186.465Z" transform="translate(-342.45 -172.625)" fill="#fed44e"/>
            </g>
          </g>
        </g>
        <g id="Group_806" data-name="Group 806" transform="translate(5.444 8.003)">
          <g id="Group_805" data-name="Group 805">
            <path id="Path_2439" data-name="Path 2439" d="M356.7,192.369h-2.259v-2.121H356.7Z" transform="translate(-354.439 -190.248)" fill="#002164"/>
            <path id="Path_2440" data-name="Path 2440" d="M364.513,192.369h-2.259v-2.121h2.259Z" transform="translate(-358.705 -190.248)" fill="#002164"/>
            <path id="Path_2441" data-name="Path 2441" d="M372.33,192.369h-2.259v-2.121h2.259Z" transform="translate(-362.973 -190.248)" fill="#002164"/>
          </g>
        </g>
      </g>
      <g id="Group_813" data-name="Group 813" transform="translate(70.195 135.924)">
        <g id="Group_808" data-name="Group 808" transform="translate(0 44.107)">
          <path id="Path_2442" data-name="Path 2442" d="M161.791,263.11v1.932h-21.9v5.042h21.9v1.932h-46.7V263.11Z" transform="translate(-104.294 -263.11)" fill="#42c395"/>
          <path id="Path_2443" data-name="Path 2443" d="M100.944,284.062v0H99.527v-1.335h49.1v6.156h-49.1v-1.336h1.417c.467-.045.839-.805.839-1.74S101.411,284.107,100.944,284.062Z" transform="translate(-95.798 -273.816)" fill="#9070cf"/>
          <rect id="Rectangle_300" data-name="Rectangle 300" width="21.167" height="8.906" transform="translate(10.796)" fill="#7ae5c9"/>
          <rect id="Rectangle_301" data-name="Rectangle 301" width="27.101" height="6.156" transform="translate(25.729 8.906)" fill="#6346a8"/>
          <path id="Path_2444" data-name="Path 2444" d="M189.642,267.364v.006c-.675.064-1.212,1.164-1.212,2.515s.538,2.45,1.212,2.515v.006H166.108v-5.042Z" transform="translate(-132.145 -265.432)" fill="#f8f2ed"/>
          <path id="Path_2445" data-name="Path 2445" d="M91.316,343.465v-1.352h32.026v-3.529H91.316v-1.352h68.293v6.233Z" transform="translate(-91.316 -303.573)" fill="#fed44e"/>
          <rect id="Rectangle_302" data-name="Rectangle 302" width="30.953" height="6.233" transform="translate(37.339 33.659)" fill="#ffc104"/>
          <path id="Path_2446" data-name="Path 2446" d="M91.316,343.739v0a1.76,1.76,0,1,0,0-3.52v0H125.73v3.529Z" transform="translate(-91.316 -305.199)" fill="#f8f2ed"/>
          <path id="Path_2447" data-name="Path 2447" d="M173.482,296.277v1.932H150.01v5.042h23.472v1.932H123.431v-8.906Z" transform="translate(-108.847 -281.216)" fill="#7ae5c9"/>
          <rect id="Rectangle_303" data-name="Rectangle 303" width="28.807" height="8.906" transform="translate(8.462 15.061)" fill="#98e3ec"/>
          <path id="Path_2448" data-name="Path 2448" d="M170.051,300.531v.006c-.723.065-1.3,1.164-1.3,2.515s.576,2.45,1.3,2.515v.006H117.145v-5.043Z" transform="translate(-105.416 -283.538)" fill="#f8f2ed"/>
          <path id="Path_2449" data-name="Path 2449" d="M173.229,300.531h27.438v.006c-.723.065-1.3,1.164-1.3,2.515s.576,2.45,1.3,2.515v.006H173.229Z" transform="translate(-136.032 -283.538)" fill="#e2d4ca"/>
          <path id="Path_2450" data-name="Path 2450" d="M97.665,325.581v-2.1H124.16v-5.487H97.665v-2.1h53.191v9.692Z" transform="translate(-94.782 -291.922)" fill="#7270f5"/>
          <rect id="Rectangle_304" data-name="Rectangle 304" width="28.933" height="9.692" transform="translate(33.289 23.967)" fill="#353b9a"/>
          <path id="Path_2451" data-name="Path 2451" d="M97.666,326.006V326c.727-.07,1.305-1.267,1.305-2.737s-.579-2.666-1.305-2.737v-.007h56.058v5.487Z" transform="translate(-94.782 -294.449)" fill="#f8f2ed"/>
          <path id="Path_2452" data-name="Path 2452" d="M128.145,326.006H97.666V326c.727-.07,1.305-1.267,1.305-2.737s-.579-2.666-1.305-2.737v-.007h30.479Z" transform="translate(-94.782 -294.449)" fill="#e2d4ca"/>
          <rect id="Rectangle_305" data-name="Rectangle 305" width="15.15" height="0.003" transform="translate(5.145 13.726)" fill="#f8f2ed"/>
          <path id="Path_2453" data-name="Path 2453" d="M103.486,287.406c0-.935-.372-1.695-.839-1.74v0h18.875v3.485H102.647C103.114,289.1,103.486,288.341,103.486,287.406Z" transform="translate(-97.502 -275.421)" fill="#f8f2ed"/>
        </g>
        <g id="Group_812" data-name="Group 812" transform="translate(11.729 0)">
          <path id="Path_2454" data-name="Path 2454" d="M156.906,200.6s2.706,9.757,4.036,11.354,5.677,3.947,5.677,3.947l-1.153,2.04s-7.9-4.026-9.269-7.318a24.861,24.861,0,0,1-1.6-5.056c-.218-1.208-1.11-4.212-.665-5.411A1.7,1.7,0,0,1,156.906,200.6Z" transform="translate(-137.161 -184.265)" fill="#7ae5c9"/>
          <path id="Path_2455" data-name="Path 2455" d="M156.906,200.6s2.706,9.757,4.036,11.354,5.677,3.947,5.677,3.947l-1.153,2.04s-7.9-4.026-9.269-7.318a24.861,24.861,0,0,1-1.6-5.056c-.218-1.208-1.11-4.212-.665-5.411A1.7,1.7,0,0,1,156.906,200.6Z" transform="translate(-137.161 -184.265)" fill="#42c395"/>
          <path id="Path_2456" data-name="Path 2456" d="M220.317,302.008l1.994-1.863s7.973-.586,8.439.114-7.56,4.485-8.591,4.417S220.453,302.777,220.317,302.008Z" transform="translate(-173.467 -239.095)" fill="#002164"/>
          <path id="Path_2457" data-name="Path 2457" d="M187.8,243.808s7.54-1.919,8.161-.677,8.448,25.787,8.448,25.787l-1.994,1.863s-8.393-20.718-10.824-22.883S186.675,244.663,187.8,243.808Z" transform="translate(-155.563 -207.868)" fill="#ffae02"/>
          <path id="Path_2458" data-name="Path 2458" d="M187.8,243.808s7.54-1.919,8.161-.677,8.448,25.787,8.448,25.787l-1.994,1.863s-8.393-20.718-10.824-22.883S186.675,244.663,187.8,243.808Z" transform="translate(-155.563 -207.868)" fill="#f38b00"/>
          <g id="Group_809" data-name="Group 809" transform="translate(27.403 30.399)">
            <path id="Path_2459" data-name="Path 2459" d="M178.436,233.943a6.717,6.717,0,0,0,1.567-.629,2.09,2.09,0,0,1,1.331-.377c.359.052,3.256,1.258,2.484,1.8-.25.175-.875-.131-1.125-.221-.356-.128-.714-.3-1.055-.453.312-.016,1.879.648,1.714,1.014-.289.643-1.875-.216-2.245-.423.282.044,1.263.412,1.262.77,0,.562-1.168.093-1.421-.036a1.7,1.7,0,0,0-.531-.259,2.108,2.108,0,0,0-.71.126,4.168,4.168,0,0,1-1.235.024c-.242-.022-.8.029-.924-.178a.892.892,0,0,1,.156-.88A1.77,1.77,0,0,1,178.436,233.943Z" transform="translate(-177.49 -232.923)" fill="#ffae02"/>
            <path id="Path_2460" data-name="Path 2460" d="M178.436,233.943a6.717,6.717,0,0,0,1.567-.629,2.09,2.09,0,0,1,1.331-.377c.359.052,3.256,1.258,2.484,1.8-.25.175-.875-.131-1.125-.221-.356-.128-.714-.3-1.055-.453.312-.016,1.879.648,1.714,1.014-.289.643-1.875-.216-2.245-.423.282.044,1.263.412,1.262.77,0,.562-1.168.093-1.421-.036a1.7,1.7,0,0,0-.531-.259,2.108,2.108,0,0,0-.71.126,4.168,4.168,0,0,1-1.235.024c-.242-.022-.8.029-.924-.178a.892.892,0,0,1,.156-.88A1.77,1.77,0,0,1,178.436,233.943Z" transform="translate(-177.49 -232.923)" fill="#e8a393"/>
          </g>
          <g id="Group_811" data-name="Group 811" transform="translate(24.349 18.389)">
            <g id="Group_810" data-name="Group 810">
              <path id="Path_2461" data-name="Path 2461" d="M200.987,206.475l1.773.728-6.091,14.7-1.794-.968Z" transform="translate(-183.928 -206.475)" fill="#002164"/>
              <rect id="Rectangle_306" data-name="Rectangle 306" width="11.597" height="1.802" transform="translate(0 14.202)" fill="#002164"/>
            </g>
          </g>
          <path id="Path_2462" data-name="Path 2462" d="M120.983,190.191c1.551-.888,1.81-1.867.951-5.113a6.815,6.815,0,0,1,3.552-7.5c1.588-.654,2.984-.943,3.95-2.636s-.865-5.305,2.2-7.98c2.23-1.949,5.429-.392,5.429-.392.688-.381.972,3.633,1.022,6.652-3.875,5.931-2.771,13.681-1.359,20.321a3.047,3.047,0,0,0,.142.445c-.3,5.139-.549,9.394-.549,9.394s-9.316,5.274-15.651.759S117.876,191.969,120.983,190.191Z" transform="translate(-117.145 -165.979)" fill="#002164"/>
          <path id="Path_2463" data-name="Path 2463" d="M183.474,301.842l2.365,1.36s2.9,7.451,2.365,8.1-6.5-5.913-6.741-6.919S182.778,302.2,183.474,301.842Z" transform="translate(-152.243 -240.147)" fill="#002164"/>
          <path id="Path_2464" data-name="Path 2464" d="M171.671,244.13s15.2,1.064,16.616,2.424S176.8,271.543,176.8,271.543l-2.117-1.218s3.193-11.235,4.021-13.837,2.424-5.736,2.128-6.15-15.611,1.892-15.492-2.424S171.671,244.13,171.671,244.13Z" transform="translate(-143.457 -208.631)" fill="#ffae02"/>
          <path id="Path_2465" data-name="Path 2465" d="M155.63,184.715s-1.6,4.346-.621,7.584l-5.322-1.286s2.177-7.273,3.109-8.515S155.63,184.715,155.63,184.715Z" transform="translate(-134.91 -174.85)" fill="#ffae02"/>
          <path id="Path_2466" data-name="Path 2466" d="M153.412,188.618a2.654,2.654,0,0,0-2.729,2.636l-1-.241s2.177-7.273,3.109-8.515,2.834,2.217,2.834,2.217a17.919,17.919,0,0,0-.894,4.219A2.8,2.8,0,0,0,153.412,188.618Z" transform="translate(-134.91 -174.85)" fill="#f38b00"/>
          <path id="Path_2467" data-name="Path 2467" d="M158.494,175.057a8.081,8.081,0,0,1,2.562,1.821c.494.833.062,1.985.1,2.747a11.7,11.7,0,0,1,.136,2.078c-.115.185-.876,0-1,.164s-1.111.782-1.42,1.482-.72.761-1.44.411-3.477-3.992-3.508-5.7S156.447,174.358,158.494,175.057Z" transform="translate(-137.224 -170.857)" fill="#ffae02"/>
          <path id="Path_2468" data-name="Path 2468" d="M154.084,170.126a14.349,14.349,0,0,1,1.064,2.695,6.367,6.367,0,0,1-1.064,3.327c-.433.3-.067-2.528-1.164-1.663s.066,2.5,0,2.828a2.033,2.033,0,0,1-1.7,1.5c-1.131.1-2.994-5.522-1.763-6.92A6.366,6.366,0,0,1,154.084,170.126Z" transform="translate(-134.565 -168.243)" fill="#002164"/>
          <path id="Path_2469" data-name="Path 2469" d="M143.238,233.227l7.049-.532s3.668,4.1,7.291,4.1h12.388a22.254,22.254,0,0,1-3.607,9.245s-11.813.869-17.549.4S137.62,239.635,143.238,233.227Z" transform="translate(-130.102 -202.4)" fill="#7270f5"/>
          <path id="Path_2470" data-name="Path 2470" d="M144.623,234.055c.2-.276.416-.551.658-.828l7.049-.532s3.571,3.98,7.146,4.086C155.159,237.219,146.908,238.174,144.623,234.055Z" transform="translate(-132.145 -202.4)" fill="#353b9a"/>
          <path id="Path_2471" data-name="Path 2471" d="M191.347,242.544c-1.8-.175-3.54-.6-5.308-.828h7.772C193.043,242.11,192.665,242.673,191.347,242.544Z" transform="translate(-154.754 -207.324)" fill="#ca0045" opacity="0.32" style="mix-blend-mode: multiply;isolation: isolate"/>
          <path id="Path_2472" data-name="Path 2472" d="M147.82,196.167a30.053,30.053,0,0,0,4.333,1.391s2.28,5.026,3.166,6.386-2.248,6.564-2.425,8.81c0,0-1.885,1.8-7.594.693C145.3,213.447,143.81,199.329,147.82,196.167Z" transform="translate(-132.367 -182.459)" fill="#7ae5c9"/>
          <path id="Path_2473" data-name="Path 2473" d="M146.954,202.569a2.725,2.725,0,0,1,3.194,1c.6,1.228-.016,3.41.056,4.739a25.769,25.769,0,0,0,.517,4.616,9.605,9.605,0,0,0,1.86,3.447c-.732.443-2.853,1.33-7.281.472,0,0-.908-8.608.6-13.887C146.315,202.819,146.7,202.687,146.954,202.569Z" transform="translate(-132.367 -185.858)" fill="#42c395"/>
          <path id="Path_2474" data-name="Path 2474" d="M175.994,233.943a6.716,6.716,0,0,0,1.567-.629,2.091,2.091,0,0,1,1.331-.377c.358.052,3.255,1.258,2.484,1.8-.25.175-.875-.131-1.125-.221-.355-.128-.714-.3-1.055-.453.312-.016,1.879.648,1.714,1.014-.289.643-1.876-.216-2.245-.423.282.044,1.263.412,1.261.77,0,.562-1.167.093-1.42-.036a1.712,1.712,0,0,0-.532-.259,2.11,2.11,0,0,0-.71.126,4.168,4.168,0,0,1-1.235.024c-.242-.022-.8.029-.924-.178a.893.893,0,0,1,.156-.88A1.775,1.775,0,0,1,175.994,233.943Z" transform="translate(-148.755 -202.524)" fill="#ffae02"/>
          <path id="Path_2475" data-name="Path 2475" d="M158.61,215.5l-.621,2.334s-15.256-1.774-15.611-4.48.621-15.3,4.3-13.991.044,10.443.621,11.153S158.61,215.5,158.61,215.5Z" transform="translate(-130.883 -184.151)" fill="#7ae5c9"/>
          <path id="Path_2476" data-name="Path 2476" d="M159.611,167.115a3.052,3.052,0,0,1,3.714.166c1.9,1.53,1.83,3.826,3.393,3.626,0,0-1.031,2.661-3.294,2.029S158.823,168.712,159.611,167.115Z" transform="translate(-140.242 -166.294)" fill="#002164"/>
        </g>
      </g>
      <path id="Path_2477" data-name="Path 2477" d="M402.554,149.145h-1.808v-1.808h-1.017v1.808h-1.808v1.017h1.808v1.808h1.017v-1.808h1.808Z" transform="translate(-188.497 -19.879)" fill="#fff9fd"/>
      <path id="Path_2478" data-name="Path 2478" d="M445.693,185.956h-1.808v-1.808h-1.017v1.808H441.06v1.017h1.808v1.808h1.017v-1.808h1.808Z" transform="translate(-212.047 -39.974)" fill="#fff9fd"/>
      <path id="Path_2479" data-name="Path 2479" d="M194.128,201.112H192.32V199.3H191.3v1.808H189.5v1.017H191.3v1.808h1.017v-1.808h1.808Z" transform="translate(-74.717 -48.248)" fill="#fff9fd"/>
      <path id="Path_2480" data-name="Path 2480" d="M88.843,231.425H87.035v-1.808H86.018v1.808H84.21v1.017h1.808v1.808h1.017v-1.808h1.808Z" transform="translate(-17.242 -64.795)" fill="#fff9fd"/>
      <path id="Path_2481" data-name="Path 2481" d="M245.354,273.641h-1.808v-1.808h-1.017v1.808h-1.808v1.017h1.808v1.808h1.017v-1.808h1.808Z" transform="translate(-102.682 -87.841)" fill="#fff9fd"/>
      <path id="Path_2482" data-name="Path 2482" d="M306.25,204.43h-1.808v-1.808h-1.017v1.808h-1.808v1.017h1.808v1.808h1.017v-1.808h1.808Z" transform="translate(-135.925 -50.059)" fill="#fff9fd"/>
      <path id="Path_2483" data-name="Path 2483" d="M543.045,167.691h-1.808v-1.808H540.22v1.808h-1.808v1.017h1.808v1.808h1.017v-1.808h1.808Z" transform="translate(-265.191 -30.003)" fill="#fff9fd"/>
      <path id="Path_2484" data-name="Path 2484" d="M646.927,196.191H645.12v-1.808H644.1v1.808h-1.808v1.017H644.1v1.808h1.017v-1.808h1.808Z" transform="translate(-321.901 -45.561)" fill="#fff9fd"/>
      <path id="Path_2485" data-name="Path 2485" d="M705.886,209.52h-1.808v-1.808h-1.017v1.808h-1.808v1.017h1.808v1.808h1.017v-1.808h1.808Z" transform="translate(-354.087 -52.838)" fill="#fff9fd"/>
      <path id="Path_2486" data-name="Path 2486" d="M786.975,257.829h-1.808v-1.808H784.15v1.808h-1.808v1.017h1.808v1.808h1.017v-1.808h1.808Z" transform="translate(-398.354 -79.21)" fill="#fff9fd"/>
      <g id="Group_814" data-name="Group 814" transform="translate(131.081 165.553)">
        <path id="Path_2487" data-name="Path 2487" d="M231.236,233.479c0,1.5-1.887,1.942-1.887,2.527v.232h-1.888v-.552c0-.806,1.435-1.269,1.435-2.163a.725.725,0,0,0-.728-.772c-.6,0-.717.464-.717.927a2.842,2.842,0,0,0,.01.3h-2.03c-.011-.144-.033-.276-.033-.42,0-1.434,1.281-2.328,3.013-2.328C230.1,231.228,231.236,232.111,231.236,233.479Zm-1.722,5.473h-2.185v-2.041h2.185Z" transform="translate(-225.398 -231.228)" fill="#fff"/>
      </g>
      <g id="Group_815" data-name="Group 815" transform="translate(170.245 135.691)">
        <path id="Path_2488" data-name="Path 2488" d="M317.481,167.717c0,1.5-1.887,1.942-1.887,2.527v.232h-1.887v-.552c0-.806,1.435-1.269,1.435-2.163a.724.724,0,0,0-.728-.772c-.6,0-.718.464-.718.927a2.739,2.739,0,0,0,.011.3h-2.03c-.011-.144-.034-.276-.034-.42,0-1.435,1.281-2.328,3.013-2.328C316.344,165.466,317.481,166.349,317.481,167.717Zm-1.722,5.473h-2.185v-2.041h2.185Z" transform="translate(-311.643 -165.466)" fill="#fff"/>
      </g>
      <g id="Group_816" data-name="Group 816" transform="translate(75.281 150.455)">
        <path id="Path_2489" data-name="Path 2489" d="M106.928,199.681c0,1.133-1.426,1.467-1.426,1.909v.175h-1.426v-.417c0-.608,1.084-.959,1.084-1.634a.548.548,0,0,0-.55-.583c-.45,0-.542.35-.542.7a2.071,2.071,0,0,0,.008.225h-1.534c-.009-.109-.025-.208-.025-.317,0-1.083.968-1.759,2.276-1.759C106.068,197.98,106.928,198.647,106.928,199.681Zm-1.3,4.135h-1.65v-1.542h1.65Z" transform="translate(-102.517 -197.98)" fill="#fff"/>
      </g>
      <g id="Group_817" data-name="Group 817" transform="translate(345.548 170.7)">
        <path id="Path_2490" data-name="Path 2490" d="M703.528,244.814c0,1.5-1.887,1.942-1.887,2.527v.232h-1.887v-.552c0-.806,1.435-1.269,1.435-2.162a.725.725,0,0,0-.728-.773c-.6,0-.718.464-.718.927a2.734,2.734,0,0,0,.011.3h-2.03c-.011-.144-.034-.276-.034-.42,0-1.435,1.281-2.328,3.013-2.328C702.391,242.563,703.528,243.446,703.528,244.814Zm-1.722,5.473h-2.185v-2.041h2.185Z" transform="translate(-697.69 -242.563)" fill="#fff"/>
      </g>
      <g id="Group_818" data-name="Group 818" transform="translate(317.956 130.443)">
        <path id="Path_2491" data-name="Path 2491" d="M638.82,153.911V157.2l-.354,2.29h-1.185l-.354-2.29v-3.285Zm-.08,7.017a.906.906,0,1,1-.911-.9A.868.868,0,0,1,638.741,160.928Z" transform="translate(-636.928 -153.911)" fill="#fff"/>
      </g>
      <g id="Group_819" data-name="Group 819" transform="translate(139.41 150.348)">
        <path id="Path_2492" data-name="Path 2492" d="M245.631,197.745v3.286l-.354,2.29h-1.185l-.354-2.29v-3.286Zm-.079,7.017a.906.906,0,1,1-.911-.9A.868.868,0,0,1,245.552,204.762Z" transform="translate(-243.739 -197.745)" fill="#fff"/>
      </g>
      <g id="Group_821" data-name="Group 821" transform="translate(69.285 183.442)">
        <g id="Group_820" data-name="Group 820">
          <path id="Path_2493" data-name="Path 2493" d="M90.8,272.02H89.311v-1.4H90.8Z" transform="translate(-89.311 -270.622)" fill="#fff"/>
          <path id="Path_2494" data-name="Path 2494" d="M95.95,272.02H94.461v-1.4H95.95Z" transform="translate(-92.122 -270.622)" fill="#fff"/>
          <path id="Path_2495" data-name="Path 2495" d="M101.1,272.02H99.612v-1.4H101.1Z" transform="translate(-94.934 -270.622)" fill="#fff"/>
        </g>
      </g>
      <g id="Group_823" data-name="Group 823" transform="translate(152.651 202.446)">
        <g id="Group_822" data-name="Group 822" transform="translate(0)">
          <path id="Path_2496" data-name="Path 2496" d="M274.386,313.869H272.9v-1.4h1.488Z" transform="translate(-272.897 -312.472)" fill="#fff"/>
          <path id="Path_2497" data-name="Path 2497" d="M279.536,313.869h-1.489v-1.4h1.489Z" transform="translate(-275.708 -312.472)" fill="#fff"/>
          <path id="Path_2498" data-name="Path 2498" d="M284.686,313.869H283.2v-1.4h1.489Z" transform="translate(-278.52 -312.472)" fill="#fff"/>
        </g>
      </g>
      <g id="Group_825" data-name="Group 825" transform="translate(326.491 167.11)">
        <g id="Group_824" data-name="Group 824" transform="translate(0 0)">
          <path id="Path_2499" data-name="Path 2499" d="M657.212,236.053h-1.489v-1.4h1.489Z" transform="translate(-655.723 -234.656)" fill="#fff"/>
          <path id="Path_2500" data-name="Path 2500" d="M662.36,236.053h-1.488v-1.4h1.488Z" transform="translate(-658.534 -234.656)" fill="#fff"/>
          <path id="Path_2501" data-name="Path 2501" d="M667.512,236.053h-1.489v-1.4h1.489Z" transform="translate(-661.346 -234.656)" fill="#fff"/>
        </g>
      </g>
      <g id="Group_827" data-name="Group 827" transform="translate(382.834 163.133)">
        <g id="Group_826" data-name="Group 826" transform="translate(0 0)">
          <path id="Path_2502" data-name="Path 2502" d="M781.288,227.3H779.8v-1.4h1.489Z" transform="translate(-779.799 -225.899)" fill="#fff"/>
          <path id="Path_2503" data-name="Path 2503" d="M786.437,227.3h-1.489v-1.4h1.489Z" transform="translate(-782.61 -225.899)" fill="#fff"/>
          <path id="Path_2504" data-name="Path 2504" d="M791.589,227.3H790.1v-1.4h1.489Z" transform="translate(-785.422 -225.899)" fill="#fff"/>
        </g>
      </g>
      <g id="Group_828" data-name="Group 828" transform="translate(323.753 132.733)">
        <circle id="Ellipse_26" data-name="Ellipse 26" cx="8.325" cy="8.325" r="8.325" transform="translate(0 14.219) rotate(-58.649)" fill="#fed44e"/>
        <path id="Path_2505" data-name="Path 2505" d="M674.887,174.915h8.3c.013-.188.029-.376.029-.568a8.328,8.328,0,0,0-6.636-8.153Z" transform="translate(-663.446 -162.906)" fill="#002164"/>
      </g>
    </g>
  </g>
</svg>
